<ttFont>
<head>
    <!-- Most of this table will be recalculated by the compiler -->
    <tableVersion value="1.0"/>
    <fontRevision value="3.001"/>
    <checkSumAdjustment value="0xedd7661d"/>
    <magicNumber value="0x5f0f3cf5"/>
    <flags value="00000000 00000110"/>
    <unitsPerEm value="2048"/>
    <created value="Mon Oct 23 16:00:00 2017"/>
    <modified value="Tue Jan 23 01:00:09 2018"/>
    <xMin value="-954"/>
    <yMin value="-605"/>
    <xMax value="1355"/>
    <yMax value="2027"/>
    <macStyle value="00000000 00000000"/>
    <lowestRecPPEM value="6"/>
    <fontDirectionHint value="2"/>
    <indexToLocFormat value="1"/>
    <glyphDataFormat value="0"/>
  </head>
    <TTGlyph name=".notdef" xMin="104" yMin="-362" xMax="1128" yMax="1444">
      <contour>
        <pt x="1128" y="1444" on="1"/>
        <pt x="1128" y="-362" on="1"/>
        <pt x="104" y="-362" on="1"/>
        <pt x="104" y="1444" on="1"/>
      </contour>
      <contour>
        <pt x="1014" y="1329" on="1"/>
        <pt x="219" y="1329" on="1"/>
        <pt x="219" y="-248" on="1"/>
        <pt x="1014" y="-248" on="1"/>
      </contour>
    </TTGlyph>
    <TTGlyph name="c6459" xMin="319" yMin="1294" xMax="913" yMax="1497">
      <contour>
        <pt x="492" y="1497" on="1"/>
        <pt x="522" y="1497" on="0"/>
        <pt x="522" y="1467" on="1"/>
        <pt x="522" y="1324" on="1"/>
        <pt x="522" y="1294" on="0"/>
        <pt x="492" y="1294" on="1"/>
        <pt x="349" y="1294" on="1"/>
        <pt x="319" y="1294" on="0"/>
        <pt x="319" y="1324" on="1"/>
        <pt x="319" y="1467" on="1"/>
        <pt x="319" y="1497" on="0"/>
        <pt x="349" y="1497" on="1"/>
      </contour>
      <contour>
        <pt x="883" y="1497" on="1"/>
        <pt x="913" y="1497" on="0"/>
        <pt x="913" y="1467" on="1"/>
        <pt x="913" y="1324" on="1"/>
        <pt x="913" y="1294" on="0"/>
        <pt x="883" y="1294" on="1"/>
        <pt x="741" y="1294" on="1"/>
        <pt x="711" y="1294" on="0"/>
        <pt x="711" y="1324" on="1"/>
        <pt x="711" y="1467" on="1"/>
        <pt x="711" y="1497" on="0"/>
        <pt x="741" y="1497" on="1"/>
      </contour>
    </TTGlyph>
    <TTGlyph name="c6460" xMin="475" yMin="1262" xMax="858" yMax="1526">
      <contour>
        <pt x="629" y="1262" on="1"/>
        <pt x="475" y="1262" on="1"/>
        <pt x="672" y="1526" on="1"/>
        <pt x="858" y="1526" on="1"/>
      </contour>
    </TTGlyph>
    <TTGlyph name="c6461" xMin="287" yMin="1294" xMax="946" yMax="1513">
      <contour>
        <pt x="555" y="1370" on="1"/>
        <pt x="542" y="1377" on="0"/>
        <pt x="523" y="1387" on="0"/>
        <pt x="515" y="1390" on="1"/>
        <pt x="495" y="1395" on="0"/>
        <pt x="487" y="1395" on="1"/>
        <pt x="451" y="1395" on="0"/>
        <pt x="432" y="1370" on="1"/>
        <pt x="412" y="1344" on="0"/>
        <pt x="412" y="1300" on="1"/>
        <pt x="412" y="1294" on="1"/>
        <pt x="287" y="1294" on="1"/>
        <pt x="287" y="1396" on="0"/>
        <pt x="339" y="1454" on="1"/>
        <pt x="390" y="1513" on="0"/>
        <pt x="475" y="1513" on="1"/>
        <pt x="508" y="1513" on="0"/>
        <pt x="542" y="1505" on="1"/>
        <pt x="574" y="1497" on="0"/>
        <pt x="621" y="1470" on="1"/>
        <pt x="678" y="1440" on="1"/>
        <pt x="698" y="1427" on="0"/>
        <pt x="718" y="1421" on="1"/>
        <pt x="734" y="1415" on="0"/>
        <pt x="750" y="1415" on="1"/>
        <pt x="781" y="1415" on="0"/>
        <pt x="821" y="1467" on="0"/>
        <pt x="821" y="1507" on="1"/>
        <pt x="821" y="1513" on="1"/>
        <pt x="946" y="1513" on="1"/>
        <pt x="944" y="1411" on="0"/>
        <pt x="893" y="1354" on="1"/>
        <pt x="842" y="1294" on="0"/>
        <pt x="758" y="1294" on="1"/>
        <pt x="728" y="1294" on="0"/>
        <pt x="694" y="1302" on="1"/>
        <pt x="662" y="1310" on="0"/>
        <pt x="612" y="1337" on="1"/>
      </contour>
    </TTGlyph>
    <TTGlyph name="c6468" xMin="377" yMin="1262" xMax="758" yMax="1526">
      <contour>
        <pt x="604" y="1262" on="1"/>
        <pt x="377" y="1526" on="1"/>
        <pt x="561" y="1526" on="1"/>
        <pt x="758" y="1262" on="1"/>
      </contour>
    </TTGlyph>
    <TTGlyph name="c6470" xMin="311" yMin="1262" xMax="922" yMax="1528">
      <contour>
        <pt x="922" y="1262" on="1"/>
        <pt x="782" y="1262" on="1"/>
        <pt x="616" y="1440" on="1"/>
        <pt x="451" y="1262" on="1"/>
        <pt x="311" y="1262" on="1"/>
        <pt x="522" y="1528" on="1"/>
        <pt x="711" y="1528" on="1"/>
      </contour>
    </TTGlyph>
    <TTGlyph name="c6472" xMin="311" yMin="1262" xMax="922" yMax="1528">
      <contour>
        <pt x="451" y="1528" on="1"/>
        <pt x="616" y="1350" on="1"/>
        <pt x="782" y="1528" on="1"/>
        <pt x="922" y="1528" on="1"/>
        <pt x="711" y="1262" on="1"/>
        <pt x="522" y="1262" on="1"/>
        <pt x="311" y="1528" on="1"/>
      </contour>
    </TTGlyph>
    <TTGlyph name="c6475" xMin="303" yMin="1286" xMax="930" yMax="1528">
      <contour>
        <pt x="422" y="1528" on="1"/>
        <pt x="447" y="1417" on="0"/>
        <pt x="616" y="1417" on="1"/>
        <pt x="699" y="1417" on="0"/>
        <pt x="748" y="1445" on="1"/>
        <pt x="796" y="1472" on="0"/>
        <pt x="811" y="1528" on="1"/>
        <pt x="930" y="1528" on="1"/>
        <pt x="920" y="1410" on="0"/>
        <pt x="840" y="1348" on="1"/>
        <pt x="760" y="1286" on="0"/>
        <pt x="616" y="1286" on="1"/>
        <pt x="472" y="1286" on="0"/>
        <pt x="393" y="1347" on="1"/>
        <pt x="314" y="1408" on="0"/>
        <pt x="303" y="1528" on="1"/>
      </contour>
    </TTGlyph>
    <TTGlyph name="c6476" xMin="514" yMin="1294" xMax="719" yMax="1499">
      <contour>
        <pt x="689" y="1499" on="1"/>
        <pt x="719" y="1499" on="0"/>
        <pt x="719" y="1469" on="1"/>
        <pt x="719" y="1324" on="1"/>
        <pt x="719" y="1294" on="0"/>
        <pt x="689" y="1294" on="1"/>
        <pt x="544" y="1294" on="1"/>
        <pt x="514" y="1294" on="0"/>
        <pt x="514" y="1324" on="1"/>
        <pt x="514" y="1469" on="1"/>
        <pt x="514" y="1499" on="0"/>
        <pt x="544" y="1499" on="1"/>
      </contour>
    </TTGlyph>
    <TTGlyph name="c6477" xMin="27" yMin="504" xMax="1114" yMax="874">
      <contour>
        <pt x="1087" y="874" on="1"/>
        <pt x="1114" y="766" on="1"/>
        <pt x="51" y="504" on="1"/>
        <pt x="27" y="612" on="1"/>
      </contour>
    </TTGlyph>
    <TTGlyph name="c6478" xMin="268" yMin="668" xMax="909" yMax="1503">
      <contour>
        <pt x="793" y="965" on="1"/>
        <pt x="909" y="965" on="1"/>
        <pt x="909" y="854" on="1"/>
        <pt x="793" y="854" on="1"/>
        <pt x="793" y="668" on="1"/>
        <pt x="655" y="668" on="1"/>
        <pt x="655" y="854" on="1"/>
        <pt x="268" y="854" on="1"/>
        <pt x="268" y="975" on="1"/>
        <pt x="631" y="1503" on="1"/>
        <pt x="793" y="1503" on="1"/>
      </contour>
      <contour>
        <pt x="655" y="965" on="1"/>
        <pt x="655" y="1378" on="1"/>
        <pt x="381" y="965" on="1"/>
      </contour>
    </TTGlyph>
    <TTGlyph name="uni0021" xMin="454" yMin="-60" xMax="778" yMax="1498">
      <contour>
        <pt x="481" y="1053" on="1"/>
        <pt x="481" y="1498" on="1"/>
        <pt x="746" y="1498" on="1"/>
        <pt x="746" y="1053" on="1"/>
        <pt x="679" y="486" on="1"/>
        <pt x="558" y="486" on="1"/>
      </contour>
      <contour>
        <pt x="616" y="-60" on="1"/>
        <pt x="546" y="-60" on="0"/>
        <pt x="500" y="-12" on="1"/>
        <pt x="454" y="34" on="0"/>
        <pt x="454" y="113" on="1"/>
        <pt x="454" y="191" on="0"/>
        <pt x="500" y="237" on="1"/>
        <pt x="547" y="284" on="0"/>
        <pt x="616" y="284" on="1"/>
        <pt x="685" y="284" on="0"/>
        <pt x="732" y="237" on="1"/>
        <pt x="778" y="191" on="0"/>
        <pt x="778" y="113" on="1"/>
        <pt x="778" y="34" on="0"/>
        <pt x="732" y="-12" on="1"/>
        <pt x="686" y="-60" on="0"/>
      </contour>
    </TTGlyph>
    <TTGlyph name="uni0022" xMin="338" yMin="938" xMax="895" yMax="1493">
      <contour>
        <pt x="338" y="1493" on="1"/>
        <pt x="512" y="1493" on="1"/>
        <pt x="512" y="938" on="1"/>
        <pt x="338" y="938" on="1"/>
      </contour>
      <contour>
        <pt x="721" y="1493" on="1"/>
        <pt x="895" y="1493" on="1"/>
        <pt x="895" y="938" on="1"/>
        <pt x="721" y="938" on="1"/>
      </contour>
    </TTGlyph>
    <TTGlyph name="uni0023" xMin="2" yMin="0" xMax="1229" yMax="1470">
      <contour>
        <pt x="260" y="414" on="1"/>
        <pt x="2" y="414" on="1"/>
        <pt x="2" y="567" on="1"/>
        <pt x="299" y="567" on="1"/>
        <pt x="383" y="901" on="1"/>
        <pt x="117" y="901" on="1"/>
        <pt x="117" y="1055" on="1"/>
        <pt x="420" y="1055" on="1"/>
        <pt x="524" y="1470" on="1"/>
        <pt x="684" y="1470" on="1"/>
        <pt x="580" y="1055" on="1"/>
        <pt x="825" y="1055" on="1"/>
        <pt x="930" y="1470" on="1"/>
        <pt x="1090" y="1470" on="1"/>
        <pt x="985" y="1055" on="1"/>
        <pt x="1229" y="1055" on="1"/>
        <pt x="1229" y="901" on="1"/>
        <pt x="948" y="901" on="1"/>
        <pt x="864" y="567" on="1"/>
        <pt x="1114" y="567" on="1"/>
        <pt x="1114" y="414" on="1"/>
        <pt x="825" y="414" on="1"/>
        <pt x="721" y="0" on="1"/>
        <pt x="561" y="0" on="1"/>
        <pt x="666" y="414" on="1"/>
        <pt x="420" y="414" on="1"/>
        <pt x="315" y="0" on="1"/>
        <pt x="156" y="0" on="1"/>
      </contour>
      <contour>
        <pt x="705" y="567" on="1"/>
        <pt x="788" y="901" on="1"/>
        <pt x="543" y="901" on="1"/>
        <pt x="459" y="567" on="1"/>
      </contour>
    </TTGlyph>
    <TTGlyph name="uni0024" xMin="190" yMin="-301" xMax="1114" yMax="1556">
      <contour>
        <pt x="552" y="0" on="1"/>
        <pt x="540" y="2" on="0"/>
        <pt x="440" y="17" on="0"/>
        <pt x="389" y="28" on="1"/>
        <pt x="295" y="49" on="0"/>
        <pt x="190" y="92" on="1"/>
        <pt x="190" y="272" on="1"/>
        <pt x="244" y="239" on="0"/>
        <pt x="340" y="194" on="0"/>
        <pt x="392" y="177" on="1"/>
        <pt x="491" y="144" on="0"/>
        <pt x="582" y="142" on="1"/>
        <pt x="582" y="600" on="1"/>
        <pt x="492" y="616" on="0"/>
        <pt x="343" y="675" on="0"/>
        <pt x="291" y="722" on="1"/>
        <pt x="190" y="813" on="0"/>
        <pt x="190" y="964" on="1"/>
        <pt x="190" y="1120" on="0"/>
        <pt x="296" y="1214" on="1"/>
        <pt x="401" y="1307" on="0"/>
        <pt x="552" y="1321" on="1"/>
        <pt x="552" y="1556" on="1"/>
        <pt x="732" y="1556" on="1"/>
        <pt x="732" y="1321" on="1"/>
        <pt x="733" y="1319" on="0"/>
        <pt x="816" y="1308" on="0"/>
        <pt x="853" y="1301" on="1"/>
        <pt x="894" y="1293" on="0"/>
        <pt x="976" y="1273" on="0"/>
        <pt x="1018" y="1260" on="1"/>
        <pt x="1018" y="1087" on="1"/>
        <pt x="974" y="1110" on="0"/>
        <pt x="882" y="1146" on="0"/>
        <pt x="853" y="1154" on="1"/>
        <pt x="819" y="1164" on="0"/>
        <pt x="734" y="1179" on="0"/>
        <pt x="702" y="1181" on="1"/>
        <pt x="702" y="750" on="1"/>
        <pt x="899" y="718" on="0"/>
        <pt x="1006" y="622" on="1"/>
        <pt x="1114" y="524" on="0"/>
        <pt x="1114" y="373" on="1"/>
        <pt x="1114" y="218" on="0"/>
        <pt x="998" y="114" on="1"/>
        <pt x="883" y="11" on="0"/>
        <pt x="732" y="2" on="1"/>
        <pt x="732" y="-301" on="1"/>
        <pt x="552" y="-301" on="1"/>
      </contour>
      <contour>
        <pt x="582" y="1183" on="1"/>
        <pt x="489" y="1179" on="0"/>
        <pt x="430" y="1123" on="1"/>
        <pt x="371" y="1067" on="0"/>
        <pt x="371" y="974" on="1"/>
        <pt x="371" y="887" on="0"/>
        <pt x="426" y="837" on="1"/>
        <pt x="483" y="786" on="0"/>
        <pt x="582" y="770" on="1"/>
      </contour>
      <contour>
        <pt x="702" y="146" on="1"/>
        <pt x="803" y="149" on="0"/>
        <pt x="864" y="207" on="1"/>
        <pt x="926" y="266" on="0"/>
        <pt x="926" y="363" on="1"/>
        <pt x="926" y="460" on="0"/>
        <pt x="870" y="510" on="1"/>
        <pt x="813" y="561" on="0"/>
        <pt x="702" y="580" on="1"/>
      </contour>
    </TTGlyph>
    <TTGlyph name="uni0025" xMin="33" yMin="0" xMax="1200" yMax="1432">
      <contour>
        <pt x="351" y="793" on="1"/>
        <pt x="283" y="793" on="0"/>
        <pt x="167" y="842" on="0"/>
        <pt x="125" y="884" on="1"/>
        <pt x="33" y="976" on="0"/>
        <pt x="33" y="1112" on="1"/>
        <pt x="33" y="1205" on="0"/>
        <pt x="117" y="1350" on="0"/>
        <pt x="262" y="1432" on="0"/>
        <pt x="352" y="1432" on="1"/>
        <pt x="416" y="1432" on="0"/>
        <pt x="475" y="1408" on="1"/>
        <pt x="533" y="1384" on="0"/>
        <pt x="578" y="1339" on="1"/>
        <pt x="624" y="1293" on="0"/>
        <pt x="648" y="1236" on="1"/>
        <pt x="672" y="1178" on="0"/>
        <pt x="672" y="1113" on="1"/>
        <pt x="672" y="977" on="0"/>
        <pt x="580" y="885" on="1"/>
        <pt x="538" y="843" on="0"/>
        <pt x="420" y="793" on="0"/>
      </contour>
      <contour>
        <pt x="351" y="928" on="1"/>
        <pt x="428" y="928" on="0"/>
        <pt x="483" y="981" on="1"/>
        <pt x="506" y="1004" on="0"/>
        <pt x="537" y="1071" on="0"/>
        <pt x="537" y="1113" on="1"/>
        <pt x="537" y="1189" on="0"/>
        <pt x="483" y="1243" on="1"/>
        <pt x="427" y="1296" on="0"/>
        <pt x="353" y="1296" on="1"/>
        <pt x="275" y="1296" on="0"/>
        <pt x="222" y="1244" on="1"/>
        <pt x="168" y="1192" on="0"/>
        <pt x="168" y="1112" on="1"/>
        <pt x="168" y="1033" on="0"/>
        <pt x="221" y="980" on="1"/>
        <pt x="243" y="958" on="0"/>
        <pt x="309" y="928" on="0"/>
      </contour>
      <contour>
        <pt x="42" y="560" on="1"/>
        <pt x="1192" y="996" on="1"/>
        <pt x="1192" y="883" on="1"/>
        <pt x="42" y="453" on="1"/>
      </contour>
      <contour>
        <pt x="879" y="0" on="1"/>
        <pt x="743" y="0" on="0"/>
        <pt x="651" y="92" on="1"/>
        <pt x="561" y="184" on="0"/>
        <pt x="561" y="318" on="1"/>
        <pt x="561" y="412" on="0"/>
        <pt x="645" y="556" on="0"/>
        <pt x="789" y="639" on="0"/>
        <pt x="879" y="639" on="1"/>
        <pt x="1010" y="639" on="0"/>
        <pt x="1104" y="545" on="1"/>
        <pt x="1130" y="519" on="0"/>
        <pt x="1164" y="465" on="0"/>
        <pt x="1175" y="440" on="1"/>
        <pt x="1200" y="384" on="0"/>
        <pt x="1200" y="319" on="1"/>
        <pt x="1200" y="256" on="0"/>
        <pt x="1155" y="140" on="0"/>
        <pt x="1107" y="92" on="1"/>
        <pt x="1012" y="0" on="0"/>
      </contour>
      <contour>
        <pt x="879" y="135" on="1"/>
        <pt x="956" y="135" on="0"/>
        <pt x="1010" y="189" on="1"/>
        <pt x="1063" y="242" on="0"/>
        <pt x="1063" y="319" on="1"/>
        <pt x="1063" y="396" on="0"/>
        <pt x="955" y="504" on="0"/>
        <pt x="879" y="504" on="1"/>
        <pt x="802" y="504" on="0"/>
        <pt x="696" y="398" on="0"/>
        <pt x="696" y="319" on="1"/>
        <pt x="696" y="241" on="0"/>
        <pt x="802" y="135" on="0"/>
      </contour>
    </TTGlyph>
    <TTGlyph name="uni0026" xMin="56" yMin="-30" xMax="1221" yMax="1520">
      <contour>
        <pt x="552" y="-30" on="1"/>
        <pt x="445" y="-30" on="0"/>
        <pt x="264" y="43" on="0"/>
        <pt x="198" y="106" on="1"/>
        <pt x="134" y="167" on="0"/>
        <pt x="56" y="336" on="0"/>
        <pt x="56" y="439" on="1"/>
        <pt x="56" y="506" on="0"/>
        <pt x="91" y="639" on="0"/>
        <pt x="126" y="698" on="1"/>
        <pt x="194" y="814" on="0"/>
        <pt x="334" y="915" on="1"/>
        <pt x="282" y="990" on="0"/>
        <pt x="260" y="1056" on="1"/>
        <pt x="236" y="1125" on="0"/>
        <pt x="236" y="1197" on="1"/>
        <pt x="236" y="1276" on="0"/>
        <pt x="288" y="1391" on="0"/>
        <pt x="336" y="1433" on="1"/>
        <pt x="435" y="1520" on="0"/>
        <pt x="608" y="1520" on="1"/>
        <pt x="673" y="1520" on="0"/>
        <pt x="739" y="1508" on="1"/>
        <pt x="794" y="1498" on="0"/>
        <pt x="874" y="1473" on="1"/>
        <pt x="874" y="1290" on="1"/>
        <pt x="816" y="1330" on="0"/>
        <pt x="752" y="1348" on="1"/>
        <pt x="690" y="1366" on="0"/>
        <pt x="624" y="1366" on="1"/>
        <pt x="524" y="1366" on="0"/>
        <pt x="468" y="1321" on="1"/>
        <pt x="412" y="1276" on="0"/>
        <pt x="412" y="1197" on="1"/>
        <pt x="412" y="1141" on="0"/>
        <pt x="441" y="1075" on="1"/>
        <pt x="455" y="1045" on="0"/>
        <pt x="505" y="963" on="0"/>
        <pt x="547" y="907" on="1"/>
        <pt x="963" y="348" on="1"/>
        <pt x="1002" y="400" on="0"/>
        <pt x="1021" y="472" on="1"/>
        <pt x="1040" y="547" on="0"/>
        <pt x="1040" y="647" on="1"/>
        <pt x="1040" y="667" on="0"/>
        <pt x="1039" y="718" on="0"/>
        <pt x="1037" y="753" on="1"/>
        <pt x="1036" y="760" on="1"/>
        <pt x="1200" y="760" on="1"/>
        <pt x="1200" y="721" on="1"/>
        <pt x="1200" y="557" on="0"/>
        <pt x="1163" y="439" on="1"/>
        <pt x="1126" y="317" on="0"/>
        <pt x="1051" y="229" on="1"/>
        <pt x="1221" y="0" on="1"/>
        <pt x="1008" y="0" on="1"/>
        <pt x="930" y="109" on="1"/>
        <pt x="890" y="75" on="0"/>
        <pt x="804" y="23" on="0"/>
        <pt x="753" y="5" on="1"/>
        <pt x="711" y="-10" on="0"/>
        <pt x="609" y="-30" on="0"/>
      </contour>
      <contour>
        <pt x="585" y="125" on="1"/>
        <pt x="630" y="125" on="0"/>
        <pt x="676" y="137" on="1"/>
        <pt x="729" y="151" on="0"/>
        <pt x="766" y="172" on="1"/>
        <pt x="790" y="186" on="0"/>
        <pt x="811" y="199" on="1"/>
        <pt x="833" y="212" on="0"/>
        <pt x="836" y="218" on="0"/>
        <pt x="844" y="223" on="1"/>
        <pt x="416" y="803" on="1"/>
        <pt x="322" y="727" on="0"/>
        <pt x="279" y="649" on="1"/>
        <pt x="233" y="567" on="0"/>
        <pt x="233" y="473" on="1"/>
        <pt x="233" y="324" on="0"/>
        <pt x="332" y="225" on="1"/>
        <pt x="379" y="178" on="0"/>
        <pt x="508" y="125" on="0"/>
      </contour>
    </TTGlyph>
    <TTGlyph name="uni0027" xMin="528" yMin="938" xMax="702" yMax="1493">
      <contour>
        <pt x="528" y="1493" on="1"/>
        <pt x="702" y="1493" on="1"/>
        <pt x="702" y="938" on="1"/>
        <pt x="528" y="938" on="1"/>
      </contour>
    </TTGlyph>
    <TTGlyph name="uni0028" xMin="296" yMin="-270" xMax="755" yMax="1554">
      <contour>
        <pt x="595" y="-270" on="1"/>
        <pt x="442" y="-27" on="0"/>
        <pt x="370" y="194" on="1"/>
        <pt x="296" y="422" on="0"/>
        <pt x="296" y="643" on="1"/>
        <pt x="296" y="862" on="0"/>
        <pt x="370" y="1092" on="1"/>
        <pt x="408" y="1207" on="0"/>
        <pt x="518" y="1434" on="0"/>
        <pt x="595" y="1554" on="1"/>
        <pt x="755" y="1554" on="1"/>
        <pt x="684" y="1433" on="0"/>
        <pt x="589" y="1212" on="0"/>
        <pt x="557" y="1100" on="1"/>
        <pt x="491" y="870" on="0"/>
        <pt x="491" y="643" on="1"/>
        <pt x="491" y="189" on="0"/>
        <pt x="755" y="-270" on="1"/>
      </contour>
    </TTGlyph>
    <TTGlyph name="uni0029" xMin="478" yMin="-270" xMax="937" yMax="1554">
      <contour>
        <pt x="478" y="-270" on="1"/>
        <pt x="609" y="-41" on="0"/>
        <pt x="677" y="189" on="1"/>
        <pt x="708" y="296" on="0"/>
        <pt x="742" y="526" on="0"/>
        <pt x="742" y="643" on="1"/>
        <pt x="742" y="873" on="0"/>
        <pt x="677" y="1098" on="1"/>
        <pt x="646" y="1205" on="0"/>
        <pt x="547" y="1435" on="0"/>
        <pt x="478" y="1554" on="1"/>
        <pt x="638" y="1554" on="1"/>
        <pt x="791" y="1317" on="0"/>
        <pt x="863" y="1092" on="1"/>
        <pt x="937" y="862" on="0"/>
        <pt x="937" y="643" on="1"/>
        <pt x="937" y="422" on="0"/>
        <pt x="863" y="192" on="1"/>
        <pt x="790" y="-34" on="0"/>
        <pt x="638" y="-270" on="1"/>
      </contour>
    </TTGlyph>
    <TTGlyph name="uni002A" xMin="128" yMin="419" xMax="1100" yMax="1420">
      <contour>
        <pt x="250" y="486" on="1"/>
        <pt x="492" y="857" on="1"/>
        <pt x="128" y="1015" on="1"/>
        <pt x="164" y="1118" on="1"/>
        <pt x="540" y="995" on="1"/>
        <pt x="560" y="1420" on="1"/>
        <pt x="668" y="1420" on="1"/>
        <pt x="688" y="995" on="1"/>
        <pt x="1064" y="1118" on="1"/>
        <pt x="1100" y="1015" on="1"/>
        <pt x="736" y="857" on="1"/>
        <pt x="978" y="486" on="1"/>
        <pt x="884" y="419" on="1"/>
        <pt x="614" y="776" on="1"/>
        <pt x="344" y="419" on="1"/>
      </contour>
    </TTGlyph>
    <TTGlyph name="uni002B" xMin="88" yMin="113" xMax="1145" yMax="1171">
      <contour>
        <pt x="532" y="557" on="1"/>
        <pt x="88" y="557" on="1"/>
        <pt x="88" y="727" on="1"/>
        <pt x="532" y="727" on="1"/>
        <pt x="532" y="1171" on="1"/>
        <pt x="700" y="1171" on="1"/>
        <pt x="700" y="727" on="1"/>
        <pt x="1145" y="727" on="1"/>
        <pt x="1145" y="557" on="1"/>
        <pt x="700" y="557" on="1"/>
        <pt x="700" y="113" on="1"/>
        <pt x="532" y="113" on="1"/>
      </contour>
    </TTGlyph>
    <TTGlyph name="uni002C" xMin="400" yMin="-387" xMax="798" yMax="349">
      <contour>
        <pt x="400" y="-283" on="1"/>
        <pt x="645" y="-173" on="0"/>
        <pt x="652" y="51" on="1"/>
        <pt x="631" y="47" on="0"/>
        <pt x="612" y="47" on="1"/>
        <pt x="544" y="47" on="0"/>
        <pt x="502" y="86" on="1"/>
        <pt x="458" y="125" on="0"/>
        <pt x="458" y="196" on="1"/>
        <pt x="458" y="229" on="0"/>
        <pt x="480" y="288" on="0"/>
        <pt x="504" y="309" on="1"/>
        <pt x="524" y="326" on="0"/>
        <pt x="584" y="349" on="0"/>
        <pt x="620" y="349" on="1"/>
        <pt x="705" y="349" on="0"/>
        <pt x="752" y="281" on="1"/>
        <pt x="798" y="214" on="0"/>
        <pt x="798" y="93" on="1"/>
        <pt x="798" y="-77" on="0"/>
        <pt x="706" y="-202" on="1"/>
        <pt x="614" y="-325" on="0"/>
        <pt x="446" y="-387" on="1"/>
      </contour>
    </TTGlyph>
    <TTGlyph name="uni002D" xMin="206" yMin="519" xMax="1027" yMax="683">
      <contour>
        <pt x="206" y="683" on="1"/>
        <pt x="1027" y="683" on="1"/>
        <pt x="1027" y="519" on="1"/>
        <pt x="206" y="519" on="1"/>
      </contour>
    </TTGlyph>
    <TTGlyph name="uni002E" xMin="451" yMin="-27" xMax="775" yMax="311">
      <contour>
        <pt x="613" y="-27" on="1"/>
        <pt x="545" y="-27" on="0"/>
        <pt x="451" y="67" on="0"/>
        <pt x="451" y="142" on="1"/>
        <pt x="451" y="217" on="0"/>
        <pt x="545" y="311" on="0"/>
        <pt x="613" y="311" on="1"/>
        <pt x="681" y="311" on="0"/>
        <pt x="775" y="217" on="0"/>
        <pt x="775" y="142" on="1"/>
        <pt x="775" y="67" on="0"/>
        <pt x="681" y="-27" on="0"/>
      </contour>
    </TTGlyph>
    <TTGlyph name="uni002F" xMin="102" yMin="-190" xMax="1079" yMax="1493">
      <contour>
        <pt x="889" y="1493" on="1"/>
        <pt x="1079" y="1493" on="1"/>
        <pt x="293" y="-190" on="1"/>
        <pt x="102" y="-190" on="1"/>
      </contour>
    </TTGlyph>
    <TTGlyph name="uni0030" xMin="133" yMin="-29" xMax="1100" yMax="1520">
      <contour>
        <pt x="616" y="-29" on="1"/>
        <pt x="376" y="-29" on="0"/>
        <pt x="255" y="167" on="1"/>
        <pt x="133" y="364" on="0"/>
        <pt x="133" y="745" on="1"/>
        <pt x="133" y="1127" on="0"/>
        <pt x="255" y="1324" on="1"/>
        <pt x="376" y="1520" on="0"/>
        <pt x="616" y="1520" on="1"/>
        <pt x="856" y="1520" on="0"/>
        <pt x="978" y="1324" on="1"/>
        <pt x="1038" y="1228" on="0"/>
        <pt x="1100" y="941" on="0"/>
        <pt x="1100" y="745" on="1"/>
        <pt x="1100" y="549" on="0"/>
        <pt x="1038" y="263" on="0"/>
        <pt x="978" y="167" on="1"/>
        <pt x="855" y="-29" on="0"/>
      </contour>
      <contour>
        <pt x="616" y="131" on="1"/>
        <pt x="759" y="131" on="0"/>
        <pt x="828" y="283" on="1"/>
        <pt x="897" y="434" on="0"/>
        <pt x="897" y="745" on="1"/>
        <pt x="897" y="1057" on="0"/>
        <pt x="828" y="1207" on="1"/>
        <pt x="759" y="1360" on="0"/>
        <pt x="616" y="1360" on="1"/>
        <pt x="475" y="1360" on="0"/>
        <pt x="406" y="1208" on="1"/>
        <pt x="371" y="1133" on="0"/>
        <pt x="336" y="906" on="0"/>
        <pt x="336" y="745" on="1"/>
        <pt x="336" y="432" on="0"/>
        <pt x="406" y="283" on="1"/>
        <pt x="476" y="131" on="0"/>
      </contour>
      <contour>
        <pt x="618" y="396" on="1"/>
        <pt x="586" y="396" on="0"/>
        <pt x="551" y="482" on="0"/>
        <pt x="539" y="540" on="1"/>
        <pt x="529" y="586" on="0"/>
        <pt x="516" y="716" on="0"/>
        <pt x="516" y="750" on="1"/>
        <pt x="516" y="774" on="0"/>
        <pt x="524" y="898" on="0"/>
        <pt x="536" y="953" on="1"/>
        <pt x="565" y="1096" on="0"/>
        <pt x="614" y="1096" on="1"/>
        <pt x="642" y="1096" on="0"/>
        <pt x="681" y="1020" on="0"/>
        <pt x="695" y="950" on="1"/>
        <pt x="705" y="900" on="0"/>
        <pt x="717" y="776" on="0"/>
        <pt x="717" y="742" on="1"/>
        <pt x="717" y="722" on="0"/>
        <pt x="710" y="604" on="0"/>
        <pt x="700" y="542" on="1"/>
        <pt x="675" y="396" on="0"/>
      </contour>
    </TTGlyph>
    <TTGlyph name="uni0030.subs" xMin="317" yMin="-433" xMax="917" yMax="434">
      <contour>
        <pt x="616" y="-433" on="1"/>
        <pt x="317" y="-433" on="0"/>
        <pt x="317" y="0" on="1"/>
        <pt x="317" y="434" on="0"/>
        <pt x="616" y="434" on="1"/>
        <pt x="917" y="434" on="0"/>
        <pt x="917" y="0" on="1"/>
        <pt x="917" y="-433" on="0"/>
      </contour>
      <contour>
        <pt x="616" y="-344" on="1"/>
        <pt x="791" y="-344" on="0"/>
        <pt x="791" y="0" on="1"/>
        <pt x="791" y="176" on="0"/>
        <pt x="704" y="345" on="0"/>
        <pt x="616" y="345" on="1"/>
        <pt x="528" y="345" on="0"/>
        <pt x="442" y="176" on="0"/>
        <pt x="442" y="0" on="1"/>
        <pt x="442" y="-344" on="0"/>
      </contour>
      <contour>
        <pt x="615" y="-72" on="1"/>
        <pt x="580" y="-72" on="0"/>
        <pt x="557" y="-51" on="1"/>
        <pt x="534" y="-30" on="0"/>
        <pt x="534" y="2" on="1"/>
        <pt x="534" y="34" on="0"/>
        <pt x="581" y="79" on="0"/>
        <pt x="615" y="79" on="1"/>
        <pt x="652" y="79" on="0"/>
        <pt x="699" y="34" on="0"/>
        <pt x="699" y="2" on="1"/>
        <pt x="699" y="-31" on="0"/>
        <pt x="650" y="-72" on="0"/>
      </contour>
    </TTGlyph>
    <TTGlyph name="uni0031" xMin="236" yMin="0" xMax="1094" yMax="1493">
      <contour>
        <pt x="270" y="170" on="1"/>
        <pt x="584" y="170" on="1"/>
        <pt x="584" y="1241" on="1"/>
        <pt x="346" y="970" on="1"/>
        <pt x="236" y="1104" on="1"/>
        <pt x="582" y="1493" on="1"/>
        <pt x="784" y="1493" on="1"/>
        <pt x="784" y="170" on="1"/>
        <pt x="1094" y="170" on="1"/>
        <pt x="1094" y="0" on="1"/>
        <pt x="270" y="0" on="1"/>
      </contour>
    </TTGlyph>
    <TTGlyph name="uni0031.subs" xMin="344" yMin="-400" xMax="915" yMax="435">
      <contour>
        <pt x="362" y="-290" on="1"/>
        <pt x="567" y="-290" on="1"/>
        <pt x="567" y="321" on="1"/>
        <pt x="344" y="280" on="1"/>
        <pt x="344" y="396" on="1"/>
        <pt x="573" y="435" on="1"/>
        <pt x="711" y="435" on="1"/>
        <pt x="711" y="-290" on="1"/>
        <pt x="915" y="-290" on="1"/>
        <pt x="915" y="-400" on="1"/>
        <pt x="362" y="-400" on="1"/>
      </contour>
    </TTGlyph>
    <TTGlyph name="uni0032" xMin="152" yMin="0" xMax="1059" yMax="1520">
      <contour>
        <pt x="152" y="134" on="1"/>
        <pt x="152" y="171" on="0"/>
        <pt x="177" y="196" on="1"/>
        <pt x="234" y="256" on="0"/>
        <pt x="390" y="421" on="0"/>
        <pt x="479" y="518" on="1"/>
        <pt x="547" y="592" on="0"/>
        <pt x="616" y="667" on="0"/>
        <pt x="652" y="708" on="0"/>
        <pt x="671" y="731" on="1"/>
        <pt x="724" y="795" on="0"/>
        <pt x="787" y="885" on="0"/>
        <pt x="807" y="929" on="1"/>
        <pt x="842" y="1007" on="0"/>
        <pt x="842" y="1085" on="1"/>
        <pt x="842" y="1209" on="0"/>
        <pt x="769" y="1279" on="1"/>
        <pt x="695" y="1350" on="0"/>
        <pt x="566" y="1350" on="1"/>
        <pt x="387" y="1350" on="0"/>
        <pt x="164" y="1217" on="1"/>
        <pt x="164" y="1421" on="1"/>
        <pt x="266" y="1470" on="0"/>
        <pt x="367" y="1495" on="1"/>
        <pt x="466" y="1520" on="0"/>
        <pt x="563" y="1520" on="1"/>
        <pt x="667" y="1520" on="0"/>
        <pt x="849" y="1464" on="0"/>
        <pt x="917" y="1404" on="1"/>
        <pt x="977" y="1351" on="0"/>
        <pt x="1049" y="1198" on="0"/>
        <pt x="1049" y="1102" on="1"/>
        <pt x="1049" y="1004" on="0"/>
        <pt x="1005" y="905" on="1"/>
        <pt x="983" y="855" on="0"/>
        <pt x="914" y="760" on="0"/>
        <pt x="860" y="695" on="1"/>
        <pt x="831" y="661" on="0"/>
        <pt x="751" y="571" on="0"/>
        <pt x="698" y="514" on="1"/>
        <pt x="660" y="473" on="0"/>
        <pt x="595" y="407" on="0"/>
        <pt x="523" y="336" on="0"/>
        <pt x="430" y="241" on="0"/>
        <pt x="363" y="170" on="1"/>
        <pt x="1059" y="170" on="1"/>
        <pt x="1059" y="0" on="1"/>
        <pt x="152" y="0" on="1"/>
      </contour>
    </TTGlyph>
    <TTGlyph name="uni0032.subs" xMin="322" yMin="-410" xMax="893" yMax="442">
      <contour>
        <pt x="322" y="-300" on="1"/>
        <pt x="553" y="-74" on="1"/>
        <pt x="655" y="24" on="0"/>
        <pt x="695" y="84" on="1"/>
        <pt x="735" y="145" on="0"/>
        <pt x="735" y="196" on="1"/>
        <pt x="735" y="257" on="0"/>
        <pt x="635" y="333" on="0"/>
        <pt x="553" y="333" on="1"/>
        <pt x="454" y="333" on="0"/>
        <pt x="328" y="261" on="1"/>
        <pt x="328" y="386" on="1"/>
        <pt x="394" y="414" on="0"/>
        <pt x="513" y="442" on="0"/>
        <pt x="573" y="442" on="1"/>
        <pt x="715" y="442" on="0"/>
        <pt x="887" y="309" on="0"/>
        <pt x="887" y="202" on="1"/>
        <pt x="887" y="144" on="0"/>
        <pt x="850" y="86" on="1"/>
        <pt x="812" y="26" on="0"/>
        <pt x="694" y="-91" on="1"/>
        <pt x="483" y="-296" on="1"/>
        <pt x="893" y="-296" on="1"/>
        <pt x="893" y="-410" on="1"/>
        <pt x="322" y="-410" on="1"/>
      </contour>
    </TTGlyph>
    <TTGlyph name="uni0033" xMin="149" yMin="-29" xMax="1091" yMax="1520">
      <contour>
        <pt x="566" y="-29" on="1"/>
        <pt x="518" y="-29" on="0"/>
        <pt x="413" y="-20" on="0"/>
        <pt x="359" y="-10" on="1"/>
        <pt x="313" y="-2" on="0"/>
        <pt x="203" y="26" on="0"/>
        <pt x="149" y="45" on="1"/>
        <pt x="149" y="249" on="1"/>
        <pt x="200" y="223" on="0"/>
        <pt x="298" y="181" on="0"/>
        <pt x="350" y="167" on="1"/>
        <pt x="400" y="154" on="0"/>
        <pt x="497" y="141" on="0"/>
        <pt x="547" y="141" on="1"/>
        <pt x="714" y="141" on="0"/>
        <pt x="802" y="216" on="1"/>
        <pt x="891" y="292" on="0"/>
        <pt x="891" y="429" on="1"/>
        <pt x="891" y="563" on="0"/>
        <pt x="803" y="639" on="1"/>
        <pt x="715" y="715" on="0"/>
        <pt x="561" y="715" on="1"/>
        <pt x="407" y="715" on="1"/>
        <pt x="407" y="881" on="1"/>
        <pt x="561" y="881" on="1"/>
        <pt x="702" y="881" on="0"/>
        <pt x="779" y="942" on="1"/>
        <pt x="856" y="1002" on="0"/>
        <pt x="856" y="1115" on="1"/>
        <pt x="856" y="1228" on="0"/>
        <pt x="784" y="1289" on="1"/>
        <pt x="714" y="1350" on="0"/>
        <pt x="574" y="1350" on="1"/>
        <pt x="491" y="1350" on="0"/>
        <pt x="393" y="1330" on="1"/>
        <pt x="297" y="1311" on="0"/>
        <pt x="194" y="1270" on="1"/>
        <pt x="194" y="1456" on="1"/>
        <pt x="316" y="1488" on="0"/>
        <pt x="410" y="1504" on="1"/>
        <pt x="499" y="1520" on="0"/>
        <pt x="579" y="1520" on="1"/>
        <pt x="684" y="1520" on="0"/>
        <pt x="861" y="1466" on="0"/>
        <pt x="927" y="1411" on="1"/>
        <pt x="1056" y="1304" on="0"/>
        <pt x="1056" y="1122" on="1"/>
        <pt x="1056" y="1057" on="0"/>
        <pt x="1021" y="955" on="0"/>
        <pt x="988" y="915" on="1"/>
        <pt x="920" y="834" on="0"/>
        <pt x="788" y="799" on="1"/>
        <pt x="935" y="760" on="0"/>
        <pt x="1013" y="661" on="1"/>
        <pt x="1054" y="609" on="0"/>
        <pt x="1091" y="483" on="0"/>
        <pt x="1091" y="411" on="1"/>
        <pt x="1091" y="207" on="0"/>
        <pt x="954" y="89" on="1"/>
        <pt x="886" y="31" on="0"/>
        <pt x="693" y="-29" on="0"/>
      </contour>
    </TTGlyph>
    <TTGlyph name="uni0033.subs" xMin="326" yMin="-440" xMax="924" yMax="427">
      <contour>
        <pt x="557" y="-440" on="1"/>
        <pt x="447" y="-440" on="0"/>
        <pt x="326" y="-399" on="1"/>
        <pt x="326" y="-278" on="1"/>
        <pt x="461" y="-331" on="0"/>
        <pt x="553" y="-331" on="1"/>
        <pt x="655" y="-331" on="0"/>
        <pt x="772" y="-251" on="0"/>
        <pt x="772" y="-182" on="1"/>
        <pt x="772" y="-32" on="0"/>
        <pt x="553" y="-32" on="1"/>
        <pt x="487" y="-32" on="1"/>
        <pt x="487" y="76" on="1"/>
        <pt x="561" y="76" on="1"/>
        <pt x="752" y="76" on="0"/>
        <pt x="752" y="199" on="1"/>
        <pt x="752" y="256" on="0"/>
        <pt x="657" y="318" on="0"/>
        <pt x="569" y="318" on="1"/>
        <pt x="475" y="318" on="0"/>
        <pt x="354" y="271" on="1"/>
        <pt x="354" y="392" on="1"/>
        <pt x="423" y="409" on="0"/>
        <pt x="539" y="427" on="0"/>
        <pt x="590" y="427" on="1"/>
        <pt x="734" y="427" on="0"/>
        <pt x="903" y="309" on="0"/>
        <pt x="903" y="210" on="1"/>
        <pt x="903" y="65" on="0"/>
        <pt x="731" y="27" on="1"/>
        <pt x="924" y="-16" on="0"/>
        <pt x="924" y="-182" on="1"/>
        <pt x="924" y="-307" on="0"/>
        <pt x="735" y="-440" on="0"/>
      </contour>
    </TTGlyph>
    <TTGlyph name="uni0034" xMin="102" yMin="0" xMax="1135" yMax="1493">
      <contour>
        <pt x="735" y="356" on="1"/>
        <pt x="102" y="356" on="1"/>
        <pt x="102" y="547" on="1"/>
        <pt x="702" y="1493" on="1"/>
        <pt x="936" y="1493" on="1"/>
        <pt x="936" y="520" on="1"/>
        <pt x="1135" y="520" on="1"/>
        <pt x="1135" y="356" on="1"/>
        <pt x="936" y="356" on="1"/>
        <pt x="936" y="0" on="1"/>
        <pt x="735" y="0" on="1"/>
      </contour>
      <contour>
        <pt x="735" y="520" on="1"/>
        <pt x="735" y="1309" on="1"/>
        <pt x="264" y="520" on="1"/>
      </contour>
    </TTGlyph>
    <TTGlyph name="uni0034.subs" xMin="268" yMin="-426" xMax="909" yMax="409">
      <contour>
        <pt x="655" y="-240" on="1"/>
        <pt x="268" y="-240" on="1"/>
        <pt x="268" y="-119" on="1"/>
        <pt x="631" y="409" on="1"/>
        <pt x="793" y="409" on="1"/>
        <pt x="793" y="-129" on="1"/>
        <pt x="909" y="-129" on="1"/>
        <pt x="909" y="-240" on="1"/>
        <pt x="793" y="-240" on="1"/>
        <pt x="793" y="-426" on="1"/>
        <pt x="655" y="-426" on="1"/>
      </contour>
      <contour>
        <pt x="655" y="-129" on="1"/>
        <pt x="655" y="284" on="1"/>
        <pt x="381" y="-129" on="1"/>
      </contour>
    </TTGlyph>
    <TTGlyph name="uni0035" xMin="143" yMin="-29" xMax="1069" yMax="1493">
      <contour>
        <pt x="525" y="-29" on="1"/>
        <pt x="480" y="-29" on="0"/>
        <pt x="369" y="-21" on="0"/>
        <pt x="320" y="-13" on="1"/>
        <pt x="269" y="-5" on="0"/>
        <pt x="183" y="19" on="0"/>
        <pt x="143" y="35" on="1"/>
        <pt x="143" y="240" on="1"/>
        <pt x="237" y="190" on="0"/>
        <pt x="328" y="166" on="1"/>
        <pt x="421" y="141" on="0"/>
        <pt x="513" y="141" on="1"/>
        <pt x="688" y="141" on="0"/>
        <pt x="776" y="229" on="1"/>
        <pt x="866" y="318" on="0"/>
        <pt x="866" y="477" on="1"/>
        <pt x="866" y="564" on="0"/>
        <pt x="816" y="688" on="0"/>
        <pt x="773" y="729" on="1"/>
        <pt x="731" y="769" on="0"/>
        <pt x="599" y="817" on="0"/>
        <pt x="508" y="817" on="1"/>
        <pt x="430" y="817" on="0"/>
        <pt x="354" y="799" on="1"/>
        <pt x="276" y="780" on="0"/>
        <pt x="207" y="743" on="1"/>
        <pt x="207" y="1493" on="1"/>
        <pt x="963" y="1493" on="1"/>
        <pt x="963" y="1323" on="1"/>
        <pt x="391" y="1323" on="1"/>
        <pt x="391" y="956" on="1"/>
        <pt x="434" y="972" on="0"/>
        <pt x="478" y="980" on="1"/>
        <pt x="516" y="987" on="0"/>
        <pt x="566" y="987" on="1"/>
        <pt x="687" y="987" on="0"/>
        <pt x="871" y="913" on="0"/>
        <pt x="934" y="850" on="1"/>
        <pt x="1069" y="714" on="0"/>
        <pt x="1069" y="481" on="1"/>
        <pt x="1069" y="242" on="0"/>
        <pt x="928" y="106" on="1"/>
        <pt x="859" y="40" on="0"/>
        <pt x="660" y="-29" on="0"/>
      </contour>
    </TTGlyph>
    <TTGlyph name="uni0035.subs" xMin="319" yMin="-415" xMax="893" yMax="435">
      <contour>
        <pt x="563" y="-415" on="1"/>
        <pt x="415" y="-415" on="0"/>
        <pt x="319" y="-379" on="1"/>
        <pt x="319" y="-265" on="1"/>
        <pt x="427" y="-320" on="0"/>
        <pt x="551" y="-320" on="1"/>
        <pt x="656" y="-320" on="0"/>
        <pt x="767" y="-222" on="0"/>
        <pt x="767" y="-131" on="1"/>
        <pt x="767" y="-41" on="0"/>
        <pt x="651" y="58" on="0"/>
        <pt x="548" y="58" on="1"/>
        <pt x="449" y="58" on="0"/>
        <pt x="358" y="17" on="1"/>
        <pt x="358" y="435" on="1"/>
        <pt x="828" y="435" on="1"/>
        <pt x="828" y="340" on="1"/>
        <pt x="473" y="340" on="1"/>
        <pt x="473" y="136" on="1"/>
        <pt x="524" y="153" on="0"/>
        <pt x="581" y="153" on="1"/>
        <pt x="724" y="153" on="0"/>
        <pt x="893" y="0" on="0"/>
        <pt x="893" y="-131" on="1"/>
        <pt x="893" y="-263" on="0"/>
        <pt x="716" y="-415" on="0"/>
      </contour>
    </TTGlyph>
    <TTGlyph name="uni0036" xMin="133" yMin="-29" xMax="1100" yMax="1520">
      <contour>
        <pt x="633" y="-29" on="1"/>
        <pt x="496" y="-29" on="0"/>
        <pt x="314" y="68" on="0"/>
        <pt x="255" y="159" on="1"/>
        <pt x="192" y="257" on="0"/>
        <pt x="133" y="541" on="0"/>
        <pt x="133" y="724" on="1"/>
        <pt x="133" y="1128" on="0"/>
        <pt x="424" y="1520" on="0"/>
        <pt x="698" y="1520" on="1"/>
        <pt x="739" y="1520" on="0"/>
        <pt x="816" y="1512" on="0"/>
        <pt x="848" y="1505" on="1"/>
        <pt x="888" y="1497" on="0"/>
        <pt x="959" y="1473" on="0"/>
        <pt x="991" y="1460" on="1"/>
        <pt x="991" y="1274" on="1"/>
        <pt x="927" y="1312" on="0"/>
        <pt x="857" y="1331" on="1"/>
        <pt x="822" y="1341" on="0"/>
        <pt x="746" y="1350" on="0"/>
        <pt x="711" y="1350" on="1"/>
        <pt x="516" y="1350" on="0"/>
        <pt x="418" y="1206" on="1"/>
        <pt x="319" y="1060" on="0"/>
        <pt x="319" y="780" on="1"/>
        <pt x="367" y="880" on="0"/>
        <pt x="452" y="934" on="1"/>
        <pt x="538" y="987" on="0"/>
        <pt x="655" y="987" on="1"/>
        <pt x="861" y="987" on="0"/>
        <pt x="1100" y="721" on="0"/>
        <pt x="1100" y="481" on="1"/>
        <pt x="1100" y="237" on="0"/>
        <pt x="858" y="-29" on="0"/>
      </contour>
      <contour>
        <pt x="633" y="129" on="1"/>
        <pt x="766" y="129" on="0"/>
        <pt x="833" y="218" on="1"/>
        <pt x="901" y="307" on="0"/>
        <pt x="901" y="479" on="1"/>
        <pt x="901" y="652" on="0"/>
        <pt x="833" y="741" on="1"/>
        <pt x="798" y="787" on="0"/>
        <pt x="696" y="829" on="0"/>
        <pt x="634" y="829" on="1"/>
        <pt x="564" y="829" on="0"/>
        <pt x="462" y="780" on="0"/>
        <pt x="428" y="737" on="1"/>
        <pt x="393" y="693" on="0"/>
        <pt x="354" y="564" on="0"/>
        <pt x="354" y="479" on="1"/>
        <pt x="354" y="394" on="0"/>
        <pt x="393" y="265" on="0"/>
        <pt x="428" y="221" on="1"/>
        <pt x="462" y="178" on="0"/>
        <pt x="564" y="129" on="0"/>
      </contour>
    </TTGlyph>
    <TTGlyph name="uni0036.subs" xMin="329" yMin="-405" xMax="929" yMax="462">
      <contour>
        <pt x="640" y="-405" on="1"/>
        <pt x="479" y="-405" on="0"/>
        <pt x="329" y="-197" on="0"/>
        <pt x="329" y="28" on="1"/>
        <pt x="329" y="242" on="0"/>
        <pt x="508" y="462" on="0"/>
        <pt x="680" y="462" on="1"/>
        <pt x="771" y="462" on="0"/>
        <pt x="861" y="429" on="1"/>
        <pt x="861" y="325" on="1"/>
        <pt x="780" y="367" on="0"/>
        <pt x="686" y="367" on="1"/>
        <pt x="444" y="367" on="0"/>
        <pt x="444" y="47" on="1"/>
        <pt x="508" y="164" on="0"/>
        <pt x="647" y="164" on="1"/>
        <pt x="783" y="164" on="0"/>
        <pt x="929" y="17" on="0"/>
        <pt x="929" y="-121" on="1"/>
        <pt x="929" y="-257" on="0"/>
        <pt x="778" y="-405" on="0"/>
      </contour>
      <contour>
        <pt x="638" y="-317" on="1"/>
        <pt x="805" y="-317" on="0"/>
        <pt x="805" y="-121" on="1"/>
        <pt x="805" y="75" on="0"/>
        <pt x="638" y="75" on="1"/>
        <pt x="557" y="75" on="0"/>
        <pt x="466" y="-28" on="0"/>
        <pt x="466" y="-121" on="1"/>
        <pt x="466" y="-214" on="0"/>
        <pt x="557" y="-317" on="0"/>
      </contour>
    </TTGlyph>
    <TTGlyph name="uni0037" xMin="139" yMin="0" xMax="1079" yMax="1493">
      <contour>
        <pt x="854" y="1323" on="1"/>
        <pt x="139" y="1323" on="1"/>
        <pt x="139" y="1493" on="1"/>
        <pt x="1079" y="1493" on="1"/>
        <pt x="1079" y="1407" on="1"/>
        <pt x="545" y="0" on="1"/>
        <pt x="334" y="0" on="1"/>
      </contour>
    </TTGlyph>
    <TTGlyph name="uni0037.subs" xMin="317" yMin="-391" xMax="901" yMax="444">
      <contour>
        <pt x="761" y="349" on="1"/>
        <pt x="317" y="349" on="1"/>
        <pt x="317" y="444" on="1"/>
        <pt x="901" y="444" on="1"/>
        <pt x="901" y="396" on="1"/>
        <pt x="569" y="-391" on="1"/>
        <pt x="438" y="-391" on="1"/>
      </contour>
    </TTGlyph>
    <TTGlyph name="uni0038" xMin="131" yMin="-29" xMax="1102" yMax="1520">
      <contour>
        <pt x="615" y="-29" on="1"/>
        <pt x="388" y="-29" on="0"/>
        <pt x="131" y="195" on="0"/>
        <pt x="131" y="400" on="1"/>
        <pt x="131" y="559" on="0"/>
        <pt x="211" y="660" on="1"/>
        <pt x="290" y="760" on="0"/>
        <pt x="440" y="793" on="1"/>
        <pt x="379" y="808" on="0"/>
        <pt x="275" y="870" on="0"/>
        <pt x="239" y="915" on="1"/>
        <pt x="201" y="962" on="0"/>
        <pt x="166" y="1074" on="0"/>
        <pt x="166" y="1137" on="1"/>
        <pt x="166" y="1310" on="0"/>
        <pt x="287" y="1416" on="1"/>
        <pt x="346" y="1467" on="0"/>
        <pt x="509" y="1520" on="0"/>
        <pt x="616" y="1520" on="1"/>
        <pt x="825" y="1520" on="0"/>
        <pt x="946" y="1416" on="1"/>
        <pt x="1067" y="1313" on="0"/>
        <pt x="1067" y="1136" on="1"/>
        <pt x="1067" y="1004" on="0"/>
        <pt x="924" y="827" on="0"/>
        <pt x="793" y="793" on="1"/>
        <pt x="944" y="760" on="0"/>
        <pt x="1102" y="560" on="0"/>
        <pt x="1102" y="402" on="1"/>
        <pt x="1102" y="297" on="0"/>
        <pt x="1035" y="138" on="0"/>
        <pt x="973" y="84" on="1"/>
        <pt x="843" y="-29" on="0"/>
      </contour>
      <contour>
        <pt x="616" y="868" on="1"/>
        <pt x="738" y="868" on="0"/>
        <pt x="802" y="931" on="1"/>
        <pt x="866" y="994" on="0"/>
        <pt x="866" y="1114" on="1"/>
        <pt x="866" y="1236" on="0"/>
        <pt x="803" y="1300" on="1"/>
        <pt x="739" y="1364" on="0"/>
        <pt x="616" y="1364" on="1"/>
        <pt x="495" y="1364" on="0"/>
        <pt x="367" y="1236" on="0"/>
        <pt x="367" y="1114" on="1"/>
        <pt x="367" y="994" on="0"/>
        <pt x="495" y="868" on="0"/>
      </contour>
      <contour>
        <pt x="619" y="129" on="1"/>
        <pt x="752" y="129" on="0"/>
        <pt x="899" y="282" on="0"/>
        <pt x="899" y="418" on="1"/>
        <pt x="899" y="492" on="0"/>
        <pt x="860" y="598" on="0"/>
        <pt x="825" y="633" on="1"/>
        <pt x="750" y="709" on="0"/>
        <pt x="616" y="709" on="1"/>
        <pt x="482" y="709" on="0"/>
        <pt x="408" y="634" on="1"/>
        <pt x="334" y="558" on="0"/>
        <pt x="334" y="421" on="1"/>
        <pt x="334" y="283" on="0"/>
        <pt x="408" y="206" on="1"/>
        <pt x="484" y="129" on="0"/>
      </contour>
    </TTGlyph>
    <TTGlyph name="uni0038.subs" xMin="315" yMin="-422" xMax="918" yMax="444">
      <contour>
        <pt x="616" y="-422" on="1"/>
        <pt x="475" y="-422" on="0"/>
        <pt x="315" y="-295" on="0"/>
        <pt x="315" y="-183" on="1"/>
        <pt x="315" y="0" on="0"/>
        <pt x="507" y="38" on="1"/>
        <pt x="426" y="56" on="0"/>
        <pt x="337" y="156" on="0"/>
        <pt x="337" y="228" on="1"/>
        <pt x="337" y="327" on="0"/>
        <pt x="487" y="444" on="0"/>
        <pt x="616" y="444" on="1"/>
        <pt x="746" y="444" on="0"/>
        <pt x="896" y="327" on="0"/>
        <pt x="896" y="228" on="1"/>
        <pt x="896" y="156" on="0"/>
        <pt x="807" y="56" on="0"/>
        <pt x="726" y="38" on="1"/>
        <pt x="918" y="0" on="0"/>
        <pt x="918" y="-182" on="1"/>
        <pt x="918" y="-295" on="0"/>
        <pt x="758" y="-422" on="0"/>
      </contour>
      <contour>
        <pt x="616" y="79" on="1"/>
        <pt x="771" y="79" on="0"/>
        <pt x="771" y="217" on="1"/>
        <pt x="771" y="357" on="0"/>
        <pt x="616" y="357" on="1"/>
        <pt x="462" y="357" on="0"/>
        <pt x="462" y="217" on="1"/>
        <pt x="462" y="79" on="0"/>
      </contour>
      <contour>
        <pt x="616" y="-334" on="1"/>
        <pt x="701" y="-334" on="0"/>
        <pt x="792" y="-249" on="0"/>
        <pt x="792" y="-171" on="1"/>
        <pt x="792" y="-93" on="0"/>
        <pt x="700" y="-9" on="0"/>
        <pt x="616" y="-9" on="1"/>
        <pt x="441" y="-9" on="0"/>
        <pt x="441" y="-171" on="1"/>
        <pt x="441" y="-249" on="0"/>
        <pt x="534" y="-334" on="0"/>
      </contour>
    </TTGlyph>
    <TTGlyph name="uni0039" xMin="127" yMin="-29" xMax="1094" yMax="1520">
      <contour>
        <pt x="528" y="-29" on="1"/>
        <pt x="491" y="-29" on="0"/>
        <pt x="414" y="-22" on="0"/>
        <pt x="379" y="-14" on="1"/>
        <pt x="313" y="0" on="0"/>
        <pt x="236" y="31" on="1"/>
        <pt x="236" y="217" on="1"/>
        <pt x="299" y="180" on="0"/>
        <pt x="370" y="161" on="1"/>
        <pt x="444" y="141" on="0"/>
        <pt x="517" y="141" on="1"/>
        <pt x="710" y="141" on="0"/>
        <pt x="809" y="286" on="1"/>
        <pt x="907" y="432" on="0"/>
        <pt x="907" y="711" on="1"/>
        <pt x="884" y="660" on="0"/>
        <pt x="814" y="582" on="0"/>
        <pt x="775" y="557" on="1"/>
        <pt x="692" y="504" on="0"/>
        <pt x="569" y="504" on="1"/>
        <pt x="365" y="504" on="0"/>
        <pt x="246" y="637" on="1"/>
        <pt x="127" y="771" on="0"/>
        <pt x="127" y="1010" on="1"/>
        <pt x="127" y="1128" on="0"/>
        <pt x="186" y="1321" on="0"/>
        <pt x="249" y="1389" on="1"/>
        <pt x="368" y="1520" on="0"/>
        <pt x="594" y="1520" on="1"/>
        <pt x="731" y="1520" on="0"/>
        <pt x="913" y="1423" on="0"/>
        <pt x="972" y="1332" on="1"/>
        <pt x="1036" y="1232" on="0"/>
        <pt x="1094" y="946" on="0"/>
        <pt x="1094" y="766" on="1"/>
        <pt x="1094" y="568" on="0"/>
        <pt x="1025" y="270" on="0"/>
        <pt x="950" y="169" on="1"/>
        <pt x="803" y="-29" on="0"/>
      </contour>
      <contour>
        <pt x="593" y="662" on="1"/>
        <pt x="663" y="662" on="0"/>
        <pt x="765" y="711" on="0"/>
        <pt x="799" y="754" on="1"/>
        <pt x="872" y="846" on="0"/>
        <pt x="872" y="1012" on="1"/>
        <pt x="872" y="1178" on="0"/>
        <pt x="799" y="1270" on="1"/>
        <pt x="765" y="1313" on="0"/>
        <pt x="663" y="1362" on="0"/>
        <pt x="593" y="1362" on="1"/>
        <pt x="531" y="1362" on="0"/>
        <pt x="429" y="1320" on="0"/>
        <pt x="394" y="1274" on="1"/>
        <pt x="326" y="1185" on="0"/>
        <pt x="326" y="1012" on="1"/>
        <pt x="326" y="839" on="0"/>
        <pt x="394" y="750" on="1"/>
        <pt x="460" y="662" on="0"/>
      </contour>
    </TTGlyph>
    <TTGlyph name="uni0039.subs" xMin="304" yMin="-414" xMax="904" yMax="453">
      <contour>
        <pt x="551" y="-414" on="1"/>
        <pt x="461" y="-414" on="0"/>
        <pt x="371" y="-381" on="1"/>
        <pt x="371" y="-277" on="1"/>
        <pt x="453" y="-319" on="0"/>
        <pt x="546" y="-319" on="1"/>
        <pt x="788" y="-319" on="0"/>
        <pt x="788" y="0" on="1"/>
        <pt x="728" y="-116" on="0"/>
        <pt x="585" y="-116" on="1"/>
        <pt x="448" y="-116" on="0"/>
        <pt x="304" y="32" on="0"/>
        <pt x="304" y="170" on="1"/>
        <pt x="304" y="306" on="0"/>
        <pt x="454" y="453" on="0"/>
        <pt x="592" y="453" on="1"/>
        <pt x="754" y="453" on="0"/>
        <pt x="904" y="244" on="0"/>
        <pt x="904" y="19" on="1"/>
        <pt x="904" y="-193" on="0"/>
        <pt x="724" y="-414" on="0"/>
      </contour>
      <contour>
        <pt x="595" y="-28" on="1"/>
        <pt x="676" y="-28" on="0"/>
        <pt x="766" y="75" on="0"/>
        <pt x="766" y="169" on="1"/>
        <pt x="766" y="262" on="0"/>
        <pt x="676" y="365" on="0"/>
        <pt x="595" y="365" on="1"/>
        <pt x="427" y="365" on="0"/>
        <pt x="427" y="169" on="1"/>
        <pt x="427" y="-28" on="0"/>
      </contour>
    </TTGlyph>
    <TTGlyph name="uni003A" xMin="458" yMin="60" xMax="782" yMax="1114">
      <contour>
        <pt x="620" y="776" on="1"/>
        <pt x="552" y="776" on="0"/>
        <pt x="458" y="870" on="0"/>
        <pt x="458" y="945" on="1"/>
        <pt x="458" y="1020" on="0"/>
        <pt x="552" y="1114" on="0"/>
        <pt x="620" y="1114" on="1"/>
        <pt x="688" y="1114" on="0"/>
        <pt x="782" y="1020" on="0"/>
        <pt x="782" y="945" on="1"/>
        <pt x="782" y="870" on="0"/>
        <pt x="688" y="776" on="0"/>
      </contour>
      <contour>
        <pt x="620" y="60" on="1"/>
        <pt x="552" y="60" on="0"/>
        <pt x="458" y="154" on="0"/>
        <pt x="458" y="229" on="1"/>
        <pt x="458" y="304" on="0"/>
        <pt x="552" y="398" on="0"/>
        <pt x="620" y="398" on="1"/>
        <pt x="688" y="398" on="0"/>
        <pt x="782" y="304" on="0"/>
        <pt x="782" y="229" on="1"/>
        <pt x="782" y="154" on="0"/>
        <pt x="688" y="60" on="0"/>
      </contour>
    </TTGlyph>
    <TTGlyph name="uni003B" xMin="394" yMin="-470" xMax="812" yMax="1058">
      <contour>
        <pt x="610" y="703" on="1"/>
        <pt x="538" y="703" on="0"/>
        <pt x="490" y="753" on="1"/>
        <pt x="440" y="801" on="0"/>
        <pt x="440" y="881" on="1"/>
        <pt x="440" y="959" on="0"/>
        <pt x="490" y="1009" on="1"/>
        <pt x="538" y="1058" on="0"/>
        <pt x="610" y="1058" on="1"/>
        <pt x="683" y="1058" on="0"/>
        <pt x="731" y="1009" on="1"/>
        <pt x="780" y="960" on="0"/>
        <pt x="780" y="881" on="1"/>
        <pt x="780" y="801" on="0"/>
        <pt x="731" y="753" on="1"/>
        <pt x="683" y="703" on="0"/>
      </contour>
      <contour>
        <pt x="394" y="-361" on="1"/>
        <pt x="650" y="-247" on="0"/>
        <pt x="659" y="-10" on="1"/>
        <pt x="638" y="-15" on="0"/>
        <pt x="617" y="-15" on="1"/>
        <pt x="548" y="-15" on="0"/>
        <pt x="501" y="26" on="1"/>
        <pt x="455" y="69" on="0"/>
        <pt x="455" y="142" on="1"/>
        <pt x="455" y="218" on="0"/>
        <pt x="503" y="260" on="1"/>
        <pt x="524" y="279" on="0"/>
        <pt x="587" y="302" on="0"/>
        <pt x="625" y="302" on="1"/>
        <pt x="714" y="302" on="0"/>
        <pt x="764" y="231" on="1"/>
        <pt x="812" y="160" on="0"/>
        <pt x="812" y="34" on="1"/>
        <pt x="812" y="-146" on="0"/>
        <pt x="618" y="-406" on="0"/>
        <pt x="442" y="-470" on="1"/>
      </contour>
    </TTGlyph>
    <TTGlyph name="uni003C" xMin="88" yMin="141" xMax="1145" yMax="1143">
      <contour>
        <pt x="88" y="559" on="1"/>
        <pt x="88" y="725" on="1"/>
        <pt x="1145" y="1143" on="1"/>
        <pt x="1145" y="961" on="1"/>
        <pt x="295" y="641" on="1"/>
        <pt x="1145" y="324" on="1"/>
        <pt x="1145" y="141" on="1"/>
      </contour>
    </TTGlyph>
    <TTGlyph name="uni003D" xMin="88" yMin="352" xMax="1145" yMax="930">
      <contour>
        <pt x="88" y="930" on="1"/>
        <pt x="1145" y="930" on="1"/>
        <pt x="1145" y="760" on="1"/>
        <pt x="88" y="760" on="1"/>
      </contour>
      <contour>
        <pt x="88" y="524" on="1"/>
        <pt x="1145" y="524" on="1"/>
        <pt x="1145" y="352" on="1"/>
        <pt x="88" y="352" on="1"/>
      </contour>
    </TTGlyph>
    <TTGlyph name="uni003E" xMin="88" yMin="141" xMax="1145" yMax="1143">
      <contour>
        <pt x="88" y="324" on="1"/>
        <pt x="938" y="641" on="1"/>
        <pt x="88" y="961" on="1"/>
        <pt x="88" y="1143" on="1"/>
        <pt x="1145" y="725" on="1"/>
        <pt x="1145" y="559" on="1"/>
        <pt x="88" y="141" on="1"/>
      </contour>
    </TTGlyph>
    <TTGlyph name="uni003F" xMin="244" yMin="-40" xMax="1040" yMax="1528">
      <contour>
        <pt x="494" y="583" on="1"/>
        <pt x="494" y="662" on="0"/>
        <pt x="524" y="729" on="1"/>
        <pt x="557" y="798" on="0"/>
        <pt x="639" y="880" on="1"/>
        <pt x="729" y="969" on="1"/>
        <pt x="758" y="998" on="0"/>
        <pt x="803" y="1051" on="0"/>
        <pt x="814" y="1072" on="1"/>
        <pt x="838" y="1116" on="0"/>
        <pt x="838" y="1166" on="1"/>
        <pt x="838" y="1213" on="0"/>
        <pt x="802" y="1284" on="0"/>
        <pt x="773" y="1309" on="1"/>
        <pt x="708" y="1364" on="0"/>
        <pt x="600" y="1364" on="1"/>
        <pt x="517" y="1364" on="0"/>
        <pt x="431" y="1330" on="1"/>
        <pt x="386" y="1313" on="0"/>
        <pt x="293" y="1261" on="0"/>
        <pt x="244" y="1227" on="1"/>
        <pt x="244" y="1415" on="1"/>
        <pt x="340" y="1473" on="0"/>
        <pt x="434" y="1500" on="1"/>
        <pt x="524" y="1528" on="0"/>
        <pt x="629" y="1528" on="1"/>
        <pt x="729" y="1528" on="0"/>
        <pt x="880" y="1477" on="0"/>
        <pt x="931" y="1432" on="1"/>
        <pt x="1040" y="1335" on="0"/>
        <pt x="1040" y="1178" on="1"/>
        <pt x="1040" y="1097" on="0"/>
        <pt x="1006" y="1033" on="1"/>
        <pt x="970" y="966" on="0"/>
        <pt x="879" y="876" on="1"/>
        <pt x="791" y="790" on="1"/>
        <pt x="721" y="723" on="0"/>
        <pt x="703" y="682" on="1"/>
        <pt x="684" y="643" on="0"/>
        <pt x="684" y="599" on="1"/>
        <pt x="684" y="472" on="1"/>
        <pt x="494" y="472" on="1"/>
      </contour>
      <contour>
        <pt x="593" y="-40" on="1"/>
        <pt x="531" y="-40" on="0"/>
        <pt x="489" y="2" on="1"/>
        <pt x="446" y="45" on="0"/>
        <pt x="446" y="113" on="1"/>
        <pt x="446" y="180" on="0"/>
        <pt x="488" y="222" on="1"/>
        <pt x="505" y="239" on="0"/>
        <pt x="558" y="264" on="0"/>
        <pt x="592" y="264" on="1"/>
        <pt x="654" y="264" on="0"/>
        <pt x="696" y="222" on="1"/>
        <pt x="738" y="180" on="0"/>
        <pt x="738" y="113" on="1"/>
        <pt x="738" y="45" on="0"/>
        <pt x="696" y="3" on="1"/>
        <pt x="653" y="-40" on="0"/>
      </contour>
    </TTGlyph>
    <TTGlyph name="uni0040" xMin="27" yMin="-319" xMax="1178" yMax="1395">
      <contour>
        <pt x="796" y="-319" on="1"/>
        <pt x="632" y="-319" on="0"/>
        <pt x="343" y="-205" on="0"/>
        <pt x="236" y="-87" on="1"/>
        <pt x="135" y="25" on="0"/>
        <pt x="27" y="343" on="0"/>
        <pt x="27" y="547" on="1"/>
        <pt x="27" y="735" on="0"/>
        <pt x="120" y="1049" on="0"/>
        <pt x="214" y="1164" on="1"/>
        <pt x="310" y="1282" on="0"/>
        <pt x="566" y="1395" on="0"/>
        <pt x="709" y="1395" on="1"/>
        <pt x="932" y="1395" on="0"/>
        <pt x="1178" y="1130" on="0"/>
        <pt x="1178" y="905" on="1"/>
        <pt x="1178" y="135" on="1"/>
        <pt x="1034" y="135" on="1"/>
        <pt x="1034" y="246" on="1"/>
        <pt x="996" y="183" on="0"/>
        <pt x="932" y="149" on="1"/>
        <pt x="868" y="115" on="0"/>
        <pt x="785" y="115" on="1"/>
        <pt x="623" y="115" on="0"/>
        <pt x="517" y="235" on="1"/>
        <pt x="469" y="289" on="0"/>
        <pt x="412" y="447" on="0"/>
        <pt x="412" y="546" on="1"/>
        <pt x="412" y="637" on="0"/>
        <pt x="464" y="793" on="0"/>
        <pt x="517" y="854" on="1"/>
        <pt x="572" y="917" on="0"/>
        <pt x="709" y="975" on="0"/>
        <pt x="782" y="975" on="1"/>
        <pt x="863" y="975" on="0"/>
        <pt x="931" y="940" on="1"/>
        <pt x="998" y="906" on="0"/>
        <pt x="1034" y="844" on="1"/>
        <pt x="1034" y="907" on="1"/>
        <pt x="1034" y="1066" on="0"/>
        <pt x="947" y="1159" on="1"/>
        <pt x="861" y="1253" on="0"/>
        <pt x="702" y="1253" on="1"/>
        <pt x="590" y="1253" on="0"/>
        <pt x="395" y="1158" on="0"/>
        <pt x="322" y="1062" on="1"/>
        <pt x="176" y="871" on="0"/>
        <pt x="176" y="549" on="1"/>
        <pt x="176" y="210" on="0"/>
        <pt x="340" y="18" on="1"/>
        <pt x="418" y="-75" on="0"/>
        <pt x="641" y="-176" on="0"/>
        <pt x="778" y="-176" on="1"/>
        <pt x="890" y="-176" on="0"/>
        <pt x="999" y="-135" on="1"/>
        <pt x="1047" y="-270" on="1"/>
        <pt x="1013" y="-284" on="0"/>
        <pt x="953" y="-301" on="0"/>
        <pt x="923" y="-307" on="1"/>
        <pt x="892" y="-313" on="0"/>
        <pt x="834" y="-319" on="0"/>
      </contour>
      <contour>
        <pt x="803" y="260" on="1"/>
        <pt x="910" y="260" on="0"/>
        <pt x="1038" y="417" on="0"/>
        <pt x="1038" y="545" on="1"/>
        <pt x="1038" y="677" on="0"/>
        <pt x="974" y="753" on="1"/>
        <pt x="910" y="829" on="0"/>
        <pt x="802" y="829" on="1"/>
        <pt x="697" y="829" on="0"/>
        <pt x="632" y="752" on="1"/>
        <pt x="567" y="675" on="0"/>
        <pt x="567" y="546" on="1"/>
        <pt x="567" y="414" on="0"/>
        <pt x="632" y="337" on="1"/>
        <pt x="697" y="260" on="0"/>
      </contour>
    </TTGlyph>
    <TTGlyph name="uni0041" xMin="37" yMin="0" xMax="1196" yMax="1493">
      <contour>
        <pt x="494" y="1493" on="1"/>
        <pt x="739" y="1493" on="1"/>
        <pt x="1196" y="0" on="1"/>
        <pt x="987" y="0" on="1"/>
        <pt x="877" y="389" on="1"/>
        <pt x="354" y="389" on="1"/>
        <pt x="246" y="0" on="1"/>
        <pt x="37" y="0" on="1"/>
      </contour>
      <contour>
        <pt x="829" y="551" on="1"/>
        <pt x="616" y="1315" on="1"/>
        <pt x="403" y="551" on="1"/>
      </contour>
    </TTGlyph>
    <TTGlyph name="uni0042" xMin="166" yMin="0" xMax="1137" yMax="1493">
      <contour>
        <pt x="166" y="1493" on="1"/>
        <pt x="608" y="1493" on="1"/>
        <pt x="836" y="1493" on="0"/>
        <pt x="961" y="1394" on="1"/>
        <pt x="1085" y="1295" on="0"/>
        <pt x="1085" y="1113" on="1"/>
        <pt x="1085" y="1043" on="0"/>
        <pt x="1051" y="936" on="0"/>
        <pt x="1020" y="898" on="1"/>
        <pt x="988" y="860" on="0"/>
        <pt x="890" y="809" on="0"/>
        <pt x="823" y="799" on="1"/>
        <pt x="971" y="777" on="0"/>
        <pt x="1054" y="674" on="1"/>
        <pt x="1137" y="571" on="0"/>
        <pt x="1137" y="409" on="1"/>
        <pt x="1137" y="207" on="0"/>
        <pt x="1004" y="104" on="1"/>
        <pt x="870" y="0" on="0"/>
        <pt x="608" y="0" on="1"/>
        <pt x="166" y="0" on="1"/>
      </contour>
      <contour>
        <pt x="604" y="877" on="1"/>
        <pt x="752" y="877" on="0"/>
        <pt x="816" y="934" on="1"/>
        <pt x="881" y="990" on="0"/>
        <pt x="881" y="1111" on="1"/>
        <pt x="881" y="1228" on="0"/>
        <pt x="817" y="1277" on="1"/>
        <pt x="752" y="1327" on="0"/>
        <pt x="604" y="1327" on="1"/>
        <pt x="369" y="1327" on="1"/>
        <pt x="369" y="877" on="1"/>
      </contour>
      <contour>
        <pt x="608" y="166" on="1"/>
        <pt x="782" y="166" on="0"/>
        <pt x="859" y="228" on="1"/>
        <pt x="934" y="290" on="0"/>
        <pt x="934" y="430" on="1"/>
        <pt x="934" y="576" on="0"/>
        <pt x="855" y="645" on="1"/>
        <pt x="775" y="713" on="0"/>
        <pt x="608" y="713" on="1"/>
        <pt x="369" y="713" on="1"/>
        <pt x="369" y="166" on="1"/>
      </contour>
    </TTGlyph>
    <TTGlyph name="uni0043" xMin="139" yMin="-29" xMax="1073" yMax="1520">
      <contour>
        <pt x="742" y="-29" on="1"/>
        <pt x="602" y="-29" on="0"/>
        <pt x="377" y="71" on="0"/>
        <pt x="297" y="174" on="1"/>
        <pt x="139" y="379" on="0"/>
        <pt x="139" y="744" on="1"/>
        <pt x="139" y="988" on="0"/>
        <pt x="283" y="1335" on="0"/>
        <pt x="554" y="1520" on="0"/>
        <pt x="742" y="1520" on="1"/>
        <pt x="839" y="1520" on="0"/>
        <pt x="994" y="1482" on="0"/>
        <pt x="1073" y="1438" on="1"/>
        <pt x="1073" y="1231" on="1"/>
        <pt x="1000" y="1292" on="0"/>
        <pt x="914" y="1324" on="1"/>
        <pt x="827" y="1356" on="0"/>
        <pt x="741" y="1356" on="1"/>
        <pt x="546" y="1356" on="0"/>
        <pt x="448" y="1204" on="1"/>
        <pt x="350" y="1052" on="0"/>
        <pt x="350" y="745" on="1"/>
        <pt x="350" y="135" on="0"/>
        <pt x="743" y="135" on="1"/>
        <pt x="829" y="135" on="0"/>
        <pt x="916" y="167" on="1"/>
        <pt x="1000" y="199" on="0"/>
        <pt x="1073" y="260" on="1"/>
        <pt x="1073" y="53" on="1"/>
        <pt x="994" y="12" on="0"/>
        <pt x="915" y="-9" on="1"/>
        <pt x="835" y="-29" on="0"/>
      </contour>
    </TTGlyph>
    <TTGlyph name="uni0044" xMin="137" yMin="0" xMax="1106" yMax="1493">
      <contour>
        <pt x="137" y="1493" on="1"/>
        <pt x="440" y="1493" on="1"/>
        <pt x="782" y="1493" on="0"/>
        <pt x="1106" y="1129" on="0"/>
        <pt x="1106" y="745" on="1"/>
        <pt x="1106" y="364" on="0"/>
        <pt x="944" y="182" on="1"/>
        <pt x="782" y="0" on="0"/>
        <pt x="440" y="0" on="1"/>
        <pt x="137" y="0" on="1"/>
      </contour>
      <contour>
        <pt x="436" y="166" on="1"/>
        <pt x="692" y="166" on="0"/>
        <pt x="792" y="292" on="1"/>
        <pt x="893" y="417" on="0"/>
        <pt x="893" y="747" on="1"/>
        <pt x="893" y="1078" on="0"/>
        <pt x="793" y="1202" on="1"/>
        <pt x="742" y="1266" on="0"/>
        <pt x="561" y="1327" on="0"/>
        <pt x="436" y="1327" on="1"/>
        <pt x="340" y="1327" on="1"/>
        <pt x="340" y="166" on="1"/>
      </contour>
    </TTGlyph>
    <TTGlyph name="uni0045" xMin="197" yMin="0" xMax="1102" yMax="1493">
      <contour>
        <pt x="197" y="1493" on="1"/>
        <pt x="1083" y="1493" on="1"/>
        <pt x="1083" y="1323" on="1"/>
        <pt x="399" y="1323" on="1"/>
        <pt x="399" y="881" on="1"/>
        <pt x="1053" y="881" on="1"/>
        <pt x="1053" y="711" on="1"/>
        <pt x="399" y="711" on="1"/>
        <pt x="399" y="170" on="1"/>
        <pt x="1102" y="170" on="1"/>
        <pt x="1102" y="0" on="1"/>
        <pt x="197" y="0" on="1"/>
      </contour>
    </TTGlyph>
    <TTGlyph name="uni0046" xMin="233" yMin="0" xMax="1112" yMax="1493">
      <contour>
        <pt x="233" y="1493" on="1"/>
        <pt x="1112" y="1493" on="1"/>
        <pt x="1112" y="1323" on="1"/>
        <pt x="436" y="1323" on="1"/>
        <pt x="436" y="863" on="1"/>
        <pt x="1049" y="863" on="1"/>
        <pt x="1049" y="693" on="1"/>
        <pt x="436" y="693" on="1"/>
        <pt x="436" y="0" on="1"/>
        <pt x="233" y="0" on="1"/>
      </contour>
    </TTGlyph>
    <TTGlyph name="uni0047" xMin="102" yMin="-29" xMax="1104" yMax="1520">
      <contour>
        <pt x="700" y="-29" on="1"/>
        <pt x="557" y="-29" on="0"/>
        <pt x="336" y="75" on="0"/>
        <pt x="259" y="175" on="1"/>
        <pt x="102" y="380" on="0"/>
        <pt x="102" y="744" on="1"/>
        <pt x="102" y="1114" on="0"/>
        <pt x="422" y="1520" on="0"/>
        <pt x="703" y="1520" on="1"/>
        <pt x="801" y="1520" on="0"/>
        <pt x="887" y="1494" on="1"/>
        <pt x="975" y="1466" on="0"/>
        <pt x="1053" y="1413" on="1"/>
        <pt x="1053" y="1206" on="1"/>
        <pt x="1010" y="1247" on="0"/>
        <pt x="925" y="1303" on="0"/>
        <pt x="887" y="1320" on="1"/>
        <pt x="843" y="1339" on="0"/>
        <pt x="751" y="1356" on="0"/>
        <pt x="706" y="1356" on="1"/>
        <pt x="511" y="1356" on="0"/>
        <pt x="412" y="1204" on="1"/>
        <pt x="313" y="1052" on="0"/>
        <pt x="313" y="743" on="1"/>
        <pt x="313" y="585" on="0"/>
        <pt x="361" y="360" on="0"/>
        <pt x="409" y="285" on="1"/>
        <pt x="504" y="135" on="0"/>
        <pt x="703" y="135" on="1"/>
        <pt x="769" y="135" on="0"/>
        <pt x="820" y="151" on="1"/>
        <pt x="844" y="159" on="0"/>
        <pt x="890" y="182" on="0"/>
        <pt x="911" y="199" on="1"/>
        <pt x="911" y="600" on="1"/>
        <pt x="694" y="600" on="1"/>
        <pt x="694" y="766" on="1"/>
        <pt x="1104" y="766" on="1"/>
        <pt x="1104" y="123" on="1"/>
        <pt x="1022" y="47" on="0"/>
        <pt x="922" y="10" on="1"/>
        <pt x="820" y="-29" on="0"/>
      </contour>
    </TTGlyph>
    <TTGlyph name="uni0048" xMin="137" yMin="0" xMax="1096" yMax="1493">
      <contour>
        <pt x="137" y="1493" on="1"/>
        <pt x="340" y="1493" on="1"/>
        <pt x="340" y="881" on="1"/>
        <pt x="893" y="881" on="1"/>
        <pt x="893" y="1493" on="1"/>
        <pt x="1096" y="1493" on="1"/>
        <pt x="1096" y="0" on="1"/>
        <pt x="893" y="0" on="1"/>
        <pt x="893" y="711" on="1"/>
        <pt x="340" y="711" on="1"/>
        <pt x="340" y="0" on="1"/>
        <pt x="137" y="0" on="1"/>
      </contour>
    </TTGlyph>
    <TTGlyph name="uni0049" xMin="201" yMin="0" xMax="1030" yMax="1493">
      <contour>
        <pt x="201" y="170" on="1"/>
        <pt x="514" y="170" on="1"/>
        <pt x="514" y="1323" on="1"/>
        <pt x="201" y="1323" on="1"/>
        <pt x="201" y="1493" on="1"/>
        <pt x="1030" y="1493" on="1"/>
        <pt x="1030" y="1323" on="1"/>
        <pt x="717" y="1323" on="1"/>
        <pt x="717" y="170" on="1"/>
        <pt x="1030" y="170" on="1"/>
        <pt x="1030" y="0" on="1"/>
        <pt x="201" y="0" on="1"/>
      </contour>
    </TTGlyph>
    <TTGlyph name="uni004A" xMin="109" yMin="-29" xMax="956" yMax="1493">
      <contour>
        <pt x="502" y="-29" on="1"/>
        <pt x="396" y="-29" on="0"/>
        <pt x="307" y="-7" on="1"/>
        <pt x="212" y="15" on="0"/>
        <pt x="109" y="61" on="1"/>
        <pt x="109" y="297" on="1"/>
        <pt x="200" y="216" on="0"/>
        <pt x="297" y="176" on="1"/>
        <pt x="397" y="135" on="0"/>
        <pt x="499" y="135" on="1"/>
        <pt x="566" y="135" on="0"/>
        <pt x="669" y="171" on="0"/>
        <pt x="698" y="210" on="1"/>
        <pt x="754" y="284" on="0"/>
        <pt x="754" y="487" on="1"/>
        <pt x="754" y="1323" on="1"/>
        <pt x="373" y="1323" on="1"/>
        <pt x="373" y="1493" on="1"/>
        <pt x="956" y="1493" on="1"/>
        <pt x="956" y="487" on="1"/>
        <pt x="956" y="299" on="0"/>
        <pt x="864" y="72" on="0"/>
        <pt x="664" y="-29" on="0"/>
      </contour>
    </TTGlyph>
    <TTGlyph name="uni004B" xMin="137" yMin="0" xMax="1225" yMax="1493">
      <contour>
        <pt x="137" y="1493" on="1"/>
        <pt x="340" y="1493" on="1"/>
        <pt x="340" y="829" on="1"/>
        <pt x="971" y="1493" on="1"/>
        <pt x="1208" y="1493" on="1"/>
        <pt x="627" y="883" on="1"/>
        <pt x="1225" y="0" on="1"/>
        <pt x="981" y="0" on="1"/>
        <pt x="494" y="748" on="1"/>
        <pt x="340" y="584" on="1"/>
        <pt x="340" y="0" on="1"/>
        <pt x="137" y="0" on="1"/>
      </contour>
    </TTGlyph>
    <TTGlyph name="uni004C" xMin="215" yMin="0" xMax="1139" yMax="1493">
      <contour>
        <pt x="215" y="1493" on="1"/>
        <pt x="418" y="1493" on="1"/>
        <pt x="418" y="170" on="1"/>
        <pt x="1139" y="170" on="1"/>
        <pt x="1139" y="0" on="1"/>
        <pt x="215" y="0" on="1"/>
      </contour>
    </TTGlyph>
    <TTGlyph name="uni004D" xMin="86" yMin="0" xMax="1145" yMax="1493">
      <contour>
        <pt x="86" y="1493" on="1"/>
        <pt x="356" y="1493" on="1"/>
        <pt x="614" y="733" on="1"/>
        <pt x="874" y="1493" on="1"/>
        <pt x="1145" y="1493" on="1"/>
        <pt x="1145" y="0" on="1"/>
        <pt x="958" y="0" on="1"/>
        <pt x="958" y="1319" on="1"/>
        <pt x="692" y="532" on="1"/>
        <pt x="539" y="532" on="1"/>
        <pt x="272" y="1319" on="1"/>
        <pt x="272" y="0" on="1"/>
        <pt x="86" y="0" on="1"/>
      </contour>
    </TTGlyph>
    <TTGlyph name="uni004E" xMin="139" yMin="0" xMax="1094" yMax="1493">
      <contour>
        <pt x="139" y="1493" on="1"/>
        <pt x="395" y="1493" on="1"/>
        <pt x="899" y="264" on="1"/>
        <pt x="899" y="1493" on="1"/>
        <pt x="1094" y="1493" on="1"/>
        <pt x="1094" y="0" on="1"/>
        <pt x="838" y="0" on="1"/>
        <pt x="334" y="1229" on="1"/>
        <pt x="334" y="0" on="1"/>
        <pt x="139" y="0" on="1"/>
      </contour>
    </TTGlyph>
    <TTGlyph name="uni004F" xMin="117" yMin="-29" xMax="1116" yMax="1520">
      <contour>
        <pt x="616" y="-29" on="1"/>
        <pt x="363" y="-29" on="0"/>
        <pt x="240" y="162" on="1"/>
        <pt x="117" y="352" on="0"/>
        <pt x="117" y="745" on="1"/>
        <pt x="117" y="1138" on="0"/>
        <pt x="241" y="1328" on="1"/>
        <pt x="366" y="1520" on="0"/>
        <pt x="616" y="1520" on="1"/>
        <pt x="739" y="1520" on="0"/>
        <pt x="929" y="1428" on="0"/>
        <pt x="993" y="1328" on="1"/>
        <pt x="1116" y="1136" on="0"/>
        <pt x="1116" y="745" on="1"/>
        <pt x="1116" y="355" on="0"/>
        <pt x="993" y="163" on="1"/>
        <pt x="929" y="63" on="0"/>
        <pt x="739" y="-29" on="0"/>
      </contour>
      <contour>
        <pt x="616" y="135" on="1"/>
        <pt x="770" y="135" on="0"/>
        <pt x="838" y="276" on="1"/>
        <pt x="905" y="413" on="0"/>
        <pt x="905" y="745" on="1"/>
        <pt x="905" y="1077" on="0"/>
        <pt x="838" y="1215" on="1"/>
        <pt x="770" y="1356" on="0"/>
        <pt x="616" y="1356" on="1"/>
        <pt x="464" y="1356" on="0"/>
        <pt x="396" y="1215" on="1"/>
        <pt x="328" y="1071" on="0"/>
        <pt x="328" y="745" on="1"/>
        <pt x="328" y="420" on="0"/>
        <pt x="396" y="276" on="1"/>
        <pt x="464" y="135" on="0"/>
      </contour>
    </TTGlyph>
    <TTGlyph name="uni0050" xMin="172" yMin="0" xMax="1116" yMax="1493">
      <contour>
        <pt x="172" y="1493" on="1"/>
        <pt x="608" y="1493" on="1"/>
        <pt x="856" y="1493" on="0"/>
        <pt x="987" y="1380" on="1"/>
        <pt x="1054" y="1321" on="0"/>
        <pt x="1116" y="1152" on="0"/>
        <pt x="1116" y="1046" on="1"/>
        <pt x="1116" y="826" on="0"/>
        <pt x="988" y="713" on="1"/>
        <pt x="861" y="600" on="0"/>
        <pt x="608" y="600" on="1"/>
        <pt x="374" y="600" on="1"/>
        <pt x="374" y="0" on="1"/>
        <pt x="172" y="0" on="1"/>
      </contour>
      <contour>
        <pt x="608" y="766" on="1"/>
        <pt x="683" y="766" on="0"/>
        <pt x="791" y="806" on="0"/>
        <pt x="827" y="840" on="1"/>
        <pt x="905" y="914" on="0"/>
        <pt x="905" y="1047" on="1"/>
        <pt x="905" y="1180" on="0"/>
        <pt x="827" y="1254" on="1"/>
        <pt x="751" y="1327" on="0"/>
        <pt x="608" y="1327" on="1"/>
        <pt x="374" y="1327" on="1"/>
        <pt x="374" y="766" on="1"/>
      </contour>
    </TTGlyph>
    <TTGlyph name="uni0051" xMin="114" yMin="-270" xMax="1125" yMax="1520">
      <contour>
        <pt x="655" y="-27" on="1"/>
        <pt x="650" y="-27" on="0"/>
        <pt x="620" y="-29" on="0"/>
        <pt x="617" y="-29" on="1"/>
        <pt x="368" y="-35" on="0"/>
        <pt x="114" y="362" on="0"/>
        <pt x="117" y="745" on="1"/>
        <pt x="117" y="1138" on="0"/>
        <pt x="241" y="1328" on="1"/>
        <pt x="366" y="1520" on="0"/>
        <pt x="616" y="1520" on="1"/>
        <pt x="739" y="1520" on="0"/>
        <pt x="929" y="1428" on="0"/>
        <pt x="993" y="1328" on="1"/>
        <pt x="1116" y="1136" on="0"/>
        <pt x="1116" y="745" on="1"/>
        <pt x="1116" y="453" on="0"/>
        <pt x="1048" y="272" on="1"/>
        <pt x="1015" y="184" on="0"/>
        <pt x="911" y="56" on="0"/>
        <pt x="840" y="20" on="1"/>
        <pt x="1125" y="-270" on="1"/>
        <pt x="889" y="-270" on="1"/>
      </contour>
      <contour>
        <pt x="616" y="135" on="1"/>
        <pt x="770" y="135" on="0"/>
        <pt x="838" y="276" on="1"/>
        <pt x="905" y="413" on="0"/>
        <pt x="905" y="745" on="1"/>
        <pt x="905" y="1077" on="0"/>
        <pt x="838" y="1215" on="1"/>
        <pt x="770" y="1356" on="0"/>
        <pt x="616" y="1356" on="1"/>
        <pt x="464" y="1356" on="0"/>
        <pt x="396" y="1215" on="1"/>
        <pt x="328" y="1071" on="0"/>
        <pt x="328" y="745" on="1"/>
        <pt x="328" y="420" on="0"/>
        <pt x="396" y="276" on="1"/>
        <pt x="464" y="135" on="0"/>
      </contour>
    </TTGlyph>
    <TTGlyph name="uni0052" xMin="143" yMin="0" xMax="1233" yMax="1493">
      <contour>
        <pt x="143" y="1493" on="1"/>
        <pt x="559" y="1493" on="1"/>
        <pt x="806" y="1493" on="0"/>
        <pt x="936" y="1382" on="1"/>
        <pt x="1067" y="1270" on="0"/>
        <pt x="1067" y="1065" on="1"/>
        <pt x="1067" y="986" on="0"/>
        <pt x="1027" y="867" on="0"/>
        <pt x="987" y="820" on="1"/>
        <pt x="908" y="726" on="0"/>
        <pt x="760" y="705" on="1"/>
        <pt x="841" y="685" on="0"/>
        <pt x="893" y="630" on="1"/>
        <pt x="921" y="601" on="0"/>
        <pt x="986" y="496" on="0"/>
        <pt x="1030" y="408" on="1"/>
        <pt x="1233" y="0" on="1"/>
        <pt x="1016" y="0" on="1"/>
        <pt x="838" y="377" on="1"/>
        <pt x="799" y="460" on="0"/>
        <pt x="730" y="562" on="0"/>
        <pt x="700" y="585" on="1"/>
        <pt x="669" y="609" on="0"/>
        <pt x="586" y="631" on="0"/>
        <pt x="539" y="631" on="1"/>
        <pt x="346" y="631" on="1"/>
        <pt x="346" y="0" on="1"/>
        <pt x="143" y="0" on="1"/>
      </contour>
      <contour>
        <pt x="567" y="797" on="1"/>
        <pt x="712" y="797" on="0"/>
        <pt x="783" y="862" on="1"/>
        <pt x="854" y="927" on="0"/>
        <pt x="854" y="1059" on="1"/>
        <pt x="854" y="1190" on="0"/>
        <pt x="779" y="1259" on="1"/>
        <pt x="743" y="1291" on="0"/>
        <pt x="634" y="1327" on="0"/>
        <pt x="559" y="1327" on="1"/>
        <pt x="346" y="1327" on="1"/>
        <pt x="346" y="797" on="1"/>
      </contour>
    </TTGlyph>
    <TTGlyph name="uni0053" xMin="139" yMin="-29" xMax="1098" yMax="1520">
      <contour>
        <pt x="584" y="-29" on="1"/>
        <pt x="477" y="-29" on="0"/>
        <pt x="265" y="17" on="0"/>
        <pt x="158" y="61" on="1"/>
        <pt x="158" y="276" on="1"/>
        <pt x="271" y="204" on="0"/>
        <pt x="376" y="169" on="1"/>
        <pt x="477" y="135" on="0"/>
        <pt x="581" y="135" on="1"/>
        <pt x="734" y="135" on="0"/>
        <pt x="820" y="203" on="1"/>
        <pt x="905" y="271" on="0"/>
        <pt x="905" y="400" on="1"/>
        <pt x="905" y="507" on="0"/>
        <pt x="847" y="565" on="1"/>
        <pt x="815" y="598" on="0"/>
        <pt x="718" y="640" on="0"/>
        <pt x="643" y="657" on="1"/>
        <pt x="535" y="682" on="1"/>
        <pt x="434" y="705" on="0"/>
        <pt x="283" y="773" on="0"/>
        <pt x="233" y="824" on="1"/>
        <pt x="139" y="918" on="0"/>
        <pt x="139" y="1079" on="1"/>
        <pt x="139" y="1282" on="0"/>
        <pt x="274" y="1401" on="1"/>
        <pt x="338" y="1458" on="0"/>
        <pt x="517" y="1520" on="0"/>
        <pt x="631" y="1520" on="1"/>
        <pt x="718" y="1520" on="0"/>
        <pt x="812" y="1501" on="1"/>
        <pt x="858" y="1491" on="0"/>
        <pt x="959" y="1462" on="0"/>
        <pt x="1012" y="1442" on="1"/>
        <pt x="1012" y="1237" on="1"/>
        <pt x="964" y="1268" on="0"/>
        <pt x="873" y="1311" on="0"/>
        <pt x="828" y="1326" on="1"/>
        <pt x="735" y="1356" on="0"/>
        <pt x="642" y="1356" on="1"/>
        <pt x="499" y="1356" on="0"/>
        <pt x="332" y="1222" on="0"/>
        <pt x="332" y="1105" on="1"/>
        <pt x="332" y="1054" on="0"/>
        <pt x="361" y="985" on="0"/>
        <pt x="387" y="960" on="1"/>
        <pt x="444" y="906" on="0"/>
        <pt x="590" y="872" on="1"/>
        <pt x="696" y="848" on="1"/>
        <pt x="903" y="801" on="0"/>
        <pt x="1001" y="694" on="1"/>
        <pt x="1098" y="591" on="0"/>
        <pt x="1098" y="410" on="1"/>
        <pt x="1098" y="296" on="0"/>
        <pt x="1028" y="135" on="0"/>
        <pt x="967" y="83" on="1"/>
        <pt x="836" y="-29" on="0"/>
      </contour>
    </TTGlyph>
    <TTGlyph name="uni0054" xMin="47" yMin="0" xMax="1186" yMax="1493">
      <contour>
        <pt x="516" y="1323" on="1"/>
        <pt x="47" y="1323" on="1"/>
        <pt x="47" y="1493" on="1"/>
        <pt x="1186" y="1493" on="1"/>
        <pt x="1186" y="1323" on="1"/>
        <pt x="719" y="1323" on="1"/>
        <pt x="719" y="0" on="1"/>
        <pt x="516" y="0" on="1"/>
      </contour>
    </TTGlyph>
    <TTGlyph name="uni0055" xMin="147" yMin="-29" xMax="1085" yMax="1493">
      <contour>
        <pt x="616" y="-29" on="1"/>
        <pt x="512" y="-29" on="0"/>
        <pt x="427" y="0" on="1"/>
        <pt x="388" y="14" on="0"/>
        <pt x="305" y="59" on="0"/>
        <pt x="273" y="88" on="1"/>
        <pt x="242" y="116" on="0"/>
        <pt x="194" y="192" on="0"/>
        <pt x="177" y="249" on="1"/>
        <pt x="161" y="299" on="0"/>
        <pt x="147" y="450" on="0"/>
        <pt x="147" y="573" on="1"/>
        <pt x="147" y="1493" on="1"/>
        <pt x="350" y="1493" on="1"/>
        <pt x="350" y="481" on="1"/>
        <pt x="350" y="372" on="0"/>
        <pt x="356" y="326" on="1"/>
        <pt x="362" y="280" on="0"/>
        <pt x="377" y="254" on="1"/>
        <pt x="409" y="195" on="0"/>
        <pt x="470" y="165" on="1"/>
        <pt x="530" y="135" on="0"/>
        <pt x="616" y="135" on="1"/>
        <pt x="703" y="135" on="0"/>
        <pt x="763" y="165" on="1"/>
        <pt x="825" y="197" on="0"/>
        <pt x="856" y="254" on="1"/>
        <pt x="872" y="283" on="0"/>
        <pt x="877" y="325" on="1"/>
        <pt x="883" y="372" on="0"/>
        <pt x="883" y="479" on="1"/>
        <pt x="883" y="1493" on="1"/>
        <pt x="1085" y="1493" on="1"/>
        <pt x="1085" y="573" on="1"/>
        <pt x="1085" y="441" on="0"/>
        <pt x="1069" y="294" on="0"/>
        <pt x="1057" y="249" on="1"/>
        <pt x="1030" y="152" on="0"/>
        <pt x="959" y="88" on="1"/>
        <pt x="926" y="58" on="0"/>
        <pt x="845" y="14" on="0"/>
        <pt x="806" y="0" on="1"/>
        <pt x="769" y="-13" on="0"/>
        <pt x="675" y="-29" on="0"/>
      </contour>
    </TTGlyph>
    <TTGlyph name="uni0056" xMin="57" yMin="0" xMax="1176" yMax="1493">
      <contour>
        <pt x="57" y="1493" on="1"/>
        <pt x="266" y="1493" on="1"/>
        <pt x="616" y="170" on="1"/>
        <pt x="967" y="1493" on="1"/>
        <pt x="1176" y="1493" on="1"/>
        <pt x="739" y="0" on="1"/>
        <pt x="494" y="0" on="1"/>
      </contour>
    </TTGlyph>
    <TTGlyph name="uni0057" xMin="0" yMin="0" xMax="1233" yMax="1493">
      <contour>
        <pt x="0" y="1493" on="1"/>
        <pt x="197" y="1493" on="1"/>
        <pt x="340" y="281" on="1"/>
        <pt x="510" y="1083" on="1"/>
        <pt x="721" y="1083" on="1"/>
        <pt x="893" y="279" on="1"/>
        <pt x="1036" y="1493" on="1"/>
        <pt x="1233" y="1493" on="1"/>
        <pt x="1010" y="0" on="1"/>
        <pt x="819" y="0" on="1"/>
        <pt x="616" y="887" on="1"/>
        <pt x="414" y="0" on="1"/>
        <pt x="223" y="0" on="1"/>
      </contour>
    </TTGlyph>
    <TTGlyph name="uni0058" xMin="18" yMin="0" xMax="1214" yMax="1493">
      <contour>
        <pt x="518" y="791" on="1"/>
        <pt x="86" y="1493" on="1"/>
        <pt x="303" y="1493" on="1"/>
        <pt x="631" y="930" on="1"/>
        <pt x="965" y="1493" on="1"/>
        <pt x="1182" y="1493" on="1"/>
        <pt x="735" y="791" on="1"/>
        <pt x="1214" y="0" on="1"/>
        <pt x="997" y="0" on="1"/>
        <pt x="631" y="643" on="1"/>
        <pt x="236" y="0" on="1"/>
        <pt x="18" y="0" on="1"/>
      </contour>
    </TTGlyph>
    <TTGlyph name="uni0059" xMin="37" yMin="0" xMax="1196" yMax="1493">
      <contour>
        <pt x="514" y="670" on="1"/>
        <pt x="37" y="1493" on="1"/>
        <pt x="252" y="1493" on="1"/>
        <pt x="616" y="834" on="1"/>
        <pt x="979" y="1493" on="1"/>
        <pt x="1196" y="1493" on="1"/>
        <pt x="717" y="670" on="1"/>
        <pt x="717" y="0" on="1"/>
        <pt x="514" y="0" on="1"/>
      </contour>
    </TTGlyph>
    <TTGlyph name="uni005A" xMin="110" yMin="0" xMax="1123" yMax="1493">
      <contour>
        <pt x="110" y="154" on="1"/>
        <pt x="869" y="1323" on="1"/>
        <pt x="132" y="1323" on="1"/>
        <pt x="132" y="1493" on="1"/>
        <pt x="1101" y="1493" on="1"/>
        <pt x="1101" y="1339" on="1"/>
        <pt x="321" y="170" on="1"/>
        <pt x="1123" y="170" on="1"/>
        <pt x="1123" y="0" on="1"/>
        <pt x="110" y="0" on="1"/>
      </contour>
    </TTGlyph>
    <TTGlyph name="uni005B" xMin="423" yMin="-270" xMax="847" yMax="1636">
      <contour>
        <pt x="423" y="1636" on="1"/>
        <pt x="847" y="1636" on="1"/>
        <pt x="847" y="1493" on="1"/>
        <pt x="607" y="1493" on="1"/>
        <pt x="607" y="-127" on="1"/>
        <pt x="847" y="-127" on="1"/>
        <pt x="847" y="-270" on="1"/>
        <pt x="423" y="-270" on="1"/>
      </contour>
    </TTGlyph>
    <TTGlyph name="uni005C" xMin="128" yMin="-190" xMax="1105" yMax="1493">
      <contour>
        <pt x="128" y="1493" on="1"/>
        <pt x="319" y="1493" on="1"/>
        <pt x="1105" y="-190" on="1"/>
        <pt x="915" y="-190" on="1"/>
      </contour>
    </TTGlyph>
    <TTGlyph name="uni005D" xMin="386" yMin="-270" xMax="810" yMax="1635">
      <contour>
        <pt x="386" y="-127" on="1"/>
        <pt x="626" y="-127" on="1"/>
        <pt x="626" y="1492" on="1"/>
        <pt x="386" y="1492" on="1"/>
        <pt x="386" y="1635" on="1"/>
        <pt x="810" y="1635" on="1"/>
        <pt x="810" y="-270" on="1"/>
        <pt x="386" y="-270" on="1"/>
      </contour>
    </TTGlyph>
    <TTGlyph name="uni005E" xMin="72" yMin="936" xMax="1161" yMax="1493">
      <contour>
        <pt x="528" y="1493" on="1"/>
        <pt x="705" y="1493" on="1"/>
        <pt x="1161" y="936" on="1"/>
        <pt x="983" y="936" on="1"/>
        <pt x="616" y="1331" on="1"/>
        <pt x="250" y="936" on="1"/>
        <pt x="72" y="936" on="1"/>
      </contour>
    </TTGlyph>
    <TTGlyph name="uni005F" xMin="94" yMin="-310" xMax="1138" yMax="-190">
      <contour>
        <pt x="94" y="-190" on="1"/>
        <pt x="1138" y="-190" on="1"/>
        <pt x="1138" y="-310" on="1"/>
        <pt x="94" y="-310" on="1"/>
      </contour>
    </TTGlyph>
    <TTGlyph name="uni0060" xMin="279" yMin="1262" xMax="758" yMax="1638">
      <contour>
        <pt x="604" y="1262" on="1"/>
        <pt x="279" y="1638" on="1"/>
        <pt x="477" y="1638" on="1"/>
        <pt x="758" y="1262" on="1"/>
      </contour>
    </TTGlyph>
    <TTGlyph name="uni0061" xMin="136" yMin="-29" xMax="1121" yMax="1147">
      <contour>
        <pt x="513" y="-29" on="1"/>
        <pt x="338" y="-29" on="0"/>
        <pt x="238" y="68" on="1"/>
        <pt x="190" y="114" on="0"/>
        <pt x="136" y="239" on="0"/>
        <pt x="136" y="327" on="1"/>
        <pt x="136" y="512" on="0"/>
        <pt x="262" y="610" on="1"/>
        <pt x="386" y="707" on="0"/>
        <pt x="630" y="707" on="1"/>
        <pt x="877" y="707" on="1"/>
        <pt x="877" y="736" on="1"/>
        <pt x="877" y="869" on="0"/>
        <pt x="809" y="931" on="1"/>
        <pt x="743" y="991" on="0"/>
        <pt x="596" y="991" on="1"/>
        <pt x="501" y="991" on="0"/>
        <pt x="405" y="964" on="1"/>
        <pt x="307" y="937" on="0"/>
        <pt x="218" y="885" on="1"/>
        <pt x="218" y="1069" on="1"/>
        <pt x="260" y="1085" on="0"/>
        <pt x="362" y="1117" on="0"/>
        <pt x="414" y="1128" on="1"/>
        <pt x="503" y="1147" on="0"/>
        <pt x="597" y="1147" on="1"/>
        <pt x="734" y="1147" on="0"/>
        <pt x="834" y="1105" on="1"/>
        <pt x="880" y="1085" on="0"/>
        <pt x="963" y="1024" on="0"/>
        <pt x="992" y="984" on="1"/>
        <pt x="1013" y="955" on="0"/>
        <pt x="1039" y="891" on="0"/>
        <pt x="1046" y="860" on="1"/>
        <pt x="1062" y="789" on="0"/>
        <pt x="1062" y="639" on="1"/>
        <pt x="1062" y="410" on="1"/>
        <pt x="1064" y="352" on="0"/>
        <pt x="1066" y="264" on="0"/>
        <pt x="1071" y="226" on="1"/>
        <pt x="1076" y="184" on="0"/>
        <pt x="1089" y="110" on="0"/>
        <pt x="1094" y="91" on="1"/>
        <pt x="1101" y="60" on="0"/>
        <pt x="1119" y="5" on="0"/>
        <pt x="1121" y="0" on="1"/>
        <pt x="936" y="0" on="1"/>
        <pt x="923" y="30" on="0"/>
        <pt x="909" y="87" on="1"/>
        <pt x="904" y="109" on="0"/>
        <pt x="895" y="154" on="0"/>
        <pt x="893" y="170" on="1"/>
        <pt x="864" y="120" on="0"/>
        <pt x="773" y="42" on="0"/>
        <pt x="729" y="19" on="1"/>
        <pt x="636" y="-29" on="0"/>
      </contour>
      <contour>
        <pt x="551" y="125" on="1"/>
        <pt x="702" y="125" on="0"/>
        <pt x="789" y="231" on="1"/>
        <pt x="877" y="338" on="0"/>
        <pt x="877" y="522" on="1"/>
        <pt x="877" y="563" on="1"/>
        <pt x="644" y="563" on="1"/>
        <pt x="485" y="563" on="0"/>
        <pt x="402" y="507" on="1"/>
        <pt x="320" y="451" on="0"/>
        <pt x="320" y="337" on="1"/>
        <pt x="320" y="237" on="0"/>
        <pt x="381" y="181" on="1"/>
        <pt x="410" y="155" on="0"/>
        <pt x="493" y="125" on="0"/>
      </contour>
    </TTGlyph>
    <TTGlyph name="uni0062" xMin="193" yMin="-29" xMax="1112" yMax="1556">
      <contour>
        <pt x="676" y="-29" on="1"/>
        <pt x="578" y="-29" on="0"/>
        <pt x="500" y="15" on="1"/>
        <pt x="424" y="58" on="0"/>
        <pt x="377" y="141" on="1"/>
        <pt x="359" y="0" on="1"/>
        <pt x="193" y="0" on="1"/>
        <pt x="193" y="1556" on="1"/>
        <pt x="377" y="1556" on="1"/>
        <pt x="377" y="977" on="1"/>
        <pt x="421" y="1060" on="0"/>
        <pt x="499" y="1103" on="1"/>
        <pt x="576" y="1147" on="0"/>
        <pt x="680" y="1147" on="1"/>
        <pt x="776" y="1147" on="0"/>
        <pt x="937" y="1071" on="0"/>
        <pt x="996" y="993" on="1"/>
        <pt x="1112" y="836" on="0"/>
        <pt x="1112" y="561" on="1"/>
        <pt x="1112" y="287" on="0"/>
        <pt x="996" y="129" on="1"/>
        <pt x="881" y="-29" on="0"/>
      </contour>
      <contour>
        <pt x="650" y="127" on="1"/>
        <pt x="783" y="127" on="0"/>
        <pt x="850" y="236" on="1"/>
        <pt x="918" y="346" on="0"/>
        <pt x="918" y="559" on="1"/>
        <pt x="918" y="772" on="0"/>
        <pt x="850" y="882" on="1"/>
        <pt x="783" y="991" on="0"/>
        <pt x="649" y="991" on="1"/>
        <pt x="515" y="991" on="0"/>
        <pt x="446" y="882" on="1"/>
        <pt x="377" y="772" on="0"/>
        <pt x="377" y="559" on="1"/>
        <pt x="377" y="346" on="0"/>
        <pt x="446" y="237" on="1"/>
        <pt x="515" y="127" on="0"/>
      </contour>
    </TTGlyph>
    <TTGlyph name="uni0063" xMin="164" yMin="-29" xMax="1030" yMax="1147">
      <contour>
        <pt x="712" y="-29" on="1"/>
        <pt x="455" y="-29" on="0"/>
        <pt x="310" y="127" on="1"/>
        <pt x="164" y="284" on="0"/>
        <pt x="164" y="559" on="1"/>
        <pt x="164" y="702" on="0"/>
        <pt x="241" y="918" on="0"/>
        <pt x="311" y="992" on="1"/>
        <pt x="459" y="1147" on="0"/>
        <pt x="713" y="1147" on="1"/>
        <pt x="804" y="1147" on="0"/>
        <pt x="875" y="1126" on="1"/>
        <pt x="948" y="1106" on="0"/>
        <pt x="1030" y="1061" on="1"/>
        <pt x="1030" y="868" on="1"/>
        <pt x="954" y="935" on="0"/>
        <pt x="884" y="962" on="1"/>
        <pt x="808" y="991" on="0"/>
        <pt x="718" y="991" on="1"/>
        <pt x="544" y="991" on="0"/>
        <pt x="451" y="879" on="1"/>
        <pt x="358" y="766" on="0"/>
        <pt x="358" y="560" on="1"/>
        <pt x="358" y="464" on="0"/>
        <pt x="401" y="300" on="0"/>
        <pt x="451" y="240" on="1"/>
        <pt x="546" y="127" on="0"/>
        <pt x="721" y="127" on="1"/>
        <pt x="771" y="127" on="0"/>
        <pt x="854" y="143" on="0"/>
        <pt x="889" y="157" on="1"/>
        <pt x="934" y="174" on="0"/>
        <pt x="999" y="219" on="0"/>
        <pt x="1030" y="248" on="1"/>
        <pt x="1030" y="57" on="1"/>
        <pt x="996" y="37" on="0"/>
        <pt x="916" y="3" on="0"/>
        <pt x="878" y="-8" on="1"/>
        <pt x="843" y="-18" on="0"/>
        <pt x="760" y="-29" on="0"/>
      </contour>
    </TTGlyph>
    <TTGlyph name="uni0064" xMin="123" yMin="-29" xMax="1042" yMax="1556">
      <contour>
        <pt x="559" y="-29" on="1"/>
        <pt x="453" y="-29" on="0"/>
        <pt x="293" y="55" on="0"/>
        <pt x="239" y="129" on="1"/>
        <pt x="123" y="287" on="0"/>
        <pt x="123" y="562" on="1"/>
        <pt x="123" y="834" on="0"/>
        <pt x="358" y="1147" on="0"/>
        <pt x="559" y="1147" on="1"/>
        <pt x="661" y="1147" on="0"/>
        <pt x="737" y="1104" on="1"/>
        <pt x="814" y="1060" on="0"/>
        <pt x="858" y="977" on="1"/>
        <pt x="858" y="1556" on="1"/>
        <pt x="1042" y="1556" on="1"/>
        <pt x="1042" y="0" on="1"/>
        <pt x="876" y="0" on="1"/>
        <pt x="858" y="141" on="1"/>
        <pt x="835" y="101" on="0"/>
        <pt x="777" y="38" on="0"/>
        <pt x="736" y="15" on="1"/>
        <pt x="659" y="-29" on="0"/>
      </contour>
      <contour>
        <pt x="585" y="127" on="1"/>
        <pt x="720" y="127" on="0"/>
        <pt x="789" y="237" on="1"/>
        <pt x="858" y="346" on="0"/>
        <pt x="858" y="559" on="1"/>
        <pt x="858" y="772" on="0"/>
        <pt x="789" y="882" on="1"/>
        <pt x="757" y="933" on="0"/>
        <pt x="657" y="991" on="0"/>
        <pt x="586" y="991" on="1"/>
        <pt x="452" y="991" on="0"/>
        <pt x="385" y="882" on="1"/>
        <pt x="317" y="772" on="0"/>
        <pt x="317" y="559" on="1"/>
        <pt x="317" y="346" on="0"/>
        <pt x="385" y="236" on="1"/>
        <pt x="420" y="179" on="0"/>
        <pt x="522" y="127" on="0"/>
      </contour>
    </TTGlyph>
    <TTGlyph name="uni0065" xMin="124" yMin="-29" xMax="1113" yMax="1147">
      <contour>
        <pt x="677" y="-29" on="1"/>
        <pt x="418" y="-29" on="0"/>
        <pt x="124" y="284" on="0"/>
        <pt x="124" y="558" on="1"/>
        <pt x="124" y="699" on="0"/>
        <pt x="200" y="912" on="0"/>
        <pt x="267" y="987" on="1"/>
        <pt x="340" y="1068" on="0"/>
        <pt x="536" y="1147" on="0"/>
        <pt x="649" y="1147" on="1"/>
        <pt x="868" y="1147" on="0"/>
        <pt x="1113" y="860" on="0"/>
        <pt x="1113" y="606" on="1"/>
        <pt x="1113" y="516" on="1"/>
        <pt x="316" y="516" on="1"/>
        <pt x="316" y="510" on="1"/>
        <pt x="316" y="328" on="0"/>
        <pt x="412" y="227" on="1"/>
        <pt x="458" y="179" on="0"/>
        <pt x="589" y="127" on="0"/>
        <pt x="680" y="127" on="1"/>
        <pt x="772" y="127" on="0"/>
        <pt x="865" y="155" on="1"/>
        <pt x="914" y="169" on="0"/>
        <pt x="1016" y="212" on="0"/>
        <pt x="1070" y="240" on="1"/>
        <pt x="1070" y="57" on="1"/>
        <pt x="967" y="15" on="0"/>
        <pt x="868" y="-8" on="1"/>
        <pt x="820" y="-19" on="0"/>
        <pt x="724" y="-29" on="0"/>
      </contour>
      <contour>
        <pt x="929" y="660" on="1"/>
        <pt x="927" y="746" on="0"/>
        <pt x="886" y="869" on="0"/>
        <pt x="853" y="907" on="1"/>
        <pt x="781" y="991" on="0"/>
        <pt x="645" y="991" on="1"/>
        <pt x="510" y="991" on="0"/>
        <pt x="425" y="903" on="1"/>
        <pt x="340" y="815" on="0"/>
        <pt x="323" y="659" on="1"/>
      </contour>
    </TTGlyph>
    <TTGlyph name="uni0066" xMin="167" yMin="0" xMax="1035" yMax="1556">
      <contour>
        <pt x="466" y="977" on="1"/>
        <pt x="167" y="977" on="1"/>
        <pt x="167" y="1120" on="1"/>
        <pt x="466" y="1120" on="1"/>
        <pt x="466" y="1198" on="1"/>
        <pt x="466" y="1384" on="0"/>
        <pt x="551" y="1469" on="1"/>
        <pt x="635" y="1556" on="0"/>
        <pt x="814" y="1556" on="1"/>
        <pt x="1035" y="1556" on="1"/>
        <pt x="1035" y="1403" on="1"/>
        <pt x="826" y="1403" on="1"/>
        <pt x="772" y="1403" on="0"/>
        <pt x="707" y="1382" on="0"/>
        <pt x="689" y="1363" on="1"/>
        <pt x="650" y="1322" on="0"/>
        <pt x="650" y="1219" on="1"/>
        <pt x="650" y="1120" on="1"/>
        <pt x="1035" y="1120" on="1"/>
        <pt x="1035" y="977" on="1"/>
        <pt x="650" y="977" on="1"/>
        <pt x="650" y="0" on="1"/>
        <pt x="466" y="0" on="1"/>
      </contour>
    </TTGlyph>
    <TTGlyph name="uni0067" xMin="151" yMin="-440" xMax="1070" yMax="1147">
      <contour>
        <pt x="601" y="-440" on="1"/>
        <pt x="562" y="-440" on="0"/>
        <pt x="484" y="-433" on="0"/>
        <pt x="442" y="-426" on="1"/>
        <pt x="363" y="-413" on="0"/>
        <pt x="276" y="-385" on="1"/>
        <pt x="276" y="-203" on="1"/>
        <pt x="325" y="-226" on="0"/>
        <pt x="416" y="-260" on="0"/>
        <pt x="454" y="-271" on="1"/>
        <pt x="530" y="-293" on="0"/>
        <pt x="605" y="-293" on="1"/>
        <pt x="749" y="-293" on="0"/>
        <pt x="818" y="-211" on="1"/>
        <pt x="886" y="-131" on="0"/>
        <pt x="886" y="45" on="1"/>
        <pt x="886" y="178" on="1"/>
        <pt x="842" y="84" on="0"/>
        <pt x="766" y="38" on="1"/>
        <pt x="690" y="-8" on="0"/>
        <pt x="582" y="-8" on="1"/>
        <pt x="385" y="-8" on="0"/>
        <pt x="268" y="149" on="1"/>
        <pt x="151" y="306" on="0"/>
        <pt x="151" y="569" on="1"/>
        <pt x="151" y="832" on="0"/>
        <pt x="268" y="990" on="1"/>
        <pt x="386" y="1147" on="0"/>
        <pt x="583" y="1147" on="1"/>
        <pt x="688" y="1147" on="0"/>
        <pt x="764" y="1104" on="1"/>
        <pt x="838" y="1062" on="0"/>
        <pt x="886" y="971" on="1"/>
        <pt x="904" y="1116" on="1"/>
        <pt x="1070" y="1116" on="1"/>
        <pt x="1070" y="72" on="1"/>
        <pt x="1070" y="-179" on="0"/>
        <pt x="951" y="-310" on="1"/>
        <pt x="833" y="-440" on="0"/>
      </contour>
      <contour>
        <pt x="622" y="145" on="1"/>
        <pt x="752" y="145" on="0"/>
        <pt x="886" y="363" on="0"/>
        <pt x="886" y="569" on="1"/>
        <pt x="886" y="778" on="0"/>
        <pt x="819" y="884" on="1"/>
        <pt x="784" y="941" on="0"/>
        <pt x="683" y="991" on="0"/>
        <pt x="621" y="991" on="1"/>
        <pt x="487" y="991" on="0"/>
        <pt x="345" y="777" on="0"/>
        <pt x="345" y="568" on="1"/>
        <pt x="345" y="363" on="0"/>
        <pt x="489" y="145" on="0"/>
      </contour>
    </TTGlyph>
    <TTGlyph name="uni0068" xMin="195" yMin="0" xMax="1051" yMax="1556">
      <contour>
        <pt x="195" y="1556" on="1"/>
        <pt x="379" y="1556" on="1"/>
        <pt x="379" y="952" on="1"/>
        <pt x="480" y="1147" on="0"/>
        <pt x="710" y="1147" on="1"/>
        <pt x="800" y="1147" on="0"/>
        <pt x="926" y="1089" on="0"/>
        <pt x="967" y="1035" on="1"/>
        <pt x="1051" y="922" on="0"/>
        <pt x="1051" y="694" on="1"/>
        <pt x="1051" y="0" on="1"/>
        <pt x="866" y="0" on="1"/>
        <pt x="866" y="694" on="1"/>
        <pt x="866" y="845" on="0"/>
        <pt x="760" y="987" on="0"/>
        <pt x="646" y="987" on="1"/>
        <pt x="517" y="987" on="0"/>
        <pt x="449" y="896" on="1"/>
        <pt x="379" y="805" on="0"/>
        <pt x="379" y="633" on="1"/>
        <pt x="379" y="0" on="1"/>
        <pt x="195" y="0" on="1"/>
      </contour>
    </TTGlyph>
    <TTGlyph name="uni0069" xMin="268" yMin="-8" xMax="1092" yMax="1556">
      <contour>
        <pt x="523" y="1323" on="1"/>
        <pt x="493" y="1323" on="0"/>
        <pt x="493" y="1353" on="1"/>
        <pt x="493" y="1526" on="1"/>
        <pt x="493" y="1556" on="0"/>
        <pt x="523" y="1556" on="1"/>
        <pt x="667" y="1556" on="1"/>
        <pt x="697" y="1556" on="0"/>
        <pt x="697" y="1526" on="1"/>
        <pt x="697" y="1353" on="1"/>
        <pt x="697" y="1323" on="0"/>
        <pt x="667" y="1323" on="1"/>
      </contour>
      <contour>
        <pt x="859" y="-8" on="1"/>
        <pt x="779" y="-8" on="0"/>
        <pt x="652" y="42" on="0"/>
        <pt x="604" y="98" on="1"/>
        <pt x="513" y="204" on="0"/>
        <pt x="513" y="398" on="1"/>
        <pt x="513" y="976" on="1"/>
        <pt x="268" y="976" on="1"/>
        <pt x="268" y="1120" on="1"/>
        <pt x="697" y="1120" on="1"/>
        <pt x="697" y="398" on="1"/>
        <pt x="697" y="272" on="0"/>
        <pt x="743" y="211" on="1"/>
        <pt x="789" y="148" on="0"/>
        <pt x="877" y="148" on="1"/>
        <pt x="1092" y="148" on="1"/>
        <pt x="1092" y="-8" on="1"/>
      </contour>
    </TTGlyph>
    <TTGlyph name="uni006A" xMin="238" yMin="-426" xMax="836" yMax="1556">
      <contour>
        <pt x="652" y="1323" on="1"/>
        <pt x="622" y="1323" on="0"/>
        <pt x="622" y="1353" on="1"/>
        <pt x="622" y="1526" on="1"/>
        <pt x="622" y="1556" on="0"/>
        <pt x="652" y="1556" on="1"/>
        <pt x="796" y="1556" on="1"/>
        <pt x="826" y="1556" on="0"/>
        <pt x="826" y="1526" on="1"/>
        <pt x="826" y="1353" on="1"/>
        <pt x="826" y="1323" on="0"/>
        <pt x="796" y="1323" on="1"/>
      </contour>
      <contour>
        <pt x="238" y="-270" on="1"/>
        <pt x="472" y="-270" on="1"/>
        <pt x="562" y="-270" on="0"/>
        <pt x="607" y="-208" on="1"/>
        <pt x="652" y="-145" on="0"/>
        <pt x="652" y="-20" on="1"/>
        <pt x="652" y="977" on="1"/>
        <pt x="335" y="977" on="1"/>
        <pt x="335" y="1120" on="1"/>
        <pt x="836" y="1120" on="1"/>
        <pt x="836" y="-20" on="1"/>
        <pt x="836" y="-214" on="0"/>
        <pt x="657" y="-426" on="0"/>
        <pt x="492" y="-426" on="1"/>
        <pt x="238" y="-426" on="1"/>
      </contour>
    </TTGlyph>
    <TTGlyph name="uni006B" xMin="226" yMin="0" xMax="1192" yMax="1556">
      <contour>
        <pt x="226" y="1556" on="1"/>
        <pt x="416" y="1556" on="1"/>
        <pt x="416" y="655" on="1"/>
        <pt x="899" y="1120" on="1"/>
        <pt x="1123" y="1120" on="1"/>
        <pt x="682" y="698" on="1"/>
        <pt x="1192" y="0" on="1"/>
        <pt x="967" y="0" on="1"/>
        <pt x="553" y="578" on="1"/>
        <pt x="416" y="449" on="1"/>
        <pt x="416" y="0" on="1"/>
        <pt x="226" y="0" on="1"/>
      </contour>
    </TTGlyph>
    <TTGlyph name="uni006C" xMin="180" yMin="-8" xMax="1054" yMax="1556">
      <contour>
        <pt x="821" y="-8" on="1"/>
        <pt x="741" y="-8" on="0"/>
        <pt x="614" y="42" on="0"/>
        <pt x="566" y="98" on="1"/>
        <pt x="475" y="204" on="0"/>
        <pt x="475" y="398" on="1"/>
        <pt x="475" y="1412" on="1"/>
        <pt x="180" y="1412" on="1"/>
        <pt x="180" y="1556" on="1"/>
        <pt x="659" y="1556" on="1"/>
        <pt x="659" y="398" on="1"/>
        <pt x="659" y="272" on="0"/>
        <pt x="705" y="211" on="1"/>
        <pt x="751" y="148" on="0"/>
        <pt x="839" y="148" on="1"/>
        <pt x="1054" y="148" on="1"/>
        <pt x="1054" y="-8" on="1"/>
      </contour>
    </TTGlyph>
    <TTGlyph name="uni006D" xMin="109" yMin="0" xMax="1135" yMax="1147">
      <contour>
        <pt x="109" y="1120" on="1"/>
        <pt x="260" y="1120" on="1"/>
        <pt x="276" y="1024" on="1"/>
        <pt x="309" y="1084" on="0"/>
        <pt x="359" y="1116" on="1"/>
        <pt x="408" y="1147" on="0"/>
        <pt x="472" y="1147" on="1"/>
        <pt x="545" y="1147" on="0"/>
        <pt x="598" y="1112" on="1"/>
        <pt x="648" y="1077" on="0"/>
        <pt x="676" y="1006" on="1"/>
        <pt x="744" y="1147" on="0"/>
        <pt x="889" y="1147" on="1"/>
        <pt x="1026" y="1147" on="0"/>
        <pt x="1080" y="1043" on="1"/>
        <pt x="1135" y="940" on="0"/>
        <pt x="1135" y="649" on="1"/>
        <pt x="1135" y="0" on="1"/>
        <pt x="967" y="0" on="1"/>
        <pt x="967" y="641" on="1"/>
        <pt x="967" y="768" on="0"/>
        <pt x="954" y="905" on="0"/>
        <pt x="940" y="936" on="1"/>
        <pt x="929" y="962" on="0"/>
        <pt x="883" y="993" on="0"/>
        <pt x="841" y="993" on="1"/>
        <pt x="764" y="993" on="0"/>
        <pt x="736" y="932" on="1"/>
        <pt x="719" y="897" on="0"/>
        <pt x="705" y="760" on="0"/>
        <pt x="705" y="641" on="1"/>
        <pt x="705" y="0" on="1"/>
        <pt x="537" y="0" on="1"/>
        <pt x="537" y="641" on="1"/>
        <pt x="537" y="787" on="0"/>
        <pt x="520" y="911" on="0"/>
        <pt x="508" y="937" on="1"/>
        <pt x="481" y="993" on="0"/>
        <pt x="407" y="993" on="1"/>
        <pt x="365" y="993" on="0"/>
        <pt x="318" y="960" on="0"/>
        <pt x="306" y="933" on="1"/>
        <pt x="292" y="903" on="0"/>
        <pt x="276" y="772" on="0"/>
        <pt x="276" y="641" on="1"/>
        <pt x="276" y="0" on="1"/>
        <pt x="109" y="0" on="1"/>
      </contour>
    </TTGlyph>
    <TTGlyph name="uni006E" xMin="195" yMin="0" xMax="1051" yMax="1147">
      <contour>
        <pt x="195" y="1120" on="1"/>
        <pt x="361" y="1120" on="1"/>
        <pt x="379" y="952" on="1"/>
        <pt x="480" y="1147" on="0"/>
        <pt x="710" y="1147" on="1"/>
        <pt x="800" y="1147" on="0"/>
        <pt x="926" y="1089" on="0"/>
        <pt x="967" y="1035" on="1"/>
        <pt x="1051" y="922" on="0"/>
        <pt x="1051" y="694" on="1"/>
        <pt x="1051" y="0" on="1"/>
        <pt x="866" y="0" on="1"/>
        <pt x="866" y="694" on="1"/>
        <pt x="866" y="845" on="0"/>
        <pt x="760" y="987" on="0"/>
        <pt x="646" y="987" on="1"/>
        <pt x="517" y="987" on="0"/>
        <pt x="449" y="896" on="1"/>
        <pt x="379" y="805" on="0"/>
        <pt x="379" y="633" on="1"/>
        <pt x="379" y="0" on="1"/>
        <pt x="195" y="0" on="1"/>
      </contour>
    </TTGlyph>
    <TTGlyph name="uni006F" xMin="137" yMin="-29" xMax="1096" yMax="1147">
      <contour>
        <pt x="616" y="-29" on="1"/>
        <pt x="384" y="-29" on="0"/>
        <pt x="260" y="121" on="1"/>
        <pt x="197" y="199" on="0"/>
        <pt x="137" y="420" on="0"/>
        <pt x="137" y="560" on="1"/>
        <pt x="137" y="844" on="0"/>
        <pt x="260" y="996" on="1"/>
        <pt x="383" y="1147" on="0"/>
        <pt x="616" y="1147" on="1"/>
        <pt x="851" y="1147" on="0"/>
        <pt x="973" y="996" on="1"/>
        <pt x="1096" y="844" on="0"/>
        <pt x="1096" y="561" on="1"/>
        <pt x="1096" y="269" on="0"/>
        <pt x="973" y="121" on="1"/>
        <pt x="852" y="-29" on="0"/>
      </contour>
      <contour>
        <pt x="616" y="127" on="1"/>
        <pt x="757" y="127" on="0"/>
        <pt x="829" y="237" on="1"/>
        <pt x="901" y="346" on="0"/>
        <pt x="901" y="559" on="1"/>
        <pt x="901" y="772" on="0"/>
        <pt x="829" y="882" on="1"/>
        <pt x="757" y="991" on="0"/>
        <pt x="616" y="991" on="1"/>
        <pt x="476" y="991" on="0"/>
        <pt x="404" y="882" on="1"/>
        <pt x="332" y="772" on="0"/>
        <pt x="332" y="559" on="1"/>
        <pt x="332" y="346" on="0"/>
        <pt x="404" y="237" on="1"/>
        <pt x="476" y="127" on="0"/>
      </contour>
    </TTGlyph>
    <TTGlyph name="uni0070" xMin="190" yMin="-426" xMax="1108" yMax="1147">
      <contour>
        <pt x="190" y="1120" on="1"/>
        <pt x="357" y="1120" on="1"/>
        <pt x="375" y="977" on="1"/>
        <pt x="471" y="1147" on="0"/>
        <pt x="675" y="1147" on="1"/>
        <pt x="877" y="1147" on="0"/>
        <pt x="1108" y="832" on="0"/>
        <pt x="1108" y="557" on="1"/>
        <pt x="1108" y="282" on="0"/>
        <pt x="992" y="127" on="1"/>
        <pt x="876" y="-29" on="0"/>
        <pt x="674" y="-29" on="1"/>
        <pt x="617" y="-29" on="0"/>
        <pt x="533" y="-6" on="0"/>
        <pt x="496" y="15" on="1"/>
        <pt x="419" y="60" on="0"/>
        <pt x="375" y="141" on="1"/>
        <pt x="375" y="-426" on="1"/>
        <pt x="190" y="-426" on="1"/>
      </contour>
      <contour>
        <pt x="647" y="127" on="1"/>
        <pt x="915" y="127" on="0"/>
        <pt x="915" y="559" on="1"/>
        <pt x="915" y="991" on="0"/>
        <pt x="647" y="991" on="1"/>
        <pt x="513" y="991" on="0"/>
        <pt x="444" y="882" on="1"/>
        <pt x="375" y="772" on="0"/>
        <pt x="375" y="559" on="1"/>
        <pt x="375" y="346" on="0"/>
        <pt x="444" y="237" on="1"/>
        <pt x="513" y="127" on="0"/>
      </contour>
    </TTGlyph>
    <TTGlyph name="uni0071" xMin="137" yMin="-430" xMax="1055" yMax="1143">
      <contour>
        <pt x="870" y="139" on="1"/>
        <pt x="848" y="99" on="0"/>
        <pt x="790" y="35" on="0"/>
        <pt x="749" y="12" on="1"/>
        <pt x="672" y="-33" on="0"/>
        <pt x="569" y="-33" on="1"/>
        <pt x="474" y="-33" on="0"/>
        <pt x="313" y="43" on="0"/>
        <pt x="253" y="123" on="1"/>
        <pt x="200" y="194" on="0"/>
        <pt x="137" y="404" on="0"/>
        <pt x="137" y="551" on="1"/>
        <pt x="137" y="685" on="0"/>
        <pt x="194" y="907" on="0"/>
        <pt x="253" y="987" on="1"/>
        <pt x="368" y="1143" on="0"/>
        <pt x="570" y="1143" on="1"/>
        <pt x="672" y="1143" on="0"/>
        <pt x="748" y="1100" on="1"/>
        <pt x="823" y="1057" on="0"/>
        <pt x="870" y="973" on="1"/>
        <pt x="888" y="1116" on="1"/>
        <pt x="1055" y="1116" on="1"/>
        <pt x="1055" y="-430" on="1"/>
        <pt x="870" y="-430" on="1"/>
      </contour>
      <contour>
        <pt x="599" y="123" on="1"/>
        <pt x="733" y="123" on="0"/>
        <pt x="802" y="233" on="1"/>
        <pt x="870" y="343" on="0"/>
        <pt x="870" y="555" on="1"/>
        <pt x="870" y="768" on="0"/>
        <pt x="802" y="878" on="1"/>
        <pt x="734" y="987" on="0"/>
        <pt x="600" y="987" on="1"/>
        <pt x="467" y="987" on="0"/>
        <pt x="400" y="878" on="1"/>
        <pt x="332" y="768" on="0"/>
        <pt x="332" y="555" on="1"/>
        <pt x="332" y="342" on="0"/>
        <pt x="400" y="232" on="1"/>
        <pt x="467" y="123" on="0"/>
      </contour>
    </TTGlyph>
    <TTGlyph name="uni0072" xMin="302" yMin="0" xMax="1095" yMax="1147">
      <contour>
        <pt x="302" y="1120" on="1"/>
        <pt x="469" y="1120" on="1"/>
        <pt x="487" y="901" on="1"/>
        <pt x="533" y="1019" on="0"/>
        <pt x="629" y="1084" on="1"/>
        <pt x="724" y="1147" on="0"/>
        <pt x="854" y="1147" on="1"/>
        <pt x="920" y="1147" on="0"/>
        <pt x="982" y="1130" on="1"/>
        <pt x="1043" y="1113" on="0"/>
        <pt x="1095" y="1077" on="1"/>
        <pt x="1095" y="889" on="1"/>
        <pt x="1039" y="935" on="0"/>
        <pt x="975" y="956" on="1"/>
        <pt x="914" y="977" on="0"/>
        <pt x="840" y="977" on="1"/>
        <pt x="670" y="977" on="0"/>
        <pt x="578" y="869" on="1"/>
        <pt x="487" y="763" on="0"/>
        <pt x="487" y="557" on="1"/>
        <pt x="487" y="0" on="1"/>
        <pt x="302" y="0" on="1"/>
      </contour>
    </TTGlyph>
    <TTGlyph name="uni0073" xMin="213" yMin="-29" xMax="1030" yMax="1147">
      <contour>
        <pt x="590" y="-29" on="1"/>
        <pt x="498" y="-29" on="0"/>
        <pt x="410" y="-12" on="1"/>
        <pt x="371" y="-4" on="0"/>
        <pt x="266" y="24" on="0"/>
        <pt x="213" y="41" on="1"/>
        <pt x="213" y="231" on="1"/>
        <pt x="277" y="199" on="0"/>
        <pt x="367" y="164" on="0"/>
        <pt x="410" y="152" on="1"/>
        <pt x="456" y="139" on="0"/>
        <pt x="542" y="125" on="0"/>
        <pt x="588" y="125" on="1"/>
        <pt x="709" y="125" on="0"/>
        <pt x="777" y="175" on="1"/>
        <pt x="812" y="201" on="0"/>
        <pt x="844" y="271" on="0"/>
        <pt x="844" y="307" on="1"/>
        <pt x="844" y="377" on="0"/>
        <pt x="726" y="464" on="0"/>
        <pt x="599" y="490" on="1"/>
        <pt x="591" y="492" on="1"/>
        <pt x="522" y="506" on="1"/>
        <pt x="447" y="521" on="0"/>
        <pt x="330" y="571" on="0"/>
        <pt x="290" y="611" on="1"/>
        <pt x="217" y="684" on="0"/>
        <pt x="217" y="812" on="1"/>
        <pt x="217" y="974" on="0"/>
        <pt x="326" y="1060" on="1"/>
        <pt x="383" y="1106" on="0"/>
        <pt x="541" y="1147" on="0"/>
        <pt x="639" y="1147" on="1"/>
        <pt x="729" y="1147" on="0"/>
        <pt x="810" y="1131" on="1"/>
        <pt x="848" y="1123" on="0"/>
        <pt x="931" y="1098" on="0"/>
        <pt x="973" y="1081" on="1"/>
        <pt x="973" y="901" on="1"/>
        <pt x="894" y="948" on="0"/>
        <pt x="814" y="970" on="1"/>
        <pt x="733" y="993" on="0"/>
        <pt x="647" y="993" on="1"/>
        <pt x="526" y="993" on="0"/>
        <pt x="465" y="953" on="1"/>
        <pt x="403" y="912" on="0"/>
        <pt x="403" y="828" on="1"/>
        <pt x="409" y="790" on="0"/>
        <pt x="423" y="737" on="0"/>
        <pt x="472" y="698" on="0"/>
        <pt x="579" y="664" on="0"/>
        <pt x="678" y="645" on="1"/>
        <pt x="752" y="631" on="1"/>
        <pt x="893" y="603" on="0"/>
        <pt x="960" y="527" on="1"/>
        <pt x="1030" y="451" on="0"/>
        <pt x="1030" y="323" on="1"/>
        <pt x="1030" y="237" on="0"/>
        <pt x="969" y="110" on="0"/>
        <pt x="912" y="65" on="1"/>
        <pt x="851" y="17" on="0"/>
        <pt x="688" y="-29" on="0"/>
      </contour>
    </TTGlyph>
    <TTGlyph name="uni0074" xMin="131" yMin="-4" xMax="1032" yMax="1493">
      <contour>
        <pt x="807" y="-4" on="1"/>
        <pt x="601" y="-4" on="0"/>
        <pt x="515" y="79" on="1"/>
        <pt x="430" y="161" on="0"/>
        <pt x="430" y="365" on="1"/>
        <pt x="430" y="977" on="1"/>
        <pt x="131" y="977" on="1"/>
        <pt x="131" y="1120" on="1"/>
        <pt x="430" y="1120" on="1"/>
        <pt x="430" y="1413" on="1"/>
        <pt x="614" y="1493" on="1"/>
        <pt x="614" y="1120" on="1"/>
        <pt x="1032" y="1120" on="1"/>
        <pt x="1032" y="977" on="1"/>
        <pt x="614" y="977" on="1"/>
        <pt x="614" y="365" on="1"/>
        <pt x="614" y="242" on="0"/>
        <pt x="661" y="192" on="1"/>
        <pt x="707" y="143" on="0"/>
        <pt x="825" y="143" on="1"/>
        <pt x="1032" y="143" on="1"/>
        <pt x="1032" y="-4" on="1"/>
      </contour>
    </TTGlyph>
    <TTGlyph name="uni0075" xMin="195" yMin="-29" xMax="1051" yMax="1118">
      <contour>
        <pt x="534" y="-29" on="1"/>
        <pt x="363" y="-29" on="0"/>
        <pt x="279" y="84" on="1"/>
        <pt x="195" y="196" on="0"/>
        <pt x="195" y="424" on="1"/>
        <pt x="195" y="1118" on="1"/>
        <pt x="379" y="1118" on="1"/>
        <pt x="379" y="424" on="1"/>
        <pt x="379" y="272" on="0"/>
        <pt x="433" y="202" on="1"/>
        <pt x="459" y="168" on="0"/>
        <pt x="538" y="131" on="0"/>
        <pt x="598" y="131" on="1"/>
        <pt x="728" y="131" on="0"/>
        <pt x="797" y="223" on="1"/>
        <pt x="866" y="314" on="0"/>
        <pt x="866" y="485" on="1"/>
        <pt x="866" y="1118" on="1"/>
        <pt x="1051" y="1118" on="1"/>
        <pt x="1051" y="0" on="1"/>
        <pt x="884" y="0" on="1"/>
        <pt x="866" y="168" on="1"/>
        <pt x="817" y="71" on="0"/>
        <pt x="733" y="21" on="1"/>
        <pt x="647" y="-29" on="0"/>
      </contour>
    </TTGlyph>
    <TTGlyph name="uni0076" xMin="100" yMin="0" xMax="1133" yMax="1120">
      <contour>
        <pt x="100" y="1120" on="1"/>
        <pt x="291" y="1120" on="1"/>
        <pt x="616" y="180" on="1"/>
        <pt x="942" y="1120" on="1"/>
        <pt x="1133" y="1120" on="1"/>
        <pt x="735" y="0" on="1"/>
        <pt x="498" y="0" on="1"/>
      </contour>
    </TTGlyph>
    <TTGlyph name="uni0077" xMin="0" yMin="0" xMax="1233" yMax="1120">
      <contour>
        <pt x="0" y="1120" on="1"/>
        <pt x="182" y="1120" on="1"/>
        <pt x="377" y="215" on="1"/>
        <pt x="537" y="793" on="1"/>
        <pt x="694" y="793" on="1"/>
        <pt x="856" y="215" on="1"/>
        <pt x="1051" y="1120" on="1"/>
        <pt x="1233" y="1120" on="1"/>
        <pt x="971" y="0" on="1"/>
        <pt x="795" y="0" on="1"/>
        <pt x="616" y="614" on="1"/>
        <pt x="438" y="0" on="1"/>
        <pt x="262" y="0" on="1"/>
      </contour>
    </TTGlyph>
    <TTGlyph name="uni0078" xMin="76" yMin="0" xMax="1157" yMax="1120">
      <contour>
        <pt x="516" y="584" on="1"/>
        <pt x="115" y="1120" on="1"/>
        <pt x="319" y="1120" on="1"/>
        <pt x="616" y="715" on="1"/>
        <pt x="911" y="1120" on="1"/>
        <pt x="1118" y="1120" on="1"/>
        <pt x="717" y="584" on="1"/>
        <pt x="1157" y="0" on="1"/>
        <pt x="944" y="0" on="1"/>
        <pt x="616" y="449" on="1"/>
        <pt x="289" y="0" on="1"/>
        <pt x="76" y="0" on="1"/>
      </contour>
    </TTGlyph>
    <TTGlyph name="uni0079" xMin="104" yMin="-426" xMax="1153" yMax="1120">
      <contour>
        <pt x="184" y="-272" on="1"/>
        <pt x="293" y="-272" on="1"/>
        <pt x="338" y="-272" on="0"/>
        <pt x="400" y="-245" on="0"/>
        <pt x="420" y="-225" on="1"/>
        <pt x="442" y="-202" on="0"/>
        <pt x="498" y="-90" on="0"/>
        <pt x="537" y="18" on="1"/>
        <pt x="104" y="1120" on="1"/>
        <pt x="299" y="1120" on="1"/>
        <pt x="631" y="244" on="1"/>
        <pt x="958" y="1120" on="1"/>
        <pt x="1153" y="1120" on="1"/>
        <pt x="858" y="360" on="1"/>
        <pt x="830" y="286" on="0"/>
        <pt x="801" y="213" on="0"/>
        <pt x="787" y="179" on="0"/>
        <pt x="778" y="154" on="0"/>
        <pt x="760" y="105" on="0"/>
        <pt x="741" y="52" on="1"/>
        <pt x="701" y="-56" on="0"/>
        <pt x="649" y="-183" on="0"/>
        <pt x="618" y="-250" on="0"/>
        <pt x="608" y="-268" on="1"/>
        <pt x="586" y="-306" on="0"/>
        <pt x="532" y="-365" on="0"/>
        <pt x="493" y="-387" on="1"/>
        <pt x="424" y="-426" on="0"/>
        <pt x="332" y="-426" on="1"/>
        <pt x="184" y="-426" on="1"/>
      </contour>
    </TTGlyph>
    <TTGlyph name="uni007A" xMin="203" yMin="0" xMax="1040" yMax="1122">
      <contour>
        <pt x="203" y="170" on="1"/>
        <pt x="846" y="975" on="1"/>
        <pt x="227" y="975" on="1"/>
        <pt x="227" y="1122" on="1"/>
        <pt x="1040" y="1122" on="1"/>
        <pt x="1040" y="954" on="1"/>
        <pt x="397" y="150" on="1"/>
        <pt x="1040" y="150" on="1"/>
        <pt x="1040" y="0" on="1"/>
        <pt x="203" y="0" on="1"/>
      </contour>
    </TTGlyph>
    <TTGlyph name="uni007B" xMin="127" yMin="-253" xMax="972" yMax="1637">
      <contour>
        <pt x="908" y="-253" on="1"/>
        <pt x="661" y="-253" on="0"/>
        <pt x="575" y="-179" on="1"/>
        <pt x="490" y="-106" on="0"/>
        <pt x="490" y="116" on="1"/>
        <pt x="490" y="355" on="1"/>
        <pt x="490" y="505" on="0"/>
        <pt x="437" y="564" on="1"/>
        <pt x="383" y="622" on="0"/>
        <pt x="243" y="622" on="1"/>
        <pt x="127" y="622" on="1"/>
        <pt x="127" y="765" on="1"/>
        <pt x="243" y="765" on="1"/>
        <pt x="384" y="765" on="0"/>
        <pt x="437" y="822" on="1"/>
        <pt x="490" y="881" on="0"/>
        <pt x="490" y="1029" on="1"/>
        <pt x="490" y="1269" on="1"/>
        <pt x="490" y="1491" on="0"/>
        <pt x="575" y="1564" on="1"/>
        <pt x="657" y="1637" on="0"/>
        <pt x="908" y="1637" on="1"/>
        <pt x="972" y="1637" on="1"/>
        <pt x="972" y="1494" on="1"/>
        <pt x="902" y="1494" on="1"/>
        <pt x="762" y="1494" on="0"/>
        <pt x="720" y="1451" on="1"/>
        <pt x="677" y="1408" on="0"/>
        <pt x="677" y="1265" on="1"/>
        <pt x="677" y="1017" on="1"/>
        <pt x="677" y="860" on="0"/>
        <pt x="632" y="789" on="1"/>
        <pt x="586" y="718" on="0"/>
        <pt x="476" y="693" on="1"/>
        <pt x="587" y="666" on="0"/>
        <pt x="677" y="524" on="0"/>
        <pt x="677" y="368" on="1"/>
        <pt x="677" y="120" on="1"/>
        <pt x="677" y="-23" on="0"/>
        <pt x="720" y="-66" on="1"/>
        <pt x="762" y="-109" on="0"/>
        <pt x="902" y="-109" on="1"/>
        <pt x="972" y="-109" on="1"/>
        <pt x="972" y="-253" on="1"/>
      </contour>
    </TTGlyph>
    <TTGlyph name="uni007C" xMin="530" yMin="-483" xMax="702" yMax="1565">
      <contour>
        <pt x="530" y="1565" on="1"/>
        <pt x="702" y="1565" on="1"/>
        <pt x="702" y="-483" on="1"/>
        <pt x="530" y="-483" on="1"/>
      </contour>
    </TTGlyph>
    <TTGlyph name="uni007D" xMin="261" yMin="-262" xMax="1112" yMax="1628">
      <contour>
        <pt x="261" y="-118" on="1"/>
        <pt x="329" y="-118" on="1"/>
        <pt x="469" y="-118" on="0"/>
        <pt x="513" y="-74" on="1"/>
        <pt x="556" y="-31" on="0"/>
        <pt x="556" y="111" on="1"/>
        <pt x="556" y="359" on="1"/>
        <pt x="556" y="515" on="0"/>
        <pt x="646" y="657" on="0"/>
        <pt x="757" y="684" on="1"/>
        <pt x="647" y="710" on="0"/>
        <pt x="602" y="780" on="1"/>
        <pt x="580" y="814" on="0"/>
        <pt x="556" y="923" on="0"/>
        <pt x="556" y="1008" on="1"/>
        <pt x="556" y="1256" on="1"/>
        <pt x="556" y="1398" on="0"/>
        <pt x="513" y="1441" on="1"/>
        <pt x="469" y="1485" on="0"/>
        <pt x="329" y="1485" on="1"/>
        <pt x="261" y="1485" on="1"/>
        <pt x="261" y="1628" on="1"/>
        <pt x="323" y="1628" on="1"/>
        <pt x="574" y="1628" on="0"/>
        <pt x="656" y="1555" on="1"/>
        <pt x="740" y="1482" on="0"/>
        <pt x="740" y="1260" on="1"/>
        <pt x="740" y="1020" on="1"/>
        <pt x="740" y="942" on="0"/>
        <pt x="782" y="843" on="0"/>
        <pt x="824" y="813" on="1"/>
        <pt x="864" y="784" on="0"/>
        <pt x="979" y="756" on="0"/>
        <pt x="1048" y="756" on="1"/>
        <pt x="1112" y="756" on="1"/>
        <pt x="1112" y="613" on="1"/>
        <pt x="1048" y="613" on="1"/>
        <pt x="901" y="613" on="0"/>
        <pt x="824" y="555" on="1"/>
        <pt x="782" y="524" on="0"/>
        <pt x="740" y="424" on="0"/>
        <pt x="740" y="346" on="1"/>
        <pt x="740" y="107" on="1"/>
        <pt x="740" y="-114" on="0"/>
        <pt x="656" y="-188" on="1"/>
        <pt x="570" y="-262" on="0"/>
        <pt x="323" y="-262" on="1"/>
        <pt x="261" y="-262" on="1"/>
      </contour>
    </TTGlyph>
    <TTGlyph name="uni007E" xMin="84" yMin="354" xMax="1151" yMax="844">
      <contour>
        <pt x="1151" y="840" on="1"/>
        <pt x="1147" y="728" on="0"/>
        <pt x="1120" y="564" on="0"/>
        <pt x="1083" y="499" on="1"/>
        <pt x="1011" y="354" on="0"/>
        <pt x="846" y="354" on="1"/>
        <pt x="767" y="354" on="0"/>
        <pt x="709" y="388" on="1"/>
        <pt x="657" y="421" on="0"/>
        <pt x="583" y="522" on="1"/>
        <pt x="504" y="632" on="0"/>
        <pt x="468" y="659" on="1"/>
        <pt x="427" y="688" on="0"/>
        <pt x="391" y="688" on="1"/>
        <pt x="314" y="688" on="0"/>
        <pt x="282" y="616" on="1"/>
        <pt x="248" y="532" on="0"/>
        <pt x="240" y="361" on="1"/>
        <pt x="84" y="361" on="1"/>
        <pt x="88" y="568" on="0"/>
        <pt x="152" y="701" on="1"/>
        <pt x="235" y="844" on="0"/>
        <pt x="386" y="844" on="1"/>
        <pt x="459" y="844" on="0"/>
        <pt x="518" y="809" on="1"/>
        <pt x="548" y="791" on="0"/>
        <pt x="617" y="724" on="0"/>
        <pt x="649" y="679" on="1"/>
        <pt x="704" y="604" on="0"/>
        <pt x="754" y="554" on="1"/>
        <pt x="796" y="510" on="0"/>
        <pt x="842" y="510" on="1"/>
        <pt x="922" y="510" on="0"/>
        <pt x="993" y="673" on="0"/>
        <pt x="995" y="840" on="1"/>
      </contour>
    </TTGlyph>
    <TTGlyph name="uni00A1" xMin="464" yMin="-60" xMax="788" yMax="1498">
      <contour>
        <pt x="626" y="1498" on="1"/>
        <pt x="696" y="1498" on="0"/>
        <pt x="742" y="1450" on="1"/>
        <pt x="788" y="1404" on="0"/>
        <pt x="788" y="1325" on="1"/>
        <pt x="788" y="1247" on="0"/>
        <pt x="742" y="1201" on="1"/>
        <pt x="695" y="1154" on="0"/>
        <pt x="626" y="1154" on="1"/>
        <pt x="557" y="1154" on="0"/>
        <pt x="510" y="1201" on="1"/>
        <pt x="464" y="1247" on="0"/>
        <pt x="464" y="1325" on="1"/>
        <pt x="464" y="1404" on="0"/>
        <pt x="510" y="1450" on="1"/>
        <pt x="556" y="1498" on="0"/>
      </contour>
      <contour>
        <pt x="689" y="952" on="1"/>
        <pt x="756" y="385" on="1"/>
        <pt x="756" y="-60" on="1"/>
        <pt x="491" y="-60" on="1"/>
        <pt x="491" y="385" on="1"/>
        <pt x="568" y="952" on="1"/>
      </contour>
    </TTGlyph>
    <TTGlyph name="uni00A1.case" xMin="464" yMin="-60" xMax="788" yMax="1498">
      <contour>
        <pt x="626" y="1498" on="1"/>
        <pt x="696" y="1498" on="0"/>
        <pt x="742" y="1450" on="1"/>
        <pt x="788" y="1404" on="0"/>
        <pt x="788" y="1325" on="1"/>
        <pt x="788" y="1247" on="0"/>
        <pt x="742" y="1201" on="1"/>
        <pt x="695" y="1154" on="0"/>
        <pt x="626" y="1154" on="1"/>
        <pt x="557" y="1154" on="0"/>
        <pt x="510" y="1201" on="1"/>
        <pt x="464" y="1247" on="0"/>
        <pt x="464" y="1325" on="1"/>
        <pt x="464" y="1404" on="0"/>
        <pt x="510" y="1450" on="1"/>
        <pt x="556" y="1498" on="0"/>
      </contour>
      <contour>
        <pt x="689" y="952" on="1"/>
        <pt x="756" y="385" on="1"/>
        <pt x="756" y="-60" on="1"/>
        <pt x="491" y="-60" on="1"/>
        <pt x="491" y="385" on="1"/>
        <pt x="568" y="952" on="1"/>
      </contour>
    </TTGlyph>
    <TTGlyph name="uni00A2" xMin="210" yMin="-313" xMax="1061" yMax="1432">
      <contour>
        <pt x="698" y="-27" on="1"/>
        <pt x="586" y="-16" on="0"/>
        <pt x="410" y="71" on="0"/>
        <pt x="344" y="152" on="1"/>
        <pt x="281" y="229" on="0"/>
        <pt x="210" y="438" on="0"/>
        <pt x="210" y="558" on="1"/>
        <pt x="210" y="680" on="0"/>
        <pt x="283" y="891" on="0"/>
        <pt x="345" y="967" on="1"/>
        <pt x="406" y="1042" on="0"/>
        <pt x="580" y="1134" on="0"/>
        <pt x="698" y="1145" on="1"/>
        <pt x="698" y="1432" on="1"/>
        <pt x="801" y="1432" on="1"/>
        <pt x="801" y="1145" on="1"/>
        <pt x="862" y="1140" on="0"/>
        <pt x="985" y="1111" on="0"/>
        <pt x="1061" y="1077" on="1"/>
        <pt x="1061" y="905" on="1"/>
        <pt x="997" y="943" on="0"/>
        <pt x="929" y="967" on="1"/>
        <pt x="894" y="979" on="0"/>
        <pt x="832" y="991" on="0"/>
        <pt x="801" y="993" on="1"/>
        <pt x="801" y="123" on="1"/>
        <pt x="833" y="125" on="0"/>
        <pt x="897" y="140" on="0"/>
        <pt x="930" y="151" on="1"/>
        <pt x="961" y="162" on="0"/>
        <pt x="1029" y="193" on="0"/>
        <pt x="1061" y="213" on="1"/>
        <pt x="1061" y="41" on="1"/>
        <pt x="1015" y="21" on="0"/>
        <pt x="954" y="1" on="0"/>
        <pt x="923" y="-7" on="1"/>
        <pt x="856" y="-24" on="0"/>
        <pt x="801" y="-27" on="1"/>
        <pt x="801" y="-313" on="1"/>
        <pt x="698" y="-313" on="1"/>
      </contour>
      <contour>
        <pt x="698" y="991" on="1"/>
        <pt x="565" y="979" on="0"/>
        <pt x="486" y="861" on="1"/>
        <pt x="406" y="742" on="0"/>
        <pt x="406" y="559" on="1"/>
        <pt x="406" y="377" on="0"/>
        <pt x="486" y="258" on="1"/>
        <pt x="567" y="140" on="0"/>
        <pt x="698" y="127" on="1"/>
      </contour>
    </TTGlyph>
    <TTGlyph name="uni00A3" xMin="139" yMin="0" xMax="1112" yMax="1520">
      <contour>
        <pt x="139" y="170" on="1"/>
        <pt x="375" y="170" on="1"/>
        <pt x="375" y="635" on="1"/>
        <pt x="176" y="635" on="1"/>
        <pt x="176" y="778" on="1"/>
        <pt x="375" y="778" on="1"/>
        <pt x="375" y="1016" on="1"/>
        <pt x="375" y="1270" on="0"/>
        <pt x="485" y="1395" on="1"/>
        <pt x="594" y="1520" on="0"/>
        <pt x="810" y="1520" on="1"/>
        <pt x="884" y="1520" on="0"/>
        <pt x="951" y="1506" on="1"/>
        <pt x="975" y="1501" on="0"/>
        <pt x="1052" y="1478" on="0"/>
        <pt x="1092" y="1462" on="1"/>
        <pt x="1092" y="1278" on="1"/>
        <pt x="1058" y="1302" on="0"/>
        <pt x="993" y="1335" on="0"/>
        <pt x="967" y="1344" on="1"/>
        <pt x="905" y="1366" on="0"/>
        <pt x="837" y="1366" on="1"/>
        <pt x="702" y="1366" on="0"/>
        <pt x="639" y="1277" on="1"/>
        <pt x="575" y="1189" on="0"/>
        <pt x="575" y="995" on="1"/>
        <pt x="575" y="778" on="1"/>
        <pt x="946" y="778" on="1"/>
        <pt x="946" y="635" on="1"/>
        <pt x="575" y="635" on="1"/>
        <pt x="575" y="170" on="1"/>
        <pt x="1112" y="170" on="1"/>
        <pt x="1112" y="0" on="1"/>
        <pt x="139" y="0" on="1"/>
      </contour>
    </TTGlyph>
    <TTGlyph name="uni00A4" xMin="205" yMin="195" xMax="1100" yMax="1090">
      <contour>
        <pt x="205" y="285" on="1"/>
        <pt x="371" y="451" on="1"/>
        <pt x="338" y="505" on="0"/>
        <pt x="311" y="593" on="0"/>
        <pt x="311" y="642" on="1"/>
        <pt x="311" y="693" on="0"/>
        <pt x="327" y="738" on="1"/>
        <pt x="344" y="786" on="0"/>
        <pt x="373" y="829" on="1"/>
        <pt x="205" y="995" on="1"/>
        <pt x="299" y="1090" on="1"/>
        <pt x="465" y="922" on="1"/>
        <pt x="511" y="953" on="0"/>
        <pt x="557" y="968" on="1"/>
        <pt x="602" y="983" on="0"/>
        <pt x="651" y="983" on="1"/>
        <pt x="742" y="983" on="0"/>
        <pt x="844" y="924" on="1"/>
        <pt x="1010" y="1090" on="1"/>
        <pt x="1100" y="997" on="1"/>
        <pt x="934" y="831" on="1"/>
        <pt x="967" y="776" on="0"/>
        <pt x="979" y="736" on="1"/>
        <pt x="993" y="691" on="0"/>
        <pt x="993" y="640" on="1"/>
        <pt x="993" y="591" on="0"/>
        <pt x="978" y="546" on="1"/>
        <pt x="962" y="496" on="0"/>
        <pt x="932" y="455" on="1"/>
        <pt x="1100" y="289" on="1"/>
        <pt x="1006" y="195" on="1"/>
        <pt x="840" y="362" on="1"/>
        <pt x="794" y="331" on="0"/>
        <pt x="749" y="316" on="1"/>
        <pt x="702" y="301" on="0"/>
        <pt x="652" y="301" on="1"/>
        <pt x="557" y="301" on="0"/>
        <pt x="461" y="358" on="1"/>
        <pt x="297" y="195" on="1"/>
      </contour>
      <contour>
        <pt x="653" y="426" on="1"/>
        <pt x="744" y="426" on="0"/>
        <pt x="806" y="488" on="1"/>
        <pt x="868" y="552" on="0"/>
        <pt x="868" y="643" on="1"/>
        <pt x="868" y="734" on="0"/>
        <pt x="807" y="795" on="1"/>
        <pt x="746" y="856" on="0"/>
        <pt x="653" y="856" on="1"/>
        <pt x="562" y="856" on="0"/>
        <pt x="501" y="796" on="1"/>
        <pt x="438" y="736" on="0"/>
        <pt x="438" y="642" on="1"/>
        <pt x="438" y="554" on="0"/>
        <pt x="500" y="489" on="1"/>
        <pt x="563" y="426" on="0"/>
      </contour>
    </TTGlyph>
    <TTGlyph name="uni00A5" xMin="37" yMin="0" xMax="1196" yMax="1493">
      <contour>
        <pt x="514" y="524" on="1"/>
        <pt x="115" y="524" on="1"/>
        <pt x="115" y="635" on="1"/>
        <pt x="514" y="635" on="1"/>
        <pt x="514" y="670" on="1"/>
        <pt x="424" y="821" on="1"/>
        <pt x="115" y="821" on="1"/>
        <pt x="115" y="932" on="1"/>
        <pt x="358" y="932" on="1"/>
        <pt x="37" y="1493" on="1"/>
        <pt x="252" y="1493" on="1"/>
        <pt x="616" y="834" on="1"/>
        <pt x="979" y="1493" on="1"/>
        <pt x="1196" y="1493" on="1"/>
        <pt x="866" y="932" on="1"/>
        <pt x="1118" y="932" on="1"/>
        <pt x="1118" y="821" on="1"/>
        <pt x="803" y="821" on="1"/>
        <pt x="717" y="670" on="1"/>
        <pt x="717" y="635" on="1"/>
        <pt x="1118" y="635" on="1"/>
        <pt x="1118" y="524" on="1"/>
        <pt x="717" y="524" on="1"/>
        <pt x="717" y="0" on="1"/>
        <pt x="514" y="0" on="1"/>
      </contour>
    </TTGlyph>
    <TTGlyph name="uni00A6" xMin="530" yMin="-350" xMax="702" yMax="1432">
      <contour>
        <pt x="530" y="1432" on="1"/>
        <pt x="702" y="1432" on="1"/>
        <pt x="702" y="674" on="1"/>
        <pt x="530" y="674" on="1"/>
      </contour>
      <contour>
        <pt x="530" y="408" on="1"/>
        <pt x="702" y="408" on="1"/>
        <pt x="702" y="-350" on="1"/>
        <pt x="530" y="-350" on="1"/>
      </contour>
    </TTGlyph>
    <TTGlyph name="uni00A7" xMin="199" yMin="-195" xMax="1036" yMax="1520">
      <contour>
        <pt x="595" y="-195" on="1"/>
        <pt x="556" y="-195" on="0"/>
        <pt x="476" y="-187" on="0"/>
        <pt x="444" y="-181" on="1"/>
        <pt x="408" y="-174" on="0"/>
        <pt x="323" y="-151" on="0"/>
        <pt x="279" y="-137" on="1"/>
        <pt x="279" y="27" on="1"/>
        <pt x="454" y="-51" on="0"/>
        <pt x="573" y="-51" on="1"/>
        <pt x="674" y="-51" on="0"/>
        <pt x="730" y="-9" on="1"/>
        <pt x="786" y="33" on="0"/>
        <pt x="786" y="103" on="1"/>
        <pt x="786" y="163" on="0"/>
        <pt x="680" y="267" on="0"/>
        <pt x="565" y="334" on="1"/>
        <pt x="541" y="348" on="1"/>
        <pt x="441" y="406" on="0"/>
        <pt x="305" y="496" on="0"/>
        <pt x="263" y="545" on="1"/>
        <pt x="199" y="621" on="0"/>
        <pt x="199" y="724" on="1"/>
        <pt x="199" y="812" on="0"/>
        <pt x="246" y="886" on="1"/>
        <pt x="293" y="957" on="0"/>
        <pt x="383" y="1006" on="1"/>
        <pt x="322" y="1050" on="0"/>
        <pt x="294" y="1106" on="1"/>
        <pt x="264" y="1163" on="0"/>
        <pt x="264" y="1230" on="1"/>
        <pt x="264" y="1364" on="0"/>
        <pt x="364" y="1442" on="1"/>
        <pt x="416" y="1483" on="0"/>
        <pt x="554" y="1520" on="0"/>
        <pt x="629" y="1520" on="1"/>
        <pt x="667" y="1520" on="0"/>
        <pt x="748" y="1512" on="0"/>
        <pt x="780" y="1506" on="1"/>
        <pt x="851" y="1492" on="0"/>
        <pt x="936" y="1462" on="1"/>
        <pt x="936" y="1298" on="1"/>
        <pt x="771" y="1376" on="0"/>
        <pt x="651" y="1376" on="1"/>
        <pt x="600" y="1376" on="0"/>
        <pt x="528" y="1355" on="0"/>
        <pt x="503" y="1336" on="1"/>
        <pt x="476" y="1316" on="0"/>
        <pt x="449" y="1259" on="0"/>
        <pt x="449" y="1232" on="1"/>
        <pt x="449" y="1183" on="0"/>
        <pt x="544" y="1082" on="0"/>
        <pt x="653" y="1020" on="1"/>
        <pt x="694" y="997" on="1"/>
        <pt x="814" y="931" on="0"/>
        <pt x="938" y="838" on="0"/>
        <pt x="970" y="801" on="1"/>
        <pt x="1036" y="724" on="0"/>
        <pt x="1036" y="622" on="1"/>
        <pt x="1036" y="534" on="0"/>
        <pt x="991" y="463" on="1"/>
        <pt x="944" y="392" on="0"/>
        <pt x="852" y="340" on="1"/>
        <pt x="912" y="288" on="0"/>
        <pt x="942" y="234" on="1"/>
        <pt x="956" y="208" on="0"/>
        <pt x="971" y="149" on="0"/>
        <pt x="971" y="111" on="1"/>
        <pt x="971" y="-27" on="0"/>
        <pt x="869" y="-111" on="1"/>
        <pt x="767" y="-195" on="0"/>
      </contour>
      <contour>
        <pt x="750" y="410" on="1"/>
        <pt x="813" y="457" on="0"/>
        <pt x="842" y="500" on="1"/>
        <pt x="872" y="545" on="0"/>
        <pt x="872" y="592" on="1"/>
        <pt x="872" y="633" on="0"/>
        <pt x="833" y="707" on="0"/>
        <pt x="801" y="736" on="1"/>
        <pt x="728" y="805" on="0"/>
        <pt x="485" y="936" on="1"/>
        <pt x="422" y="889" on="0"/>
        <pt x="393" y="846" on="1"/>
        <pt x="379" y="825" on="0"/>
        <pt x="362" y="781" on="0"/>
        <pt x="362" y="753" on="1"/>
        <pt x="362" y="678" on="0"/>
        <pt x="434" y="611" on="1"/>
        <pt x="473" y="574" on="0"/>
        <pt x="616" y="482" on="0"/>
      </contour>
    </TTGlyph>
    <TTGlyph name="uni00A8" xMin="319" yMin="1350" xMax="913" yMax="1552">
      <contour>
        <pt x="492" y="1552" on="1"/>
        <pt x="522" y="1552" on="0"/>
        <pt x="522" y="1522" on="1"/>
        <pt x="522" y="1380" on="1"/>
        <pt x="522" y="1350" on="0"/>
        <pt x="492" y="1350" on="1"/>
        <pt x="349" y="1350" on="1"/>
        <pt x="319" y="1350" on="0"/>
        <pt x="319" y="1380" on="1"/>
        <pt x="319" y="1522" on="1"/>
        <pt x="319" y="1552" on="0"/>
        <pt x="349" y="1552" on="1"/>
      </contour>
      <contour>
        <pt x="883" y="1552" on="1"/>
        <pt x="913" y="1552" on="0"/>
        <pt x="913" y="1522" on="1"/>
        <pt x="913" y="1380" on="1"/>
        <pt x="913" y="1350" on="0"/>
        <pt x="883" y="1350" on="1"/>
        <pt x="741" y="1350" on="1"/>
        <pt x="711" y="1350" on="0"/>
        <pt x="711" y="1380" on="1"/>
        <pt x="711" y="1522" on="1"/>
        <pt x="711" y="1552" on="0"/>
        <pt x="741" y="1552" on="1"/>
      </contour>
    </TTGlyph>
    <TTGlyph name="uni00A9" xMin="0" yMin="125" xMax="1233" yMax="1358">
      <contour>
        <pt x="616" y="125" on="1"/>
        <pt x="363" y="125" on="0"/>
        <pt x="181" y="307" on="1"/>
        <pt x="94" y="394" on="0"/>
        <pt x="46" y="507" on="1"/>
        <pt x="0" y="614" on="0"/>
        <pt x="0" y="741" on="1"/>
        <pt x="0" y="870" on="0"/>
        <pt x="46" y="977" on="1"/>
        <pt x="94" y="1089" on="0"/>
        <pt x="182" y="1178" on="1"/>
        <pt x="268" y="1267" on="0"/>
        <pt x="381" y="1313" on="1"/>
        <pt x="490" y="1358" on="0"/>
        <pt x="616" y="1358" on="1"/>
        <pt x="742" y="1358" on="0"/>
        <pt x="852" y="1313" on="1"/>
        <pt x="909" y="1290" on="0"/>
        <pt x="1009" y="1221" on="0"/>
        <pt x="1051" y="1178" on="1"/>
        <pt x="1100" y="1128" on="0"/>
        <pt x="1167" y="1025" on="0"/>
        <pt x="1187" y="977" on="1"/>
        <pt x="1233" y="870" on="0"/>
        <pt x="1233" y="742" on="1"/>
        <pt x="1233" y="614" on="0"/>
        <pt x="1188" y="508" on="1"/>
        <pt x="1166" y="456" on="0"/>
        <pt x="1097" y="352" on="0"/>
        <pt x="1052" y="307" on="1"/>
        <pt x="1010" y="265" on="0"/>
        <pt x="908" y="195" on="0"/>
        <pt x="851" y="171" on="1"/>
        <pt x="744" y="125" on="0"/>
      </contour>
      <contour>
        <pt x="617" y="227" on="1"/>
        <pt x="719" y="227" on="0"/>
        <pt x="812" y="265" on="1"/>
        <pt x="906" y="306" on="0"/>
        <pt x="979" y="378" on="1"/>
        <pt x="1013" y="412" on="0"/>
        <pt x="1074" y="500" on="0"/>
        <pt x="1093" y="546" on="1"/>
        <pt x="1130" y="633" on="0"/>
        <pt x="1130" y="741" on="1"/>
        <pt x="1130" y="846" on="0"/>
        <pt x="1092" y="939" on="1"/>
        <pt x="1054" y="1030" on="0"/>
        <pt x="979" y="1106" on="1"/>
        <pt x="904" y="1181" on="0"/>
        <pt x="814" y="1218" on="1"/>
        <pt x="725" y="1255" on="0"/>
        <pt x="616" y="1255" on="1"/>
        <pt x="507" y="1255" on="0"/>
        <pt x="420" y="1218" on="1"/>
        <pt x="328" y="1180" on="0"/>
        <pt x="254" y="1106" on="1"/>
        <pt x="178" y="1030" on="0"/>
        <pt x="141" y="939" on="1"/>
        <pt x="102" y="846" on="0"/>
        <pt x="102" y="742" on="1"/>
        <pt x="102" y="637" on="0"/>
        <pt x="141" y="546" on="1"/>
        <pt x="165" y="489" on="0"/>
        <pt x="225" y="408" on="0"/>
        <pt x="254" y="379" on="1"/>
        <pt x="329" y="304" on="0"/>
        <pt x="421" y="265" on="1"/>
        <pt x="512" y="227" on="0"/>
      </contour>
      <contour>
        <pt x="638" y="369" on="1"/>
        <pt x="456" y="369" on="0"/>
        <pt x="250" y="569" on="0"/>
        <pt x="250" y="741" on="1"/>
        <pt x="250" y="914" on="0"/>
        <pt x="354" y="1016" on="1"/>
        <pt x="459" y="1116" on="0"/>
        <pt x="638" y="1116" on="1"/>
        <pt x="694" y="1116" on="0"/>
        <pt x="755" y="1105" on="1"/>
        <pt x="807" y="1095" on="0"/>
        <pt x="864" y="1071" on="1"/>
        <pt x="864" y="963" on="1"/>
        <pt x="806" y="991" on="0"/>
        <pt x="751" y="1005" on="1"/>
        <pt x="723" y="1012" on="0"/>
        <pt x="666" y="1018" on="0"/>
        <pt x="641" y="1018" on="1"/>
        <pt x="584" y="1018" on="0"/>
        <pt x="488" y="983" on="0"/>
        <pt x="453" y="945" on="1"/>
        <pt x="385" y="871" on="0"/>
        <pt x="385" y="739" on="1"/>
        <pt x="385" y="610" on="0"/>
        <pt x="524" y="467" on="0"/>
        <pt x="657" y="467" on="1"/>
        <pt x="770" y="467" on="0"/>
        <pt x="864" y="518" on="1"/>
        <pt x="864" y="414" on="1"/>
        <pt x="759" y="369" on="0"/>
      </contour>
    </TTGlyph>
    <TTGlyph name="uni00AA" xMin="270" yMin="469" xMax="961" yMax="1520">
      <contour>
        <pt x="547" y="698" on="1"/>
        <pt x="422" y="698" on="0"/>
        <pt x="345" y="766" on="1"/>
        <pt x="270" y="834" on="0"/>
        <pt x="270" y="949" on="1"/>
        <pt x="270" y="1078" on="0"/>
        <pt x="363" y="1149" on="1"/>
        <pt x="457" y="1219" on="0"/>
        <pt x="629" y="1219" on="1"/>
        <pt x="811" y="1219" on="1"/>
        <pt x="811" y="1223" on="1"/>
        <pt x="811" y="1314" on="0"/>
        <pt x="751" y="1359" on="1"/>
        <pt x="716" y="1385" on="0"/>
        <pt x="628" y="1405" on="0"/>
        <pt x="583" y="1405" on="1"/>
        <pt x="522" y="1405" on="0"/>
        <pt x="462" y="1388" on="1"/>
        <pt x="398" y="1369" on="0"/>
        <pt x="332" y="1337" on="1"/>
        <pt x="332" y="1464" on="1"/>
        <pt x="400" y="1493" on="0"/>
        <pt x="468" y="1506" on="1"/>
        <pt x="502" y="1513" on="0"/>
        <pt x="565" y="1520" on="0"/>
        <pt x="603" y="1520" on="1"/>
        <pt x="779" y="1520" on="0"/>
        <pt x="867" y="1434" on="1"/>
        <pt x="954" y="1350" on="0"/>
        <pt x="954" y="1165" on="1"/>
        <pt x="954" y="717" on="1"/>
        <pt x="825" y="717" on="1"/>
        <pt x="811" y="829" on="1"/>
        <pt x="761" y="764" on="0"/>
        <pt x="697" y="731" on="1"/>
        <pt x="634" y="698" on="0"/>
      </contour>
      <contour>
        <pt x="576" y="817" on="1"/>
        <pt x="680" y="817" on="0"/>
        <pt x="746" y="889" on="1"/>
        <pt x="811" y="960" on="0"/>
        <pt x="811" y="1075" on="1"/>
        <pt x="811" y="1104" on="1"/>
        <pt x="684" y="1104" on="1"/>
        <pt x="539" y="1104" on="0"/>
        <pt x="478" y="1070" on="1"/>
        <pt x="416" y="1035" on="0"/>
        <pt x="416" y="958" on="1"/>
        <pt x="416" y="922" on="0"/>
        <pt x="440" y="873" on="0"/>
        <pt x="460" y="856" on="1"/>
        <pt x="504" y="817" on="0"/>
      </contour>
      <contour>
        <pt x="293" y="592" on="1"/>
        <pt x="961" y="592" on="1"/>
        <pt x="961" y="469" on="1"/>
        <pt x="293" y="469" on="1"/>
      </contour>
    </TTGlyph>
    <TTGlyph name="uni00AB" xMin="79" yMin="141" xMax="1002" yMax="1059">
      <contour>
        <pt x="79" y="559" on="1"/>
        <pt x="79" y="641" on="1"/>
        <pt x="548" y="1059" on="1"/>
        <pt x="548" y="868" on="1"/>
        <pt x="247" y="600" on="1"/>
        <pt x="548" y="332" on="1"/>
        <pt x="548" y="141" on="1"/>
      </contour>
      <contour>
        <pt x="533" y="559" on="1"/>
        <pt x="533" y="641" on="1"/>
        <pt x="1002" y="1059" on="1"/>
        <pt x="1002" y="868" on="1"/>
        <pt x="701" y="600" on="1"/>
        <pt x="1002" y="332" on="1"/>
        <pt x="1002" y="141" on="1"/>
      </contour>
    </TTGlyph>
    <TTGlyph name="uni00AC" xMin="88" yMin="371" xMax="1145" yMax="862">
      <contour>
        <pt x="977" y="690" on="1"/>
        <pt x="88" y="690" on="1"/>
        <pt x="88" y="862" on="1"/>
        <pt x="1145" y="862" on="1"/>
        <pt x="1145" y="371" on="1"/>
        <pt x="977" y="371" on="1"/>
      </contour>
    </TTGlyph>
    <TTGlyph name="uni00AD" xMin="356" yMin="479" xMax="877" yMax="643">
      <contour>
        <pt x="356" y="643" on="1"/>
        <pt x="877" y="643" on="1"/>
        <pt x="877" y="479" on="1"/>
        <pt x="356" y="479" on="1"/>
      </contour>
    </TTGlyph>
    <TTGlyph name="uni00AE" xMin="0" yMin="125" xMax="1233" yMax="1358">
      <contour>
        <pt x="616" y="125" on="1"/>
        <pt x="363" y="125" on="0"/>
        <pt x="181" y="307" on="1"/>
        <pt x="94" y="394" on="0"/>
        <pt x="46" y="507" on="1"/>
        <pt x="0" y="614" on="0"/>
        <pt x="0" y="741" on="1"/>
        <pt x="0" y="870" on="0"/>
        <pt x="46" y="977" on="1"/>
        <pt x="94" y="1089" on="0"/>
        <pt x="182" y="1178" on="1"/>
        <pt x="268" y="1267" on="0"/>
        <pt x="381" y="1313" on="1"/>
        <pt x="490" y="1358" on="0"/>
        <pt x="616" y="1358" on="1"/>
        <pt x="742" y="1358" on="0"/>
        <pt x="852" y="1313" on="1"/>
        <pt x="909" y="1290" on="0"/>
        <pt x="1009" y="1221" on="0"/>
        <pt x="1051" y="1178" on="1"/>
        <pt x="1100" y="1128" on="0"/>
        <pt x="1167" y="1025" on="0"/>
        <pt x="1187" y="977" on="1"/>
        <pt x="1233" y="870" on="0"/>
        <pt x="1233" y="742" on="1"/>
        <pt x="1233" y="614" on="0"/>
        <pt x="1188" y="508" on="1"/>
        <pt x="1166" y="456" on="0"/>
        <pt x="1097" y="352" on="0"/>
        <pt x="1052" y="307" on="1"/>
        <pt x="1010" y="265" on="0"/>
        <pt x="908" y="195" on="0"/>
        <pt x="851" y="171" on="1"/>
        <pt x="744" y="125" on="0"/>
      </contour>
      <contour>
        <pt x="617" y="227" on="1"/>
        <pt x="719" y="227" on="0"/>
        <pt x="812" y="265" on="1"/>
        <pt x="906" y="306" on="0"/>
        <pt x="979" y="378" on="1"/>
        <pt x="1013" y="412" on="0"/>
        <pt x="1074" y="500" on="0"/>
        <pt x="1093" y="546" on="1"/>
        <pt x="1130" y="633" on="0"/>
        <pt x="1130" y="741" on="1"/>
        <pt x="1130" y="846" on="0"/>
        <pt x="1092" y="939" on="1"/>
        <pt x="1054" y="1030" on="0"/>
        <pt x="979" y="1106" on="1"/>
        <pt x="904" y="1181" on="0"/>
        <pt x="814" y="1218" on="1"/>
        <pt x="725" y="1255" on="0"/>
        <pt x="616" y="1255" on="1"/>
        <pt x="507" y="1255" on="0"/>
        <pt x="420" y="1218" on="1"/>
        <pt x="328" y="1180" on="0"/>
        <pt x="254" y="1106" on="1"/>
        <pt x="178" y="1030" on="0"/>
        <pt x="141" y="939" on="1"/>
        <pt x="102" y="846" on="0"/>
        <pt x="102" y="742" on="1"/>
        <pt x="102" y="637" on="0"/>
        <pt x="141" y="546" on="1"/>
        <pt x="165" y="489" on="0"/>
        <pt x="225" y="408" on="0"/>
        <pt x="254" y="379" on="1"/>
        <pt x="329" y="304" on="0"/>
        <pt x="421" y="265" on="1"/>
        <pt x="512" y="227" on="0"/>
      </contour>
      <contour>
        <pt x="362" y="1100" on="1"/>
        <pt x="600" y="1100" on="1"/>
        <pt x="749" y="1100" on="0"/>
        <pt x="819" y="1051" on="1"/>
        <pt x="891" y="1002" on="0"/>
        <pt x="891" y="903" on="1"/>
        <pt x="891" y="831" on="0"/>
        <pt x="847" y="784" on="1"/>
        <pt x="803" y="737" on="0"/>
        <pt x="723" y="723" on="1"/>
        <pt x="740" y="719" on="0"/>
        <pt x="771" y="685" on="1"/>
        <pt x="783" y="669" on="0"/>
        <pt x="824" y="614" on="0"/>
        <pt x="838" y="592" on="1"/>
        <pt x="952" y="406" on="1"/>
        <pt x="809" y="406" on="1"/>
        <pt x="702" y="580" on="1"/>
        <pt x="652" y="661" on="0"/>
        <pt x="623" y="681" on="1"/>
        <pt x="594" y="702" on="0"/>
        <pt x="547" y="702" on="1"/>
        <pt x="492" y="702" on="1"/>
        <pt x="492" y="406" on="1"/>
        <pt x="362" y="406" on="1"/>
      </contour>
      <contour>
        <pt x="594" y="784" on="1"/>
        <pt x="684" y="784" on="0"/>
        <pt x="721" y="811" on="1"/>
        <pt x="758" y="838" on="0"/>
        <pt x="758" y="900" on="1"/>
        <pt x="758" y="929" on="0"/>
        <pt x="741" y="976" on="0"/>
        <pt x="721" y="990" on="1"/>
        <pt x="683" y="1016" on="0"/>
        <pt x="594" y="1016" on="1"/>
        <pt x="492" y="1016" on="1"/>
        <pt x="492" y="784" on="1"/>
      </contour>
    </TTGlyph>
    <TTGlyph name="uni00AF" xMin="317" yMin="1378" xMax="915" yMax="1526">
      <contour>
        <pt x="915" y="1378" on="1"/>
        <pt x="317" y="1378" on="1"/>
        <pt x="317" y="1526" on="1"/>
        <pt x="915" y="1526" on="1"/>
      </contour>
    </TTGlyph>
    <TTGlyph name="uni00B0" xMin="299" yMin="885" xMax="934" yMax="1520">
      <contour>
        <pt x="612" y="885" on="1"/>
        <pt x="549" y="885" on="0"/>
        <pt x="433" y="930" on="0"/>
        <pt x="388" y="975" on="1"/>
        <pt x="348" y="1015" on="0"/>
        <pt x="299" y="1129" on="0"/>
        <pt x="299" y="1199" on="1"/>
        <pt x="299" y="1334" on="0"/>
        <pt x="390" y="1427" on="1"/>
        <pt x="480" y="1520" on="0"/>
        <pt x="615" y="1520" on="1"/>
        <pt x="645" y="1520" on="0"/>
        <pt x="710" y="1509" on="0"/>
        <pt x="740" y="1496" on="1"/>
        <pt x="769" y="1484" on="0"/>
        <pt x="823" y="1445" on="0"/>
        <pt x="843" y="1425" on="1"/>
        <pt x="867" y="1400" on="0"/>
        <pt x="902" y="1344" on="0"/>
        <pt x="911" y="1322" on="1"/>
        <pt x="934" y="1265" on="0"/>
        <pt x="934" y="1202" on="1"/>
        <pt x="934" y="1065" on="0"/>
        <pt x="842" y="976" on="1"/>
        <pt x="799" y="934" on="0"/>
        <pt x="680" y="885" on="0"/>
      </contour>
      <contour>
        <pt x="614" y="1012" on="1"/>
        <pt x="655" y="1012" on="0"/>
        <pt x="727" y="1042" on="0"/>
        <pt x="752" y="1067" on="1"/>
        <pt x="781" y="1096" on="0"/>
        <pt x="807" y="1166" on="0"/>
        <pt x="807" y="1201" on="1"/>
        <pt x="807" y="1280" on="0"/>
        <pt x="751" y="1336" on="1"/>
        <pt x="728" y="1359" on="0"/>
        <pt x="658" y="1391" on="0"/>
        <pt x="616" y="1391" on="1"/>
        <pt x="536" y="1391" on="0"/>
        <pt x="482" y="1337" on="1"/>
        <pt x="426" y="1281" on="0"/>
        <pt x="426" y="1199" on="1"/>
        <pt x="426" y="1120" on="0"/>
        <pt x="481" y="1065" on="1"/>
        <pt x="536" y="1012" on="0"/>
      </contour>
    </TTGlyph>
    <TTGlyph name="uni00B1" xMin="88" yMin="0" xMax="1145" yMax="1171">
      <contour>
        <pt x="532" y="672" on="1"/>
        <pt x="88" y="672" on="1"/>
        <pt x="88" y="842" on="1"/>
        <pt x="532" y="842" on="1"/>
        <pt x="532" y="1171" on="1"/>
        <pt x="700" y="1171" on="1"/>
        <pt x="700" y="842" on="1"/>
        <pt x="1145" y="842" on="1"/>
        <pt x="1145" y="672" on="1"/>
        <pt x="700" y="672" on="1"/>
        <pt x="700" y="340" on="1"/>
        <pt x="532" y="340" on="1"/>
      </contour>
      <contour>
        <pt x="88" y="170" on="1"/>
        <pt x="1145" y="170" on="1"/>
        <pt x="1145" y="0" on="1"/>
        <pt x="88" y="0" on="1"/>
      </contour>
    </TTGlyph>
    <TTGlyph name="uni00B2" xMin="322" yMin="1120" xMax="893" yMax="1972">
      <contour>
        <pt x="322" y="1230" on="1"/>
        <pt x="553" y="1456" on="1"/>
        <pt x="615" y="1516" on="0"/>
        <pt x="676" y="1584" on="0"/>
        <pt x="695" y="1614" on="1"/>
        <pt x="735" y="1675" on="0"/>
        <pt x="735" y="1727" on="1"/>
        <pt x="735" y="1787" on="0"/>
        <pt x="635" y="1863" on="0"/>
        <pt x="555" y="1863" on="1"/>
        <pt x="504" y="1863" on="0"/>
        <pt x="448" y="1845" on="1"/>
        <pt x="391" y="1827" on="0"/>
        <pt x="328" y="1791" on="1"/>
        <pt x="328" y="1916" on="1"/>
        <pt x="396" y="1944" on="0"/>
        <pt x="454" y="1958" on="1"/>
        <pt x="516" y="1972" on="0"/>
        <pt x="576" y="1972" on="1"/>
        <pt x="716" y="1972" on="0"/>
        <pt x="801" y="1906" on="1"/>
        <pt x="845" y="1872" on="0"/>
        <pt x="887" y="1784" on="0"/>
        <pt x="887" y="1734" on="1"/>
        <pt x="887" y="1699" on="0"/>
        <pt x="867" y="1644" on="0"/>
        <pt x="850" y="1617" on="1"/>
        <pt x="805" y="1548" on="0"/>
        <pt x="694" y="1439" on="1"/>
        <pt x="483" y="1234" on="1"/>
        <pt x="893" y="1234" on="1"/>
        <pt x="893" y="1120" on="1"/>
        <pt x="322" y="1120" on="1"/>
      </contour>
    </TTGlyph>
    <TTGlyph name="uni00B3" xMin="326" yMin="1109" xMax="924" yMax="1976">
      <contour>
        <pt x="562" y="1109" on="1"/>
        <pt x="527" y="1109" on="0"/>
        <pt x="471" y="1115" on="0"/>
        <pt x="442" y="1120" on="1"/>
        <pt x="410" y="1126" on="0"/>
        <pt x="356" y="1140" on="0"/>
        <pt x="326" y="1150" on="1"/>
        <pt x="326" y="1271" on="1"/>
        <pt x="361" y="1257" on="0"/>
        <pt x="423" y="1238" on="0"/>
        <pt x="452" y="1231" on="1"/>
        <pt x="503" y="1218" on="0"/>
        <pt x="556" y="1218" on="1"/>
        <pt x="653" y="1218" on="0"/>
        <pt x="714" y="1259" on="1"/>
        <pt x="740" y="1277" on="0"/>
        <pt x="772" y="1333" on="0"/>
        <pt x="772" y="1371" on="1"/>
        <pt x="772" y="1441" on="0"/>
        <pt x="717" y="1479" on="1"/>
        <pt x="661" y="1517" on="0"/>
        <pt x="553" y="1517" on="1"/>
        <pt x="487" y="1517" on="1"/>
        <pt x="487" y="1625" on="1"/>
        <pt x="561" y="1625" on="1"/>
        <pt x="653" y="1625" on="0"/>
        <pt x="703" y="1657" on="1"/>
        <pt x="752" y="1688" on="0"/>
        <pt x="752" y="1747" on="1"/>
        <pt x="752" y="1804" on="0"/>
        <pt x="704" y="1836" on="1"/>
        <pt x="657" y="1867" on="0"/>
        <pt x="572" y="1867" on="1"/>
        <pt x="524" y="1867" on="0"/>
        <pt x="469" y="1855" on="1"/>
        <pt x="441" y="1849" on="0"/>
        <pt x="384" y="1831" on="0"/>
        <pt x="354" y="1820" on="1"/>
        <pt x="354" y="1941" on="1"/>
        <pt x="389" y="1949" on="0"/>
        <pt x="453" y="1962" on="0"/>
        <pt x="482" y="1967" on="1"/>
        <pt x="540" y="1976" on="0"/>
        <pt x="592" y="1976" on="1"/>
        <pt x="733" y="1976" on="0"/>
        <pt x="819" y="1917" on="1"/>
        <pt x="903" y="1858" on="0"/>
        <pt x="903" y="1760" on="1"/>
        <pt x="903" y="1689" on="0"/>
        <pt x="859" y="1642" on="1"/>
        <pt x="815" y="1595" on="0"/>
        <pt x="731" y="1576" on="1"/>
        <pt x="826" y="1555" on="0"/>
        <pt x="875" y="1501" on="1"/>
        <pt x="924" y="1449" on="0"/>
        <pt x="924" y="1365" on="1"/>
        <pt x="924" y="1244" on="0"/>
        <pt x="829" y="1176" on="1"/>
        <pt x="734" y="1109" on="0"/>
      </contour>
    </TTGlyph>
    <TTGlyph name="uni00B4" xMin="475" yMin="1262" xMax="954" yMax="1638">
      <contour>
        <pt x="629" y="1262" on="1"/>
        <pt x="475" y="1262" on="1"/>
        <pt x="756" y="1638" on="1"/>
        <pt x="954" y="1638" on="1"/>
      </contour>
    </TTGlyph>
    <TTGlyph name="uni00B5" xMin="165" yMin="-428" xMax="1152" yMax="1120">
      <contour>
        <pt x="165" y="1120" on="1"/>
        <pt x="349" y="1120" on="1"/>
        <pt x="349" y="424" on="1"/>
        <pt x="349" y="346" on="0"/>
        <pt x="381" y="242" on="0"/>
        <pt x="409" y="207" on="1"/>
        <pt x="469" y="131" on="0"/>
        <pt x="582" y="131" on="1"/>
        <pt x="708" y="131" on="0"/>
        <pt x="772" y="216" on="1"/>
        <pt x="836" y="301" on="0"/>
        <pt x="836" y="467" on="1"/>
        <pt x="836" y="1120" on="1"/>
        <pt x="1021" y="1120" on="1"/>
        <pt x="1021" y="256" on="1"/>
        <pt x="1021" y="197" on="0"/>
        <pt x="1037" y="169" on="1"/>
        <pt x="1053" y="141" on="0"/>
        <pt x="1083" y="141" on="1"/>
        <pt x="1093" y="141" on="0"/>
        <pt x="1110" y="146" on="1"/>
        <pt x="1124" y="150" on="0"/>
        <pt x="1152" y="164" on="1"/>
        <pt x="1152" y="16" on="1"/>
        <pt x="1114" y="-6" on="0"/>
        <pt x="1080" y="-18" on="1"/>
        <pt x="1042" y="-29" on="0"/>
        <pt x="1012" y="-29" on="1"/>
        <pt x="950" y="-29" on="0"/>
        <pt x="913" y="11" on="1"/>
        <pt x="875" y="52" on="0"/>
        <pt x="863" y="129" on="1"/>
        <pt x="817" y="48" on="0"/>
        <pt x="751" y="10" on="1"/>
        <pt x="685" y="-29" on="0"/>
        <pt x="594" y="-29" on="1"/>
        <pt x="418" y="-29" on="0"/>
        <pt x="332" y="127" on="1"/>
        <pt x="332" y="-428" on="1"/>
        <pt x="165" y="-428" on="1"/>
      </contour>
    </TTGlyph>
    <TTGlyph name="uni00B6" xMin="106" yMin="-197" xMax="1030" yMax="1493">
      <contour>
        <pt x="557" y="649" on="1"/>
        <pt x="341" y="666" on="0"/>
        <pt x="224" y="777" on="1"/>
        <pt x="167" y="831" on="0"/>
        <pt x="106" y="974" on="0"/>
        <pt x="106" y="1070" on="1"/>
        <pt x="106" y="1261" on="0"/>
        <pt x="237" y="1377" on="1"/>
        <pt x="368" y="1493" on="0"/>
        <pt x="582" y="1493" on="1"/>
        <pt x="1030" y="1493" on="1"/>
        <pt x="1030" y="-197" on="1"/>
        <pt x="889" y="-197" on="1"/>
        <pt x="889" y="1370" on="1"/>
        <pt x="698" y="1370" on="1"/>
        <pt x="698" y="-197" on="1"/>
        <pt x="557" y="-197" on="1"/>
      </contour>
    </TTGlyph>
    <TTGlyph name="uni00B7" xMin="454" yMin="576" xMax="778" yMax="914">
      <contour>
        <pt x="616" y="576" on="1"/>
        <pt x="548" y="576" on="0"/>
        <pt x="454" y="670" on="0"/>
        <pt x="454" y="745" on="1"/>
        <pt x="454" y="820" on="0"/>
        <pt x="548" y="914" on="0"/>
        <pt x="616" y="914" on="1"/>
        <pt x="684" y="914" on="0"/>
        <pt x="778" y="820" on="0"/>
        <pt x="778" y="745" on="1"/>
        <pt x="778" y="670" on="0"/>
        <pt x="684" y="576" on="0"/>
      </contour>
    </TTGlyph>
    <TTGlyph name="uni00B8" xMin="395" yMin="-395" xMax="809" yMax="0">
      <contour>
        <pt x="700" y="0" on="1"/>
        <pt x="754" y="-60" on="0"/>
        <pt x="783" y="-115" on="1"/>
        <pt x="794" y="-138" on="0"/>
        <pt x="809" y="-189" on="0"/>
        <pt x="809" y="-219" on="1"/>
        <pt x="809" y="-304" on="0"/>
        <pt x="749" y="-350" on="1"/>
        <pt x="720" y="-372" on="0"/>
        <pt x="632" y="-395" on="0"/>
        <pt x="570" y="-395" on="1"/>
        <pt x="526" y="-395" on="0"/>
        <pt x="483" y="-389" on="1"/>
        <pt x="437" y="-383" on="0"/>
        <pt x="395" y="-371" on="1"/>
        <pt x="395" y="-240" on="1"/>
        <pt x="464" y="-272" on="0"/>
        <pt x="546" y="-272" on="1"/>
        <pt x="670" y="-272" on="0"/>
        <pt x="670" y="-180" on="1"/>
        <pt x="670" y="-148" on="0"/>
        <pt x="648" y="-105" on="1"/>
        <pt x="626" y="-62" on="0"/>
        <pt x="582" y="0" on="1"/>
      </contour>
    </TTGlyph>
    <TTGlyph name="uni00B9" xMin="344" yMin="1120" xMax="915" yMax="1955">
      <contour>
        <pt x="362" y="1230" on="1"/>
        <pt x="567" y="1230" on="1"/>
        <pt x="567" y="1841" on="1"/>
        <pt x="344" y="1800" on="1"/>
        <pt x="344" y="1916" on="1"/>
        <pt x="573" y="1955" on="1"/>
        <pt x="711" y="1955" on="1"/>
        <pt x="711" y="1230" on="1"/>
        <pt x="915" y="1230" on="1"/>
        <pt x="915" y="1120" on="1"/>
        <pt x="362" y="1120" on="1"/>
      </contour>
    </TTGlyph>
    <TTGlyph name="uni00BA" xMin="244" yMin="469" xMax="989" yMax="1520">
      <contour>
        <pt x="616" y="698" on="1"/>
        <pt x="522" y="698" on="0"/>
        <pt x="390" y="760" on="0"/>
        <pt x="345" y="809" on="1"/>
        <pt x="298" y="860" on="0"/>
        <pt x="244" y="1010" on="0"/>
        <pt x="244" y="1108" on="1"/>
        <pt x="244" y="1295" on="0"/>
        <pt x="345" y="1408" on="1"/>
        <pt x="392" y="1460" on="0"/>
        <pt x="526" y="1520" on="0"/>
        <pt x="617" y="1520" on="1"/>
        <pt x="707" y="1520" on="0"/>
        <pt x="842" y="1460" on="0"/>
        <pt x="889" y="1407" on="1"/>
        <pt x="989" y="1295" on="0"/>
        <pt x="989" y="1108" on="1"/>
        <pt x="989" y="922" on="0"/>
        <pt x="889" y="810" on="1"/>
        <pt x="842" y="758" on="0"/>
        <pt x="707" y="698" on="0"/>
      </contour>
      <contour>
        <pt x="616" y="815" on="1"/>
        <pt x="718" y="815" on="0"/>
        <pt x="776" y="893" on="1"/>
        <pt x="803" y="929" on="0"/>
        <pt x="834" y="1037" on="0"/>
        <pt x="834" y="1110" on="1"/>
        <pt x="834" y="1247" on="0"/>
        <pt x="777" y="1325" on="1"/>
        <pt x="750" y="1362" on="0"/>
        <pt x="671" y="1403" on="0"/>
        <pt x="617" y="1403" on="1"/>
        <pt x="514" y="1403" on="0"/>
        <pt x="457" y="1326" on="1"/>
        <pt x="399" y="1247" on="0"/>
        <pt x="399" y="1108" on="1"/>
        <pt x="399" y="968" on="0"/>
        <pt x="457" y="891" on="1"/>
        <pt x="515" y="815" on="0"/>
      </contour>
      <contour>
        <pt x="276" y="592" on="1"/>
        <pt x="952" y="592" on="1"/>
        <pt x="952" y="469" on="1"/>
        <pt x="276" y="469" on="1"/>
      </contour>
    </TTGlyph>
    <TTGlyph name="uni00BB" xMin="231" yMin="141" xMax="1154" yMax="1059">
      <contour>
        <pt x="231" y="332" on="1"/>
        <pt x="532" y="600" on="1"/>
        <pt x="231" y="868" on="1"/>
        <pt x="231" y="1059" on="1"/>
        <pt x="700" y="641" on="1"/>
        <pt x="700" y="559" on="1"/>
        <pt x="231" y="141" on="1"/>
      </contour>
      <contour>
        <pt x="685" y="332" on="1"/>
        <pt x="986" y="600" on="1"/>
        <pt x="685" y="868" on="1"/>
        <pt x="685" y="1059" on="1"/>
        <pt x="1154" y="641" on="1"/>
        <pt x="1154" y="559" on="1"/>
        <pt x="685" y="141" on="1"/>
      </contour>
    </TTGlyph>
    <TTGlyph name="uni00BC" xMin="27" yMin="-270" xMax="1114" yMax="1659">
      <contour>
        <pt x="104" y="934" on="1"/>
        <pt x="309" y="934" on="1"/>
        <pt x="309" y="1545" on="1"/>
        <pt x="86" y="1504" on="1"/>
        <pt x="86" y="1620" on="1"/>
        <pt x="315" y="1659" on="1"/>
        <pt x="453" y="1659" on="1"/>
        <pt x="453" y="934" on="1"/>
        <pt x="657" y="934" on="1"/>
        <pt x="657" y="824" on="1"/>
        <pt x="104" y="824" on="1"/>
      </contour>
      <contour>
        <pt x="27" y="612" on="1"/>
        <pt x="1087" y="874" on="1"/>
        <pt x="1114" y="766" on="1"/>
        <pt x="51" y="504" on="1"/>
      </contour>
      <contour>
        <pt x="839" y="-84" on="1"/>
        <pt x="452" y="-84" on="1"/>
        <pt x="452" y="37" on="1"/>
        <pt x="815" y="565" on="1"/>
        <pt x="977" y="565" on="1"/>
        <pt x="977" y="27" on="1"/>
        <pt x="1093" y="27" on="1"/>
        <pt x="1093" y="-84" on="1"/>
        <pt x="977" y="-84" on="1"/>
        <pt x="977" y="-270" on="1"/>
        <pt x="839" y="-270" on="1"/>
      </contour>
      <contour>
        <pt x="839" y="27" on="1"/>
        <pt x="839" y="440" on="1"/>
        <pt x="565" y="27" on="1"/>
      </contour>
    </TTGlyph>
    <TTGlyph name="uni00BD" xMin="27" yMin="-270" xMax="1114" yMax="1659">
      <contour>
        <pt x="104" y="934" on="1"/>
        <pt x="309" y="934" on="1"/>
        <pt x="309" y="1545" on="1"/>
        <pt x="86" y="1504" on="1"/>
        <pt x="86" y="1620" on="1"/>
        <pt x="315" y="1659" on="1"/>
        <pt x="453" y="1659" on="1"/>
        <pt x="453" y="934" on="1"/>
        <pt x="657" y="934" on="1"/>
        <pt x="657" y="824" on="1"/>
        <pt x="104" y="824" on="1"/>
      </contour>
      <contour>
        <pt x="27" y="612" on="1"/>
        <pt x="1087" y="874" on="1"/>
        <pt x="1114" y="766" on="1"/>
        <pt x="51" y="504" on="1"/>
      </contour>
      <contour>
        <pt x="523" y="-160" on="1"/>
        <pt x="754" y="66" on="1"/>
        <pt x="816" y="126" on="0"/>
        <pt x="876" y="194" on="0"/>
        <pt x="896" y="224" on="1"/>
        <pt x="936" y="285" on="0"/>
        <pt x="936" y="337" on="1"/>
        <pt x="936" y="397" on="0"/>
        <pt x="836" y="473" on="0"/>
        <pt x="756" y="473" on="1"/>
        <pt x="704" y="473" on="0"/>
        <pt x="649" y="455" on="1"/>
        <pt x="592" y="437" on="0"/>
        <pt x="529" y="401" on="1"/>
        <pt x="529" y="526" on="1"/>
        <pt x="596" y="554" on="0"/>
        <pt x="655" y="568" on="1"/>
        <pt x="717" y="582" on="0"/>
        <pt x="777" y="582" on="1"/>
        <pt x="916" y="582" on="0"/>
        <pt x="1002" y="516" on="1"/>
        <pt x="1046" y="482" on="0"/>
        <pt x="1088" y="394" on="0"/>
        <pt x="1088" y="344" on="1"/>
        <pt x="1088" y="309" on="0"/>
        <pt x="1068" y="254" on="0"/>
        <pt x="1051" y="227" on="1"/>
        <pt x="1006" y="158" on="0"/>
        <pt x="895" y="49" on="1"/>
        <pt x="684" y="-156" on="1"/>
        <pt x="1094" y="-156" on="1"/>
        <pt x="1094" y="-270" on="1"/>
        <pt x="523" y="-270" on="1"/>
      </contour>
    </TTGlyph>
    <TTGlyph name="uni00BE" xMin="27" yMin="-270" xMax="1114" yMax="1676">
      <contour>
        <pt x="335" y="809" on="1"/>
        <pt x="300" y="809" on="0"/>
        <pt x="244" y="815" on="0"/>
        <pt x="215" y="820" on="1"/>
        <pt x="183" y="826" on="0"/>
        <pt x="129" y="840" on="0"/>
        <pt x="99" y="850" on="1"/>
        <pt x="99" y="971" on="1"/>
        <pt x="134" y="957" on="0"/>
        <pt x="196" y="938" on="0"/>
        <pt x="225" y="931" on="1"/>
        <pt x="276" y="918" on="0"/>
        <pt x="329" y="918" on="1"/>
        <pt x="426" y="918" on="0"/>
        <pt x="487" y="959" on="1"/>
        <pt x="513" y="977" on="0"/>
        <pt x="545" y="1033" on="0"/>
        <pt x="545" y="1071" on="1"/>
        <pt x="545" y="1141" on="0"/>
        <pt x="490" y="1179" on="1"/>
        <pt x="434" y="1217" on="0"/>
        <pt x="326" y="1217" on="1"/>
        <pt x="260" y="1217" on="1"/>
        <pt x="260" y="1325" on="1"/>
        <pt x="334" y="1325" on="1"/>
        <pt x="426" y="1325" on="0"/>
        <pt x="476" y="1357" on="1"/>
        <pt x="525" y="1388" on="0"/>
        <pt x="525" y="1447" on="1"/>
        <pt x="525" y="1504" on="0"/>
        <pt x="477" y="1536" on="1"/>
        <pt x="430" y="1567" on="0"/>
        <pt x="345" y="1567" on="1"/>
        <pt x="298" y="1567" on="0"/>
        <pt x="242" y="1555" on="1"/>
        <pt x="214" y="1549" on="0"/>
        <pt x="157" y="1531" on="0"/>
        <pt x="127" y="1520" on="1"/>
        <pt x="127" y="1641" on="1"/>
        <pt x="162" y="1649" on="0"/>
        <pt x="226" y="1662" on="0"/>
        <pt x="255" y="1667" on="1"/>
        <pt x="314" y="1676" on="0"/>
        <pt x="365" y="1676" on="1"/>
        <pt x="506" y="1676" on="0"/>
        <pt x="592" y="1617" on="1"/>
        <pt x="676" y="1558" on="0"/>
        <pt x="676" y="1460" on="1"/>
        <pt x="676" y="1389" on="0"/>
        <pt x="632" y="1342" on="1"/>
        <pt x="588" y="1295" on="0"/>
        <pt x="504" y="1276" on="1"/>
        <pt x="598" y="1255" on="0"/>
        <pt x="648" y="1201" on="1"/>
        <pt x="697" y="1149" on="0"/>
        <pt x="697" y="1065" on="1"/>
        <pt x="697" y="944" on="0"/>
        <pt x="602" y="876" on="1"/>
        <pt x="507" y="809" on="0"/>
      </contour>
      <contour>
        <pt x="27" y="612" on="1"/>
        <pt x="1087" y="874" on="1"/>
        <pt x="1114" y="766" on="1"/>
        <pt x="51" y="504" on="1"/>
      </contour>
      <contour>
        <pt x="839" y="-84" on="1"/>
        <pt x="452" y="-84" on="1"/>
        <pt x="452" y="37" on="1"/>
        <pt x="815" y="565" on="1"/>
        <pt x="977" y="565" on="1"/>
        <pt x="977" y="27" on="1"/>
        <pt x="1093" y="27" on="1"/>
        <pt x="1093" y="-84" on="1"/>
        <pt x="977" y="-84" on="1"/>
        <pt x="977" y="-270" on="1"/>
        <pt x="839" y="-270" on="1"/>
      </contour>
      <contour>
        <pt x="839" y="27" on="1"/>
        <pt x="839" y="440" on="1"/>
        <pt x="565" y="27" on="1"/>
      </contour>
    </TTGlyph>
    <TTGlyph name="uni00BF" xMin="193" yMin="-27" xMax="989" yMax="1556">
      <contour>
        <pt x="656" y="1252" on="1"/>
        <pt x="594" y="1252" on="0"/>
        <pt x="552" y="1294" on="1"/>
        <pt x="509" y="1337" on="0"/>
        <pt x="509" y="1405" on="1"/>
        <pt x="509" y="1472" on="0"/>
        <pt x="551" y="1514" on="1"/>
        <pt x="568" y="1531" on="0"/>
        <pt x="621" y="1556" on="0"/>
        <pt x="655" y="1556" on="1"/>
        <pt x="717" y="1556" on="0"/>
        <pt x="759" y="1514" on="1"/>
        <pt x="801" y="1472" on="0"/>
        <pt x="801" y="1405" on="1"/>
        <pt x="801" y="1337" on="0"/>
        <pt x="759" y="1295" on="1"/>
        <pt x="716" y="1252" on="0"/>
      </contour>
      <contour>
        <pt x="602" y="-27" on="1"/>
        <pt x="414" y="-27" on="0"/>
        <pt x="304" y="68" on="1"/>
        <pt x="193" y="165" on="0"/>
        <pt x="193" y="324" on="1"/>
        <pt x="193" y="379" on="0"/>
        <pt x="220" y="468" on="0"/>
        <pt x="290" y="562" on="0"/>
        <pt x="354" y="625" on="1"/>
        <pt x="442" y="711" on="1"/>
        <pt x="472" y="740" on="0"/>
        <pt x="517" y="792" on="0"/>
        <pt x="528" y="817" on="1"/>
        <pt x="547" y="856" on="0"/>
        <pt x="547" y="922" on="1"/>
        <pt x="547" y="927" on="1"/>
        <pt x="548" y="938" on="0"/>
        <pt x="549" y="959" on="0"/>
        <pt x="549" y="969" on="1"/>
        <pt x="549" y="1092" on="1"/>
        <pt x="739" y="1092" on="1"/>
        <pt x="739" y="938" on="1"/>
        <pt x="739" y="840" on="0"/>
        <pt x="709" y="772" on="1"/>
        <pt x="678" y="702" on="0"/>
        <pt x="594" y="621" on="1"/>
        <pt x="504" y="532" on="1"/>
        <pt x="484" y="512" on="0"/>
        <pt x="432" y="456" on="0"/>
        <pt x="418" y="429" on="1"/>
        <pt x="405" y="405" on="0"/>
        <pt x="395" y="352" on="0"/>
        <pt x="395" y="332" on="1"/>
        <pt x="395" y="289" on="0"/>
        <pt x="431" y="216" on="0"/>
        <pt x="460" y="192" on="1"/>
        <pt x="525" y="137" on="0"/>
        <pt x="633" y="137" on="1"/>
        <pt x="675" y="137" on="0"/>
        <pt x="757" y="155" on="0"/>
        <pt x="802" y="172" on="1"/>
        <pt x="892" y="206" on="0"/>
        <pt x="989" y="274" on="1"/>
        <pt x="989" y="86" on="1"/>
        <pt x="939" y="56" on="0"/>
        <pt x="843" y="14" on="0"/>
        <pt x="800" y="1" on="1"/>
        <pt x="752" y="-13" on="0"/>
        <pt x="651" y="-27" on="0"/>
      </contour>
    </TTGlyph>
    <TTGlyph name="uni00BF.case" xMin="193" yMin="-27" xMax="989" yMax="1534">
      <contour>
        <pt x="646" y="1230" on="1"/>
        <pt x="584" y="1230" on="0"/>
        <pt x="542" y="1272" on="1"/>
        <pt x="499" y="1315" on="0"/>
        <pt x="499" y="1383" on="1"/>
        <pt x="499" y="1450" on="0"/>
        <pt x="541" y="1492" on="1"/>
        <pt x="558" y="1509" on="0"/>
        <pt x="611" y="1534" on="0"/>
        <pt x="645" y="1534" on="1"/>
        <pt x="707" y="1534" on="0"/>
        <pt x="749" y="1492" on="1"/>
        <pt x="791" y="1450" on="0"/>
        <pt x="791" y="1383" on="1"/>
        <pt x="791" y="1315" on="0"/>
        <pt x="749" y="1273" on="1"/>
        <pt x="706" y="1230" on="0"/>
      </contour>
      <contour>
        <pt x="605" y="-27" on="1"/>
        <pt x="414" y="-27" on="0"/>
        <pt x="193" y="165" on="0"/>
        <pt x="193" y="325" on="1"/>
        <pt x="193" y="399" on="0"/>
        <pt x="259" y="532" on="0"/>
        <pt x="354" y="625" on="1"/>
        <pt x="442" y="711" on="1"/>
        <pt x="486" y="756" on="0"/>
        <pt x="532" y="816" on="0"/>
        <pt x="547" y="877" on="0"/>
        <pt x="547" y="922" on="1"/>
        <pt x="547" y="927" on="1"/>
        <pt x="548" y="938" on="0"/>
        <pt x="549" y="959" on="0"/>
        <pt x="549" y="969" on="1"/>
        <pt x="549" y="1092" on="1"/>
        <pt x="739" y="1092" on="1"/>
        <pt x="739" y="938" on="1"/>
        <pt x="739" y="834" on="0"/>
        <pt x="674" y="701" on="0"/>
        <pt x="594" y="621" on="1"/>
        <pt x="504" y="532" on="1"/>
        <pt x="446" y="474" on="0"/>
        <pt x="395" y="393" on="0"/>
        <pt x="395" y="338" on="1"/>
        <pt x="395" y="247" on="0"/>
        <pt x="526" y="137" on="0"/>
        <pt x="633" y="137" on="1"/>
        <pt x="792" y="137" on="0"/>
        <pt x="989" y="274" on="1"/>
        <pt x="989" y="86" on="1"/>
        <pt x="894" y="28" on="0"/>
        <pt x="702" y="-27" on="0"/>
      </contour>
    </TTGlyph>
    <TTGlyph name="uni00C0" xMin="37" yMin="0" xMax="1196" yMax="1849">
      <contour>
        <pt x="358" y="1849" on="1"/>
        <pt x="542" y="1849" on="1"/>
        <pt x="739" y="1585" on="1"/>
        <pt x="585" y="1585" on="1"/>
      </contour>
      <contour>
        <pt x="494" y="1493" on="1"/>
        <pt x="739" y="1493" on="1"/>
        <pt x="1196" y="0" on="1"/>
        <pt x="987" y="0" on="1"/>
        <pt x="877" y="389" on="1"/>
        <pt x="354" y="389" on="1"/>
        <pt x="246" y="0" on="1"/>
        <pt x="37" y="0" on="1"/>
      </contour>
      <contour>
        <pt x="829" y="551" on="1"/>
        <pt x="616" y="1315" on="1"/>
        <pt x="403" y="551" on="1"/>
      </contour>
    </TTGlyph>
    <TTGlyph name="uni00C1" xMin="37" yMin="0" xMax="1196" yMax="1856">
      <contour>
        <pt x="691" y="1856" on="1"/>
        <pt x="877" y="1856" on="1"/>
        <pt x="648" y="1592" on="1"/>
        <pt x="494" y="1592" on="1"/>
      </contour>
      <contour>
        <pt x="494" y="1493" on="1"/>
        <pt x="739" y="1493" on="1"/>
        <pt x="1196" y="0" on="1"/>
        <pt x="987" y="0" on="1"/>
        <pt x="877" y="389" on="1"/>
        <pt x="354" y="389" on="1"/>
        <pt x="246" y="0" on="1"/>
        <pt x="37" y="0" on="1"/>
      </contour>
      <contour>
        <pt x="829" y="551" on="1"/>
        <pt x="616" y="1315" on="1"/>
        <pt x="403" y="551" on="1"/>
      </contour>
    </TTGlyph>
    <TTGlyph name="uni00C2" xMin="37" yMin="0" xMax="1196" yMax="1852">
      <contour>
        <pt x="522" y="1852" on="1"/>
        <pt x="711" y="1852" on="1"/>
        <pt x="922" y="1586" on="1"/>
        <pt x="782" y="1586" on="1"/>
        <pt x="616" y="1764" on="1"/>
        <pt x="451" y="1586" on="1"/>
        <pt x="311" y="1586" on="1"/>
      </contour>
      <contour>
        <pt x="494" y="1493" on="1"/>
        <pt x="739" y="1493" on="1"/>
        <pt x="1196" y="0" on="1"/>
        <pt x="987" y="0" on="1"/>
        <pt x="877" y="389" on="1"/>
        <pt x="354" y="389" on="1"/>
        <pt x="246" y="0" on="1"/>
        <pt x="37" y="0" on="1"/>
      </contour>
      <contour>
        <pt x="829" y="551" on="1"/>
        <pt x="616" y="1315" on="1"/>
        <pt x="403" y="551" on="1"/>
      </contour>
    </TTGlyph>
    <TTGlyph name="uni00C3" xMin="37" yMin="0" xMax="1196" yMax="1806">
      <contour>
        <pt x="287" y="1587" on="1"/>
        <pt x="287" y="1635" on="0"/>
        <pt x="311" y="1715" on="0"/>
        <pt x="339" y="1747" on="1"/>
        <pt x="390" y="1806" on="0"/>
        <pt x="476" y="1806" on="1"/>
        <pt x="505" y="1806" on="0"/>
        <pt x="542" y="1798" on="1"/>
        <pt x="569" y="1791" on="0"/>
        <pt x="621" y="1763" on="1"/>
        <pt x="678" y="1733" on="1"/>
        <pt x="698" y="1720" on="0"/>
        <pt x="718" y="1714" on="1"/>
        <pt x="734" y="1708" on="0"/>
        <pt x="750" y="1708" on="1"/>
        <pt x="781" y="1708" on="0"/>
        <pt x="821" y="1760" on="0"/>
        <pt x="821" y="1800" on="1"/>
        <pt x="821" y="1806" on="1"/>
        <pt x="946" y="1806" on="1"/>
        <pt x="944" y="1706" on="0"/>
        <pt x="893" y="1647" on="1"/>
        <pt x="842" y="1587" on="0"/>
        <pt x="757" y="1587" on="1"/>
        <pt x="728" y="1587" on="0"/>
        <pt x="694" y="1595" on="1"/>
        <pt x="680" y="1599" on="0"/>
        <pt x="643" y="1614" on="0"/>
        <pt x="612" y="1630" on="1"/>
        <pt x="555" y="1663" on="1"/>
        <pt x="544" y="1670" on="0"/>
        <pt x="523" y="1679" on="0"/>
        <pt x="514" y="1683" on="1"/>
        <pt x="500" y="1688" on="0"/>
        <pt x="485" y="1688" on="1"/>
        <pt x="451" y="1688" on="0"/>
        <pt x="432" y="1663" on="1"/>
        <pt x="412" y="1637" on="0"/>
        <pt x="412" y="1593" on="1"/>
        <pt x="412" y="1587" on="1"/>
      </contour>
      <contour>
        <pt x="494" y="1493" on="1"/>
        <pt x="739" y="1493" on="1"/>
        <pt x="1196" y="0" on="1"/>
        <pt x="987" y="0" on="1"/>
        <pt x="877" y="389" on="1"/>
        <pt x="354" y="389" on="1"/>
        <pt x="246" y="0" on="1"/>
        <pt x="37" y="0" on="1"/>
      </contour>
      <contour>
        <pt x="829" y="551" on="1"/>
        <pt x="616" y="1315" on="1"/>
        <pt x="403" y="551" on="1"/>
      </contour>
    </TTGlyph>
    <TTGlyph name="uni00C4" xMin="37" yMin="0" xMax="1196" yMax="1850">
      <contour>
        <pt x="349" y="1647" on="1"/>
        <pt x="319" y="1647" on="0"/>
        <pt x="319" y="1677" on="1"/>
        <pt x="319" y="1820" on="1"/>
        <pt x="319" y="1850" on="0"/>
        <pt x="349" y="1850" on="1"/>
        <pt x="492" y="1850" on="1"/>
        <pt x="522" y="1850" on="0"/>
        <pt x="522" y="1820" on="1"/>
        <pt x="522" y="1677" on="1"/>
        <pt x="522" y="1647" on="0"/>
        <pt x="492" y="1647" on="1"/>
      </contour>
      <contour>
        <pt x="741" y="1647" on="1"/>
        <pt x="711" y="1647" on="0"/>
        <pt x="711" y="1677" on="1"/>
        <pt x="711" y="1820" on="1"/>
        <pt x="711" y="1850" on="0"/>
        <pt x="741" y="1850" on="1"/>
        <pt x="883" y="1850" on="1"/>
        <pt x="913" y="1850" on="0"/>
        <pt x="913" y="1820" on="1"/>
        <pt x="913" y="1677" on="1"/>
        <pt x="913" y="1647" on="0"/>
        <pt x="883" y="1647" on="1"/>
      </contour>
      <contour>
        <pt x="494" y="1493" on="1"/>
        <pt x="739" y="1493" on="1"/>
        <pt x="1196" y="0" on="1"/>
        <pt x="987" y="0" on="1"/>
        <pt x="877" y="389" on="1"/>
        <pt x="354" y="389" on="1"/>
        <pt x="246" y="0" on="1"/>
        <pt x="37" y="0" on="1"/>
      </contour>
      <contour>
        <pt x="829" y="551" on="1"/>
        <pt x="616" y="1315" on="1"/>
        <pt x="403" y="551" on="1"/>
      </contour>
    </TTGlyph>
    <TTGlyph name="uni00C5" xMin="37" yMin="0" xMax="1196" yMax="1901">
      <contour>
        <pt x="465" y="1399" on="1"/>
        <pt x="407" y="1432" on="0"/>
        <pt x="375" y="1492" on="1"/>
        <pt x="342" y="1551" on="0"/>
        <pt x="342" y="1625" on="1"/>
        <pt x="342" y="1704" on="0"/>
        <pt x="416" y="1828" on="0"/>
        <pt x="540" y="1901" on="0"/>
        <pt x="616" y="1901" on="1"/>
        <pt x="674" y="1901" on="0"/>
        <pt x="775" y="1858" on="0"/>
        <pt x="812" y="1821" on="1"/>
        <pt x="847" y="1786" on="0"/>
        <pt x="891" y="1686" on="0"/>
        <pt x="891" y="1625" on="1"/>
        <pt x="891" y="1553" on="0"/>
        <pt x="859" y="1494" on="1"/>
        <pt x="828" y="1437" on="0"/>
        <pt x="768" y="1399" on="1"/>
        <pt x="1196" y="0" on="1"/>
        <pt x="987" y="0" on="1"/>
        <pt x="877" y="389" on="1"/>
        <pt x="354" y="389" on="1"/>
        <pt x="246" y="0" on="1"/>
        <pt x="37" y="0" on="1"/>
      </contour>
      <contour>
        <pt x="616" y="1475" on="1"/>
        <pt x="680" y="1475" on="0"/>
        <pt x="724" y="1519" on="1"/>
        <pt x="768" y="1563" on="0"/>
        <pt x="768" y="1626" on="1"/>
        <pt x="768" y="1690" on="0"/>
        <pt x="724" y="1734" on="1"/>
        <pt x="701" y="1757" on="0"/>
        <pt x="644" y="1778" on="0"/>
        <pt x="615" y="1778" on="1"/>
        <pt x="552" y="1778" on="0"/>
        <pt x="509" y="1735" on="1"/>
        <pt x="465" y="1691" on="0"/>
        <pt x="465" y="1626" on="1"/>
        <pt x="465" y="1563" on="0"/>
        <pt x="553" y="1475" on="0"/>
      </contour>
      <contour>
        <pt x="829" y="551" on="1"/>
        <pt x="616" y="1311" on="1"/>
        <pt x="403" y="551" on="1"/>
      </contour>
    </TTGlyph>
    <TTGlyph name="uni00C6" xMin="0" yMin="0" xMax="1180" yMax="1493">
      <contour>
        <pt x="410" y="1493" on="1"/>
        <pt x="1161" y="1493" on="1"/>
        <pt x="1161" y="1323" on="1"/>
        <pt x="823" y="1323" on="1"/>
        <pt x="823" y="881" on="1"/>
        <pt x="1130" y="881" on="1"/>
        <pt x="1130" y="711" on="1"/>
        <pt x="823" y="711" on="1"/>
        <pt x="823" y="170" on="1"/>
        <pt x="1180" y="170" on="1"/>
        <pt x="1180" y="0" on="1"/>
        <pt x="637" y="0" on="1"/>
        <pt x="637" y="383" on="1"/>
        <pt x="285" y="383" on="1"/>
        <pt x="184" y="0" on="1"/>
        <pt x="0" y="0" on="1"/>
      </contour>
      <contour>
        <pt x="637" y="551" on="1"/>
        <pt x="637" y="1323" on="1"/>
        <pt x="530" y="1323" on="1"/>
        <pt x="328" y="551" on="1"/>
      </contour>
    </TTGlyph>
    <TTGlyph name="uni00C7" xMin="139" yMin="-395" xMax="1073" yMax="1520">
      <contour>
        <pt x="741" y="1356" on="1"/>
        <pt x="546" y="1356" on="0"/>
        <pt x="448" y="1204" on="1"/>
        <pt x="350" y="1052" on="0"/>
        <pt x="350" y="745" on="1"/>
        <pt x="350" y="439" on="0"/>
        <pt x="448" y="287" on="1"/>
        <pt x="495" y="215" on="0"/>
        <pt x="640" y="135" on="0"/>
        <pt x="742" y="135" on="1"/>
        <pt x="829" y="135" on="0"/>
        <pt x="916" y="167" on="1"/>
        <pt x="1000" y="199" on="0"/>
        <pt x="1073" y="260" on="1"/>
        <pt x="1073" y="53" on="1"/>
        <pt x="994" y="12" on="0"/>
        <pt x="915" y="-9" on="1"/>
        <pt x="893" y="-14" on="0"/>
        <pt x="846" y="-23" on="0"/>
        <pt x="822" y="-25" on="1"/>
        <pt x="865" y="-77" on="0"/>
        <pt x="883" y="-115" on="1"/>
        <pt x="894" y="-138" on="0"/>
        <pt x="909" y="-189" on="0"/>
        <pt x="909" y="-219" on="1"/>
        <pt x="909" y="-304" on="0"/>
        <pt x="849" y="-350" on="1"/>
        <pt x="820" y="-372" on="0"/>
        <pt x="732" y="-395" on="0"/>
        <pt x="670" y="-395" on="1"/>
        <pt x="626" y="-395" on="0"/>
        <pt x="583" y="-389" on="1"/>
        <pt x="537" y="-383" on="0"/>
        <pt x="495" y="-371" on="1"/>
        <pt x="495" y="-240" on="1"/>
        <pt x="564" y="-272" on="0"/>
        <pt x="646" y="-272" on="1"/>
        <pt x="770" y="-272" on="0"/>
        <pt x="770" y="-180" on="1"/>
        <pt x="770" y="-148" on="0"/>
        <pt x="748" y="-105" on="1"/>
        <pt x="740" y="-89" on="0"/>
        <pt x="717" y="-50" on="0"/>
        <pt x="701" y="-28" on="1"/>
        <pt x="442" y="-11" on="0"/>
        <pt x="297" y="174" on="1"/>
        <pt x="139" y="379" on="0"/>
        <pt x="139" y="744" on="1"/>
        <pt x="139" y="925" on="0"/>
        <pt x="218" y="1213" on="0"/>
        <pt x="298" y="1316" on="1"/>
        <pt x="458" y="1520" on="0"/>
        <pt x="742" y="1520" on="1"/>
        <pt x="835" y="1520" on="0"/>
        <pt x="915" y="1500" on="1"/>
        <pt x="994" y="1480" on="0"/>
        <pt x="1073" y="1438" on="1"/>
        <pt x="1073" y="1231" on="1"/>
        <pt x="1000" y="1292" on="0"/>
        <pt x="914" y="1324" on="1"/>
        <pt x="827" y="1356" on="0"/>
      </contour>
    </TTGlyph>
    <TTGlyph name="uni00C8" xMin="197" yMin="0" xMax="1102" yMax="1856">
      <contour>
        <pt x="395" y="1856" on="1"/>
        <pt x="579" y="1856" on="1"/>
        <pt x="776" y="1592" on="1"/>
        <pt x="622" y="1592" on="1"/>
      </contour>
      <contour>
        <pt x="197" y="1493" on="1"/>
        <pt x="1083" y="1493" on="1"/>
        <pt x="1083" y="1323" on="1"/>
        <pt x="399" y="1323" on="1"/>
        <pt x="399" y="881" on="1"/>
        <pt x="1053" y="881" on="1"/>
        <pt x="1053" y="711" on="1"/>
        <pt x="399" y="711" on="1"/>
        <pt x="399" y="170" on="1"/>
        <pt x="1102" y="170" on="1"/>
        <pt x="1102" y="0" on="1"/>
        <pt x="197" y="0" on="1"/>
      </contour>
    </TTGlyph>
    <TTGlyph name="uni00C9" xMin="197" yMin="0" xMax="1102" yMax="1856">
      <contour>
        <pt x="690" y="1856" on="1"/>
        <pt x="876" y="1856" on="1"/>
        <pt x="647" y="1592" on="1"/>
        <pt x="493" y="1592" on="1"/>
      </contour>
      <contour>
        <pt x="197" y="1493" on="1"/>
        <pt x="1083" y="1493" on="1"/>
        <pt x="1083" y="1323" on="1"/>
        <pt x="399" y="1323" on="1"/>
        <pt x="399" y="881" on="1"/>
        <pt x="1053" y="881" on="1"/>
        <pt x="1053" y="711" on="1"/>
        <pt x="399" y="711" on="1"/>
        <pt x="399" y="170" on="1"/>
        <pt x="1102" y="170" on="1"/>
        <pt x="1102" y="0" on="1"/>
        <pt x="197" y="0" on="1"/>
      </contour>
    </TTGlyph>
    <TTGlyph name="uni00CA" xMin="197" yMin="0" xMax="1102" yMax="1852">
      <contour>
        <pt x="540" y="1852" on="1"/>
        <pt x="729" y="1852" on="1"/>
        <pt x="940" y="1586" on="1"/>
        <pt x="800" y="1586" on="1"/>
        <pt x="634" y="1764" on="1"/>
        <pt x="469" y="1586" on="1"/>
        <pt x="329" y="1586" on="1"/>
      </contour>
      <contour>
        <pt x="197" y="1493" on="1"/>
        <pt x="1083" y="1493" on="1"/>
        <pt x="1083" y="1323" on="1"/>
        <pt x="399" y="1323" on="1"/>
        <pt x="399" y="881" on="1"/>
        <pt x="1053" y="881" on="1"/>
        <pt x="1053" y="711" on="1"/>
        <pt x="399" y="711" on="1"/>
        <pt x="399" y="170" on="1"/>
        <pt x="1102" y="170" on="1"/>
        <pt x="1102" y="0" on="1"/>
        <pt x="197" y="0" on="1"/>
      </contour>
    </TTGlyph>
    <TTGlyph name="uni00CB" xMin="197" yMin="0" xMax="1102" yMax="1850">
      <contour>
        <pt x="367" y="1647" on="1"/>
        <pt x="337" y="1647" on="0"/>
        <pt x="337" y="1677" on="1"/>
        <pt x="337" y="1820" on="1"/>
        <pt x="337" y="1850" on="0"/>
        <pt x="367" y="1850" on="1"/>
        <pt x="510" y="1850" on="1"/>
        <pt x="540" y="1850" on="0"/>
        <pt x="540" y="1820" on="1"/>
        <pt x="540" y="1677" on="1"/>
        <pt x="540" y="1647" on="0"/>
        <pt x="510" y="1647" on="1"/>
      </contour>
      <contour>
        <pt x="759" y="1647" on="1"/>
        <pt x="729" y="1647" on="0"/>
        <pt x="729" y="1677" on="1"/>
        <pt x="729" y="1820" on="1"/>
        <pt x="729" y="1850" on="0"/>
        <pt x="759" y="1850" on="1"/>
        <pt x="901" y="1850" on="1"/>
        <pt x="931" y="1850" on="0"/>
        <pt x="931" y="1820" on="1"/>
        <pt x="931" y="1677" on="1"/>
        <pt x="931" y="1647" on="0"/>
        <pt x="901" y="1647" on="1"/>
      </contour>
      <contour>
        <pt x="197" y="1493" on="1"/>
        <pt x="1083" y="1493" on="1"/>
        <pt x="1083" y="1323" on="1"/>
        <pt x="399" y="1323" on="1"/>
        <pt x="399" y="881" on="1"/>
        <pt x="1053" y="881" on="1"/>
        <pt x="1053" y="711" on="1"/>
        <pt x="399" y="711" on="1"/>
        <pt x="399" y="170" on="1"/>
        <pt x="1102" y="170" on="1"/>
        <pt x="1102" y="0" on="1"/>
        <pt x="197" y="0" on="1"/>
      </contour>
    </TTGlyph>
    <TTGlyph name="uni00CC" xMin="201" yMin="0" xMax="1030" yMax="1856">
      <contour>
        <pt x="372" y="1856" on="1"/>
        <pt x="556" y="1856" on="1"/>
        <pt x="753" y="1592" on="1"/>
        <pt x="599" y="1592" on="1"/>
      </contour>
      <contour>
        <pt x="201" y="170" on="1"/>
        <pt x="514" y="170" on="1"/>
        <pt x="514" y="1323" on="1"/>
        <pt x="201" y="1323" on="1"/>
        <pt x="201" y="1493" on="1"/>
        <pt x="1030" y="1493" on="1"/>
        <pt x="1030" y="1323" on="1"/>
        <pt x="717" y="1323" on="1"/>
        <pt x="717" y="170" on="1"/>
        <pt x="1030" y="170" on="1"/>
        <pt x="1030" y="0" on="1"/>
        <pt x="201" y="0" on="1"/>
      </contour>
    </TTGlyph>
    <TTGlyph name="uni00CD" xMin="201" yMin="0" xMax="1030" yMax="1856">
      <contour>
        <pt x="691" y="1856" on="1"/>
        <pt x="877" y="1856" on="1"/>
        <pt x="648" y="1592" on="1"/>
        <pt x="494" y="1592" on="1"/>
      </contour>
      <contour>
        <pt x="201" y="170" on="1"/>
        <pt x="514" y="170" on="1"/>
        <pt x="514" y="1323" on="1"/>
        <pt x="201" y="1323" on="1"/>
        <pt x="201" y="1493" on="1"/>
        <pt x="1030" y="1493" on="1"/>
        <pt x="1030" y="1323" on="1"/>
        <pt x="717" y="1323" on="1"/>
        <pt x="717" y="170" on="1"/>
        <pt x="1030" y="170" on="1"/>
        <pt x="1030" y="0" on="1"/>
        <pt x="201" y="0" on="1"/>
      </contour>
    </TTGlyph>
    <TTGlyph name="uni00CE" xMin="201" yMin="0" xMax="1030" yMax="1852">
      <contour>
        <pt x="521" y="1852" on="1"/>
        <pt x="710" y="1852" on="1"/>
        <pt x="921" y="1586" on="1"/>
        <pt x="781" y="1586" on="1"/>
        <pt x="615" y="1764" on="1"/>
        <pt x="450" y="1586" on="1"/>
        <pt x="310" y="1586" on="1"/>
      </contour>
      <contour>
        <pt x="201" y="170" on="1"/>
        <pt x="514" y="170" on="1"/>
        <pt x="514" y="1323" on="1"/>
        <pt x="201" y="1323" on="1"/>
        <pt x="201" y="1493" on="1"/>
        <pt x="1030" y="1493" on="1"/>
        <pt x="1030" y="1323" on="1"/>
        <pt x="717" y="1323" on="1"/>
        <pt x="717" y="170" on="1"/>
        <pt x="1030" y="170" on="1"/>
        <pt x="1030" y="0" on="1"/>
        <pt x="201" y="0" on="1"/>
      </contour>
    </TTGlyph>
    <TTGlyph name="uni00CF" xMin="201" yMin="0" xMax="1030" yMax="1850">
      <contour>
        <pt x="349" y="1647" on="1"/>
        <pt x="319" y="1647" on="0"/>
        <pt x="319" y="1677" on="1"/>
        <pt x="319" y="1820" on="1"/>
        <pt x="319" y="1850" on="0"/>
        <pt x="349" y="1850" on="1"/>
        <pt x="492" y="1850" on="1"/>
        <pt x="522" y="1850" on="0"/>
        <pt x="522" y="1820" on="1"/>
        <pt x="522" y="1677" on="1"/>
        <pt x="522" y="1647" on="0"/>
        <pt x="492" y="1647" on="1"/>
      </contour>
      <contour>
        <pt x="741" y="1647" on="1"/>
        <pt x="711" y="1647" on="0"/>
        <pt x="711" y="1677" on="1"/>
        <pt x="711" y="1820" on="1"/>
        <pt x="711" y="1850" on="0"/>
        <pt x="741" y="1850" on="1"/>
        <pt x="883" y="1850" on="1"/>
        <pt x="913" y="1850" on="0"/>
        <pt x="913" y="1820" on="1"/>
        <pt x="913" y="1677" on="1"/>
        <pt x="913" y="1647" on="0"/>
        <pt x="883" y="1647" on="1"/>
      </contour>
      <contour>
        <pt x="201" y="170" on="1"/>
        <pt x="514" y="170" on="1"/>
        <pt x="514" y="1323" on="1"/>
        <pt x="201" y="1323" on="1"/>
        <pt x="201" y="1493" on="1"/>
        <pt x="1030" y="1493" on="1"/>
        <pt x="1030" y="1323" on="1"/>
        <pt x="717" y="1323" on="1"/>
        <pt x="717" y="170" on="1"/>
        <pt x="1030" y="170" on="1"/>
        <pt x="1030" y="0" on="1"/>
        <pt x="201" y="0" on="1"/>
      </contour>
    </TTGlyph>
    <TTGlyph name="uni00D0" xMin="8" yMin="0" xMax="1102" yMax="1493">
      <contour>
        <pt x="133" y="709" on="1"/>
        <pt x="8" y="709" on="1"/>
        <pt x="8" y="858" on="1"/>
        <pt x="133" y="858" on="1"/>
        <pt x="133" y="1493" on="1"/>
        <pt x="436" y="1493" on="1"/>
        <pt x="778" y="1493" on="0"/>
        <pt x="1102" y="1129" on="0"/>
        <pt x="1102" y="746" on="1"/>
        <pt x="1102" y="364" on="0"/>
        <pt x="940" y="182" on="1"/>
        <pt x="857" y="89" on="0"/>
        <pt x="604" y="0" on="0"/>
        <pt x="436" y="0" on="1"/>
        <pt x="133" y="0" on="1"/>
      </contour>
      <contour>
        <pt x="436" y="166" on="1"/>
        <pt x="574" y="166" on="0"/>
        <pt x="742" y="232" on="0"/>
        <pt x="791" y="293" on="1"/>
        <pt x="843" y="358" on="0"/>
        <pt x="893" y="578" on="0"/>
        <pt x="893" y="748" on="1"/>
        <pt x="893" y="924" on="0"/>
        <pt x="842" y="1136" on="0"/>
        <pt x="792" y="1200" on="1"/>
        <pt x="739" y="1267" on="0"/>
        <pt x="566" y="1327" on="0"/>
        <pt x="436" y="1327" on="1"/>
        <pt x="340" y="1327" on="1"/>
        <pt x="340" y="858" on="1"/>
        <pt x="604" y="858" on="1"/>
        <pt x="604" y="709" on="1"/>
        <pt x="340" y="709" on="1"/>
        <pt x="340" y="166" on="1"/>
      </contour>
    </TTGlyph>
    <TTGlyph name="uni00D1" xMin="139" yMin="0" xMax="1094" yMax="1852">
      <contour>
        <pt x="287" y="1633" on="1"/>
        <pt x="287" y="1681" on="0"/>
        <pt x="311" y="1761" on="0"/>
        <pt x="339" y="1793" on="1"/>
        <pt x="390" y="1852" on="0"/>
        <pt x="476" y="1852" on="1"/>
        <pt x="505" y="1852" on="0"/>
        <pt x="542" y="1844" on="1"/>
        <pt x="569" y="1837" on="0"/>
        <pt x="621" y="1809" on="1"/>
        <pt x="678" y="1779" on="1"/>
        <pt x="698" y="1766" on="0"/>
        <pt x="718" y="1760" on="1"/>
        <pt x="734" y="1754" on="0"/>
        <pt x="750" y="1754" on="1"/>
        <pt x="781" y="1754" on="0"/>
        <pt x="821" y="1806" on="0"/>
        <pt x="821" y="1846" on="1"/>
        <pt x="821" y="1852" on="1"/>
        <pt x="946" y="1852" on="1"/>
        <pt x="944" y="1752" on="0"/>
        <pt x="893" y="1693" on="1"/>
        <pt x="842" y="1633" on="0"/>
        <pt x="757" y="1633" on="1"/>
        <pt x="728" y="1633" on="0"/>
        <pt x="694" y="1641" on="1"/>
        <pt x="680" y="1645" on="0"/>
        <pt x="643" y="1660" on="0"/>
        <pt x="612" y="1676" on="1"/>
        <pt x="555" y="1709" on="1"/>
        <pt x="544" y="1716" on="0"/>
        <pt x="523" y="1725" on="0"/>
        <pt x="514" y="1729" on="1"/>
        <pt x="500" y="1734" on="0"/>
        <pt x="485" y="1734" on="1"/>
        <pt x="451" y="1734" on="0"/>
        <pt x="432" y="1709" on="1"/>
        <pt x="412" y="1683" on="0"/>
        <pt x="412" y="1639" on="1"/>
        <pt x="412" y="1633" on="1"/>
      </contour>
      <contour>
        <pt x="139" y="1493" on="1"/>
        <pt x="395" y="1493" on="1"/>
        <pt x="899" y="264" on="1"/>
        <pt x="899" y="1493" on="1"/>
        <pt x="1094" y="1493" on="1"/>
        <pt x="1094" y="0" on="1"/>
        <pt x="838" y="0" on="1"/>
        <pt x="334" y="1229" on="1"/>
        <pt x="334" y="0" on="1"/>
        <pt x="139" y="0" on="1"/>
      </contour>
    </TTGlyph>
</ttFont>
